<?xml version="1.0" standalone="no"?>
 <!DOCTYPE svg PUBLIC "-//W3C//DTD SVG 1.1//EN" 
 "http://www.w3.org/Graphics/SVG/1.1/DTD/svg11.dtd"> 
<svg
  xmlns:svg="http://www.w3.org/2000/svg"
  xmlns="http://www.w3.org/2000/svg"
  xmlns:xlink="http://www.w3.org/1999/xlink"
  version="1.1"
  width="297.00220mm" height="210.00720mm" viewBox="0.00000 0.00000 297.00220 210.00720">
<title>SVG Image created as template-48.svg date 2024/02/29 16:23:37 </title>
  <desc>Image generated by PCBNEW </desc>
<g style="fill:#000000; fill-opacity:1.00000;stroke:#000000; stroke-opacity:1.00000;
stroke-linecap:round; stroke-linejoin:round;"
 transform="translate(0 0) scale(1 1)">
</g>
<g style="fill:#000000; fill-opacity:0.0; 
stroke:#000000; stroke-width:0.00000; stroke-opacity:1; 
stroke-linecap:round; stroke-linejoin:round;">
</g>
<g style="fill:#000000; fill-opacity:0.0; 
stroke:#000000; stroke-width:0.02120; stroke-opacity:1; 
stroke-linecap:round; stroke-linejoin:round;">
</g>
<g style="fill:#000000; fill-opacity:0.0; 
stroke:#000000; stroke-width:0.15000; stroke-opacity:1; 
stroke-linecap:round; stroke-linejoin:round;">
<path d="M177.00220 166.00720
L285.00220 166.00720
L285.00220 198.00720
L177.00220 198.00720
L177.00220 166.00720
" />
</g>
<g style="fill:#000000; fill-opacity:0.0; 
stroke:#000000; stroke-width:0.02120; stroke-opacity:1; 
stroke-linecap:round; stroke-linejoin:round;">
</g>
<g style="fill:#000000; fill-opacity:0.0; 
stroke:#000000; stroke-width:0.15000; stroke-opacity:1; 
stroke-linecap:round; stroke-linejoin:round;">
<path d="M10.00000 10.00000
L287.00220 10.00000
L287.00220 200.00720
L10.00000 200.00720
L10.00000 10.00000
" />
</g>
<g style="fill:#000000; fill-opacity:0.0; 
stroke:#000000; stroke-width:0.02120; stroke-opacity:1; 
stroke-linecap:round; stroke-linejoin:round;">
</g>
<g style="fill:#000000; fill-opacity:0.0; 
stroke:#000000; stroke-width:0.15000; stroke-opacity:1; 
stroke-linecap:round; stroke-linejoin:round;">
<path d="M12.00000 12.00000
L285.00220 12.00000
L285.00220 198.00720
L12.00000 198.00720
L12.00000 12.00000
" />
</g>
<g style="fill:#000000; fill-opacity:0.0; 
stroke:#000000; stroke-width:0.02120; stroke-opacity:1; 
stroke-linecap:round; stroke-linejoin:round;">
</g>
<g style="fill:#000000; fill-opacity:0.0; 
stroke:#000000; stroke-width:0.15000; stroke-opacity:1; 
stroke-linecap:round; stroke-linejoin:round;">
<path d="M60.00000 12.00000
L60.00000 10.00000
" />
</g>
<g style="fill:#000000; fill-opacity:0.0; 
stroke:#000000; stroke-width:0.02120; stroke-opacity:1; 
stroke-linecap:round; stroke-linejoin:round;">
</g>
<g style="fill:#000000; fill-opacity:0.0; 
stroke:#000000; stroke-width:0.15000; stroke-opacity:1; 
stroke-linecap:round; stroke-linejoin:round;">
<path d="M110.00000 12.00000
L110.00000 10.00000
" />
</g>
<g style="fill:#000000; fill-opacity:0.0; 
stroke:#000000; stroke-width:0.02120; stroke-opacity:1; 
stroke-linecap:round; stroke-linejoin:round;">
</g>
<g style="fill:#000000; fill-opacity:0.0; 
stroke:#000000; stroke-width:0.15000; stroke-opacity:1; 
stroke-linecap:round; stroke-linejoin:round;">
<path d="M160.00000 12.00000
L160.00000 10.00000
" />
</g>
<g style="fill:#000000; fill-opacity:0.0; 
stroke:#000000; stroke-width:0.02120; stroke-opacity:1; 
stroke-linecap:round; stroke-linejoin:round;">
</g>
<g style="fill:#000000; fill-opacity:0.0; 
stroke:#000000; stroke-width:0.15000; stroke-opacity:1; 
stroke-linecap:round; stroke-linejoin:round;">
<path d="M210.00000 12.00000
L210.00000 10.00000
" />
</g>
<g style="fill:#000000; fill-opacity:0.0; 
stroke:#000000; stroke-width:0.02120; stroke-opacity:1; 
stroke-linecap:round; stroke-linejoin:round;">
</g>
<g style="fill:#000000; fill-opacity:0.0; 
stroke:#000000; stroke-width:0.15000; stroke-opacity:1; 
stroke-linecap:round; stroke-linejoin:round;">
<path d="M260.00000 12.00000
L260.00000 10.00000
" />
</g>
<g style="fill:#000000; fill-opacity:0.0; 
stroke:#000000; stroke-width:0.02120; stroke-opacity:1; 
stroke-linecap:round; stroke-linejoin:round;">
</g>
<g style="fill:#000000; fill-opacity:0.0; 
stroke:#000000; stroke-width:0.15000; stroke-opacity:1; 
stroke-linecap:round; stroke-linejoin:round;">
<text x="35.00000" y="11.65000"
textLength="1.35309" font-size="1.73333" lengthAdjust="spacingAndGlyphs"
text-anchor="start" opacity="0">1</text>
<g class="stroked-text"><desc>1</desc>
<path d="M36.08916 11.59360
L35.34630 11.59360
" />
<path d="M35.71773 11.59360
L35.71773 10.29360
" />
<path d="M35.71773 10.29360
L35.59392 10.47932
" />
<path d="M35.59392 10.47932
L35.47011 10.60313
" />
<path d="M35.47011 10.60313
L35.34630 10.66503
" />
</g></g>
<g style="fill:#000000; fill-opacity:0.0; 
stroke:#000000; stroke-width:0.02120; stroke-opacity:1; 
stroke-linecap:round; stroke-linejoin:round;">
</g>
<g style="fill:#000000; fill-opacity:0.0; 
stroke:#000000; stroke-width:0.15000; stroke-opacity:1; 
stroke-linecap:round; stroke-linejoin:round;">
<text x="85.00000" y="11.65000"
textLength="1.35309" font-size="1.73333" lengthAdjust="spacingAndGlyphs"
text-anchor="start" opacity="0">2</text>
<g class="stroked-text"><desc>2</desc>
<path d="M85.34630 10.41741
L85.40821 10.35551
" />
<path d="M85.40821 10.35551
L85.53202 10.29360
" />
<path d="M85.53202 10.29360
L85.84154 10.29360
" />
<path d="M85.84154 10.29360
L85.96535 10.35551
" />
<path d="M85.96535 10.35551
L86.02725 10.41741
" />
<path d="M86.02725 10.41741
L86.08916 10.54122
" />
<path d="M86.08916 10.54122
L86.08916 10.66503
" />
<path d="M86.08916 10.66503
L86.02725 10.85075
" />
<path d="M86.02725 10.85075
L85.28440 11.59360
" />
<path d="M85.28440 11.59360
L86.08916 11.59360
" />
</g></g>
<g style="fill:#000000; fill-opacity:0.0; 
stroke:#000000; stroke-width:0.02120; stroke-opacity:1; 
stroke-linecap:round; stroke-linejoin:round;">
</g>
<g style="fill:#000000; fill-opacity:0.0; 
stroke:#000000; stroke-width:0.15000; stroke-opacity:1; 
stroke-linecap:round; stroke-linejoin:round;">
<text x="135.00000" y="11.65000"
textLength="1.35309" font-size="1.73333" lengthAdjust="spacingAndGlyphs"
text-anchor="start" opacity="0">3</text>
<g class="stroked-text"><desc>3</desc>
<path d="M135.28440 10.29360
L136.08916 10.29360
" />
<path d="M136.08916 10.29360
L135.65583 10.78884
" />
<path d="M135.65583 10.78884
L135.84154 10.78884
" />
<path d="M135.84154 10.78884
L135.96535 10.85075
" />
<path d="M135.96535 10.85075
L136.02725 10.91265
" />
<path d="M136.02725 10.91265
L136.08916 11.03646
" />
<path d="M136.08916 11.03646
L136.08916 11.34598
" />
<path d="M136.08916 11.34598
L136.02725 11.46979
" />
<path d="M136.02725 11.46979
L135.96535 11.53170
" />
<path d="M135.96535 11.53170
L135.84154 11.59360
" />
<path d="M135.84154 11.59360
L135.47011 11.59360
" />
<path d="M135.47011 11.59360
L135.34630 11.53170
" />
<path d="M135.34630 11.53170
L135.28440 11.46979
" />
</g></g>
<g style="fill:#000000; fill-opacity:0.0; 
stroke:#000000; stroke-width:0.02120; stroke-opacity:1; 
stroke-linecap:round; stroke-linejoin:round;">
</g>
<g style="fill:#000000; fill-opacity:0.0; 
stroke:#000000; stroke-width:0.15000; stroke-opacity:1; 
stroke-linecap:round; stroke-linejoin:round;">
<text x="185.00000" y="11.65000"
textLength="1.35309" font-size="1.73333" lengthAdjust="spacingAndGlyphs"
text-anchor="start" opacity="0">4</text>
<g class="stroked-text"><desc>4</desc>
<path d="M185.96535 10.72694
L185.96535 11.59360
" />
<path d="M185.65583 10.23170
L185.34630 11.16027
" />
<path d="M185.34630 11.16027
L186.15106 11.16027
" />
</g></g>
<g style="fill:#000000; fill-opacity:0.0; 
stroke:#000000; stroke-width:0.02120; stroke-opacity:1; 
stroke-linecap:round; stroke-linejoin:round;">
</g>
<g style="fill:#000000; fill-opacity:0.0; 
stroke:#000000; stroke-width:0.15000; stroke-opacity:1; 
stroke-linecap:round; stroke-linejoin:round;">
<text x="235.00000" y="11.65000"
textLength="1.35309" font-size="1.73333" lengthAdjust="spacingAndGlyphs"
text-anchor="start" opacity="0">5</text>
<g class="stroked-text"><desc>5</desc>
<path d="M236.02725 10.29360
L235.40821 10.29360
" />
<path d="M235.40821 10.29360
L235.34630 10.91265
" />
<path d="M235.34630 10.91265
L235.40821 10.85075
" />
<path d="M235.40821 10.85075
L235.53202 10.78884
" />
<path d="M235.53202 10.78884
L235.84154 10.78884
" />
<path d="M235.84154 10.78884
L235.96535 10.85075
" />
<path d="M235.96535 10.85075
L236.02725 10.91265
" />
<path d="M236.02725 10.91265
L236.08916 11.03646
" />
<path d="M236.08916 11.03646
L236.08916 11.34598
" />
<path d="M236.08916 11.34598
L236.02725 11.46979
" />
<path d="M236.02725 11.46979
L235.96535 11.53170
" />
<path d="M235.96535 11.53170
L235.84154 11.59360
" />
<path d="M235.84154 11.59360
L235.53202 11.59360
" />
<path d="M235.53202 11.59360
L235.40821 11.53170
" />
<path d="M235.40821 11.53170
L235.34630 11.46979
" />
</g></g>
<g style="fill:#000000; fill-opacity:0.0; 
stroke:#000000; stroke-width:0.02120; stroke-opacity:1; 
stroke-linecap:round; stroke-linejoin:round;">
</g>
<g style="fill:#000000; fill-opacity:0.0; 
stroke:#000000; stroke-width:0.15000; stroke-opacity:1; 
stroke-linecap:round; stroke-linejoin:round;">
<text x="285.00000" y="11.65000"
textLength="1.35309" font-size="1.73333" lengthAdjust="spacingAndGlyphs"
text-anchor="start" opacity="0">6</text>
<g class="stroked-text"><desc>6</desc>
<path d="M285.96535 10.29360
L285.71773 10.29360
" />
<path d="M285.71773 10.29360
L285.59392 10.35551
" />
<path d="M285.59392 10.35551
L285.53202 10.41741
" />
<path d="M285.53202 10.41741
L285.40821 10.60313
" />
<path d="M285.40821 10.60313
L285.34630 10.85075
" />
<path d="M285.34630 10.85075
L285.34630 11.34598
" />
<path d="M285.34630 11.34598
L285.40821 11.46979
" />
<path d="M285.40821 11.46979
L285.47011 11.53170
" />
<path d="M285.47011 11.53170
L285.59392 11.59360
" />
<path d="M285.59392 11.59360
L285.84154 11.59360
" />
<path d="M285.84154 11.59360
L285.96535 11.53170
" />
<path d="M285.96535 11.53170
L286.02725 11.46979
" />
<path d="M286.02725 11.46979
L286.08916 11.34598
" />
<path d="M286.08916 11.34598
L286.08916 11.03646
" />
<path d="M286.08916 11.03646
L286.02725 10.91265
" />
<path d="M286.02725 10.91265
L285.96535 10.85075
" />
<path d="M285.96535 10.85075
L285.84154 10.78884
" />
<path d="M285.84154 10.78884
L285.59392 10.78884
" />
<path d="M285.59392 10.78884
L285.47011 10.85075
" />
<path d="M285.47011 10.85075
L285.40821 10.91265
" />
<path d="M285.40821 10.91265
L285.34630 11.03646
" />
</g></g>
<g style="fill:#000000; fill-opacity:0.0; 
stroke:#000000; stroke-width:0.02120; stroke-opacity:1; 
stroke-linecap:round; stroke-linejoin:round;">
</g>
<g style="fill:#000000; fill-opacity:0.0; 
stroke:#000000; stroke-width:0.15000; stroke-opacity:1; 
stroke-linecap:round; stroke-linejoin:round;">
<path d="M60.00000 198.00720
L60.00000 200.00720
" />
</g>
<g style="fill:#000000; fill-opacity:0.0; 
stroke:#000000; stroke-width:0.02120; stroke-opacity:1; 
stroke-linecap:round; stroke-linejoin:round;">
</g>
<g style="fill:#000000; fill-opacity:0.0; 
stroke:#000000; stroke-width:0.15000; stroke-opacity:1; 
stroke-linecap:round; stroke-linejoin:round;">
<path d="M110.00000 198.00720
L110.00000 200.00720
" />
</g>
<g style="fill:#000000; fill-opacity:0.0; 
stroke:#000000; stroke-width:0.02120; stroke-opacity:1; 
stroke-linecap:round; stroke-linejoin:round;">
</g>
<g style="fill:#000000; fill-opacity:0.0; 
stroke:#000000; stroke-width:0.15000; stroke-opacity:1; 
stroke-linecap:round; stroke-linejoin:round;">
<path d="M160.00000 198.00720
L160.00000 200.00720
" />
</g>
<g style="fill:#000000; fill-opacity:0.0; 
stroke:#000000; stroke-width:0.02120; stroke-opacity:1; 
stroke-linecap:round; stroke-linejoin:round;">
</g>
<g style="fill:#000000; fill-opacity:0.0; 
stroke:#000000; stroke-width:0.15000; stroke-opacity:1; 
stroke-linecap:round; stroke-linejoin:round;">
<path d="M210.00000 198.00720
L210.00000 200.00720
" />
</g>
<g style="fill:#000000; fill-opacity:0.0; 
stroke:#000000; stroke-width:0.02120; stroke-opacity:1; 
stroke-linecap:round; stroke-linejoin:round;">
</g>
<g style="fill:#000000; fill-opacity:0.0; 
stroke:#000000; stroke-width:0.15000; stroke-opacity:1; 
stroke-linecap:round; stroke-linejoin:round;">
<path d="M260.00000 198.00720
L260.00000 200.00720
" />
</g>
<g style="fill:#000000; fill-opacity:0.0; 
stroke:#000000; stroke-width:0.02120; stroke-opacity:1; 
stroke-linecap:round; stroke-linejoin:round;">
</g>
<g style="fill:#000000; fill-opacity:0.0; 
stroke:#000000; stroke-width:0.15000; stroke-opacity:1; 
stroke-linecap:round; stroke-linejoin:round;">
<text x="35.00000" y="199.65720"
textLength="1.35309" font-size="1.73333" lengthAdjust="spacingAndGlyphs"
text-anchor="start" opacity="0">1</text>
<g class="stroked-text"><desc>1</desc>
<path d="M36.08916 199.60080
L35.34630 199.60080
" />
<path d="M35.71773 199.60080
L35.71773 198.30080
" />
<path d="M35.71773 198.30080
L35.59392 198.48652
" />
<path d="M35.59392 198.48652
L35.47011 198.61033
" />
<path d="M35.47011 198.61033
L35.34630 198.67223
" />
</g></g>
<g style="fill:#000000; fill-opacity:0.0; 
stroke:#000000; stroke-width:0.02120; stroke-opacity:1; 
stroke-linecap:round; stroke-linejoin:round;">
</g>
<g style="fill:#000000; fill-opacity:0.0; 
stroke:#000000; stroke-width:0.15000; stroke-opacity:1; 
stroke-linecap:round; stroke-linejoin:round;">
<text x="85.00000" y="199.65720"
textLength="1.35309" font-size="1.73333" lengthAdjust="spacingAndGlyphs"
text-anchor="start" opacity="0">2</text>
<g class="stroked-text"><desc>2</desc>
<path d="M85.34630 198.42461
L85.40821 198.36271
" />
<path d="M85.40821 198.36271
L85.53202 198.30080
" />
<path d="M85.53202 198.30080
L85.84154 198.30080
" />
<path d="M85.84154 198.30080
L85.96535 198.36271
" />
<path d="M85.96535 198.36271
L86.02725 198.42461
" />
<path d="M86.02725 198.42461
L86.08916 198.54842
" />
<path d="M86.08916 198.54842
L86.08916 198.67223
" />
<path d="M86.08916 198.67223
L86.02725 198.85795
" />
<path d="M86.02725 198.85795
L85.28440 199.60080
" />
<path d="M85.28440 199.60080
L86.08916 199.60080
" />
</g></g>
<g style="fill:#000000; fill-opacity:0.0; 
stroke:#000000; stroke-width:0.02120; stroke-opacity:1; 
stroke-linecap:round; stroke-linejoin:round;">
</g>
<g style="fill:#000000; fill-opacity:0.0; 
stroke:#000000; stroke-width:0.15000; stroke-opacity:1; 
stroke-linecap:round; stroke-linejoin:round;">
<text x="135.00000" y="199.65720"
textLength="1.35309" font-size="1.73333" lengthAdjust="spacingAndGlyphs"
text-anchor="start" opacity="0">3</text>
<g class="stroked-text"><desc>3</desc>
<path d="M135.28440 198.30080
L136.08916 198.30080
" />
<path d="M136.08916 198.30080
L135.65583 198.79604
" />
<path d="M135.65583 198.79604
L135.84154 198.79604
" />
<path d="M135.84154 198.79604
L135.96535 198.85795
" />
<path d="M135.96535 198.85795
L136.02725 198.91985
" />
<path d="M136.02725 198.91985
L136.08916 199.04366
" />
<path d="M136.08916 199.04366
L136.08916 199.35318
" />
<path d="M136.08916 199.35318
L136.02725 199.47699
" />
<path d="M136.02725 199.47699
L135.96535 199.53890
" />
<path d="M135.96535 199.53890
L135.84154 199.60080
" />
<path d="M135.84154 199.60080
L135.47011 199.60080
" />
<path d="M135.47011 199.60080
L135.34630 199.53890
" />
<path d="M135.34630 199.53890
L135.28440 199.47699
" />
</g></g>
<g style="fill:#000000; fill-opacity:0.0; 
stroke:#000000; stroke-width:0.02120; stroke-opacity:1; 
stroke-linecap:round; stroke-linejoin:round;">
</g>
<g style="fill:#000000; fill-opacity:0.0; 
stroke:#000000; stroke-width:0.15000; stroke-opacity:1; 
stroke-linecap:round; stroke-linejoin:round;">
<text x="185.00000" y="199.65720"
textLength="1.35309" font-size="1.73333" lengthAdjust="spacingAndGlyphs"
text-anchor="start" opacity="0">4</text>
<g class="stroked-text"><desc>4</desc>
<path d="M185.96535 198.73414
L185.96535 199.60080
" />
<path d="M185.65583 198.23890
L185.34630 199.16747
" />
<path d="M185.34630 199.16747
L186.15106 199.16747
" />
</g></g>
<g style="fill:#000000; fill-opacity:0.0; 
stroke:#000000; stroke-width:0.02120; stroke-opacity:1; 
stroke-linecap:round; stroke-linejoin:round;">
</g>
<g style="fill:#000000; fill-opacity:0.0; 
stroke:#000000; stroke-width:0.15000; stroke-opacity:1; 
stroke-linecap:round; stroke-linejoin:round;">
<text x="235.00000" y="199.65720"
textLength="1.35309" font-size="1.73333" lengthAdjust="spacingAndGlyphs"
text-anchor="start" opacity="0">5</text>
<g class="stroked-text"><desc>5</desc>
<path d="M236.02725 198.30080
L235.40821 198.30080
" />
<path d="M235.40821 198.30080
L235.34630 198.91985
" />
<path d="M235.34630 198.91985
L235.40821 198.85795
" />
<path d="M235.40821 198.85795
L235.53202 198.79604
" />
<path d="M235.53202 198.79604
L235.84154 198.79604
" />
<path d="M235.84154 198.79604
L235.96535 198.85795
" />
<path d="M235.96535 198.85795
L236.02725 198.91985
" />
<path d="M236.02725 198.91985
L236.08916 199.04366
" />
<path d="M236.08916 199.04366
L236.08916 199.35318
" />
<path d="M236.08916 199.35318
L236.02725 199.47699
" />
<path d="M236.02725 199.47699
L235.96535 199.53890
" />
<path d="M235.96535 199.53890
L235.84154 199.60080
" />
<path d="M235.84154 199.60080
L235.53202 199.60080
" />
<path d="M235.53202 199.60080
L235.40821 199.53890
" />
<path d="M235.40821 199.53890
L235.34630 199.47699
" />
</g></g>
<g style="fill:#000000; fill-opacity:0.0; 
stroke:#000000; stroke-width:0.02120; stroke-opacity:1; 
stroke-linecap:round; stroke-linejoin:round;">
</g>
<g style="fill:#000000; fill-opacity:0.0; 
stroke:#000000; stroke-width:0.15000; stroke-opacity:1; 
stroke-linecap:round; stroke-linejoin:round;">
<text x="285.00000" y="199.65720"
textLength="1.35309" font-size="1.73333" lengthAdjust="spacingAndGlyphs"
text-anchor="start" opacity="0">6</text>
<g class="stroked-text"><desc>6</desc>
<path d="M285.96535 198.30080
L285.71773 198.30080
" />
<path d="M285.71773 198.30080
L285.59392 198.36271
" />
<path d="M285.59392 198.36271
L285.53202 198.42461
" />
<path d="M285.53202 198.42461
L285.40821 198.61033
" />
<path d="M285.40821 198.61033
L285.34630 198.85795
" />
<path d="M285.34630 198.85795
L285.34630 199.35318
" />
<path d="M285.34630 199.35318
L285.40821 199.47699
" />
<path d="M285.40821 199.47699
L285.47011 199.53890
" />
<path d="M285.47011 199.53890
L285.59392 199.60080
" />
<path d="M285.59392 199.60080
L285.84154 199.60080
" />
<path d="M285.84154 199.60080
L285.96535 199.53890
" />
<path d="M285.96535 199.53890
L286.02725 199.47699
" />
<path d="M286.02725 199.47699
L286.08916 199.35318
" />
<path d="M286.08916 199.35318
L286.08916 199.04366
" />
<path d="M286.08916 199.04366
L286.02725 198.91985
" />
<path d="M286.02725 198.91985
L285.96535 198.85795
" />
<path d="M285.96535 198.85795
L285.84154 198.79604
" />
<path d="M285.84154 198.79604
L285.59392 198.79604
" />
<path d="M285.59392 198.79604
L285.47011 198.85795
" />
<path d="M285.47011 198.85795
L285.40821 198.91985
" />
<path d="M285.40821 198.91985
L285.34630 199.04366
" />
</g></g>
<g style="fill:#000000; fill-opacity:0.0; 
stroke:#000000; stroke-width:0.02120; stroke-opacity:1; 
stroke-linecap:round; stroke-linejoin:round;">
</g>
<g style="fill:#000000; fill-opacity:0.0; 
stroke:#000000; stroke-width:0.15000; stroke-opacity:1; 
stroke-linecap:round; stroke-linejoin:round;">
<path d="M10.00000 60.00000
L12.00000 60.00000
" />
</g>
<g style="fill:#000000; fill-opacity:0.0; 
stroke:#000000; stroke-width:0.02120; stroke-opacity:1; 
stroke-linecap:round; stroke-linejoin:round;">
</g>
<g style="fill:#000000; fill-opacity:0.0; 
stroke:#000000; stroke-width:0.15000; stroke-opacity:1; 
stroke-linecap:round; stroke-linejoin:round;">
<path d="M10.00000 110.00000
L12.00000 110.00000
" />
</g>
<g style="fill:#000000; fill-opacity:0.0; 
stroke:#000000; stroke-width:0.02120; stroke-opacity:1; 
stroke-linecap:round; stroke-linejoin:round;">
</g>
<g style="fill:#000000; fill-opacity:0.0; 
stroke:#000000; stroke-width:0.15000; stroke-opacity:1; 
stroke-linecap:round; stroke-linejoin:round;">
<path d="M10.00000 160.00000
L12.00000 160.00000
" />
</g>
<g style="fill:#000000; fill-opacity:0.0; 
stroke:#000000; stroke-width:0.02120; stroke-opacity:1; 
stroke-linecap:round; stroke-linejoin:round;">
</g>
<g style="fill:#000000; fill-opacity:0.0; 
stroke:#000000; stroke-width:0.15000; stroke-opacity:1; 
stroke-linecap:round; stroke-linejoin:round;">
<text x="11.00000" y="35.65000"
textLength="1.22929" font-size="1.73333" lengthAdjust="spacingAndGlyphs"
text-anchor="middle" opacity="0">A</text>
<g class="stroked-text"><desc>A</desc>
<path d="M10.69048 35.22218
L11.30952 35.22218
" />
<path d="M10.56667 35.59360
L11.00000 34.29360
" />
<path d="M11.00000 34.29360
L11.43333 35.59360
" />
</g></g>
<g style="fill:#000000; fill-opacity:0.0; 
stroke:#000000; stroke-width:0.02120; stroke-opacity:1; 
stroke-linecap:round; stroke-linejoin:round;">
</g>
<g style="fill:#000000; fill-opacity:0.0; 
stroke:#000000; stroke-width:0.15000; stroke-opacity:1; 
stroke-linecap:round; stroke-linejoin:round;">
<text x="11.00000" y="85.65000"
textLength="1.41500" font-size="1.73333" lengthAdjust="spacingAndGlyphs"
text-anchor="middle" opacity="0">B</text>
<g class="stroked-text"><desc>B</desc>
<path d="M11.09286 84.91265
L11.27857 84.97456
" />
<path d="M11.27857 84.97456
L11.34048 85.03646
" />
<path d="M11.34048 85.03646
L11.40238 85.16027
" />
<path d="M11.40238 85.16027
L11.40238 85.34598
" />
<path d="M11.40238 85.34598
L11.34048 85.46979
" />
<path d="M11.34048 85.46979
L11.27857 85.53170
" />
<path d="M11.27857 85.53170
L11.15476 85.59360
" />
<path d="M11.15476 85.59360
L10.65952 85.59360
" />
<path d="M10.65952 85.59360
L10.65952 84.29360
" />
<path d="M10.65952 84.29360
L11.09286 84.29360
" />
<path d="M11.09286 84.29360
L11.21667 84.35551
" />
<path d="M11.21667 84.35551
L11.27857 84.41741
" />
<path d="M11.27857 84.41741
L11.34048 84.54122
" />
<path d="M11.34048 84.54122
L11.34048 84.66503
" />
<path d="M11.34048 84.66503
L11.27857 84.78884
" />
<path d="M11.27857 84.78884
L11.21667 84.85075
" />
<path d="M11.21667 84.85075
L11.09286 84.91265
" />
<path d="M11.09286 84.91265
L10.65952 84.91265
" />
</g></g>
<g style="fill:#000000; fill-opacity:0.0; 
stroke:#000000; stroke-width:0.02120; stroke-opacity:1; 
stroke-linecap:round; stroke-linejoin:round;">
</g>
<g style="fill:#000000; fill-opacity:0.0; 
stroke:#000000; stroke-width:0.15000; stroke-opacity:1; 
stroke-linecap:round; stroke-linejoin:round;">
<text x="11.00000" y="135.65000"
textLength="1.41500" font-size="1.73333" lengthAdjust="spacingAndGlyphs"
text-anchor="middle" opacity="0">C</text>
<g class="stroked-text"><desc>C</desc>
<path d="M11.40238 135.46980
L11.34048 135.53170
" />
<path d="M11.34048 135.53170
L11.15476 135.59360
" />
<path d="M11.15476 135.59360
L11.03095 135.59360
" />
<path d="M11.03095 135.59360
L10.84524 135.53170
" />
<path d="M10.84524 135.53170
L10.72143 135.40789
" />
<path d="M10.72143 135.40789
L10.65952 135.28408
" />
<path d="M10.65952 135.28408
L10.59762 135.03646
" />
<path d="M10.59762 135.03646
L10.59762 134.85075
" />
<path d="M10.59762 134.85075
L10.65952 134.60313
" />
<path d="M10.65952 134.60313
L10.72143 134.47932
" />
<path d="M10.72143 134.47932
L10.84524 134.35551
" />
<path d="M10.84524 134.35551
L11.03095 134.29360
" />
<path d="M11.03095 134.29360
L11.15476 134.29360
" />
<path d="M11.15476 134.29360
L11.34048 134.35551
" />
<path d="M11.34048 134.35551
L11.40238 134.41741
" />
</g></g>
<g style="fill:#000000; fill-opacity:0.0; 
stroke:#000000; stroke-width:0.02120; stroke-opacity:1; 
stroke-linecap:round; stroke-linejoin:round;">
</g>
<g style="fill:#000000; fill-opacity:0.0; 
stroke:#000000; stroke-width:0.15000; stroke-opacity:1; 
stroke-linecap:round; stroke-linejoin:round;">
<text x="11.00000" y="185.65000"
textLength="1.41500" font-size="1.73333" lengthAdjust="spacingAndGlyphs"
text-anchor="middle" opacity="0">D</text>
<g class="stroked-text"><desc>D</desc>
<path d="M10.65952 185.59360
L10.65952 184.29360
" />
<path d="M10.65952 184.29360
L10.96905 184.29360
" />
<path d="M10.96905 184.29360
L11.15476 184.35551
" />
<path d="M11.15476 184.35551
L11.27857 184.47932
" />
<path d="M11.27857 184.47932
L11.34048 184.60313
" />
<path d="M11.34048 184.60313
L11.40238 184.85075
" />
<path d="M11.40238 184.85075
L11.40238 185.03646
" />
<path d="M11.40238 185.03646
L11.34048 185.28408
" />
<path d="M11.34048 185.28408
L11.27857 185.40789
" />
<path d="M11.27857 185.40789
L11.15476 185.53170
" />
<path d="M11.15476 185.53170
L10.96905 185.59360
" />
<path d="M10.96905 185.59360
L10.65952 185.59360
" />
</g></g>
<g style="fill:#000000; fill-opacity:0.0; 
stroke:#000000; stroke-width:0.02120; stroke-opacity:1; 
stroke-linecap:round; stroke-linejoin:round;">
</g>
<g style="fill:#000000; fill-opacity:0.0; 
stroke:#000000; stroke-width:0.15000; stroke-opacity:1; 
stroke-linecap:round; stroke-linejoin:round;">
<path d="M287.00220 60.00000
L285.00220 60.00000
" />
</g>
<g style="fill:#000000; fill-opacity:0.0; 
stroke:#000000; stroke-width:0.02120; stroke-opacity:1; 
stroke-linecap:round; stroke-linejoin:round;">
</g>
<g style="fill:#000000; fill-opacity:0.0; 
stroke:#000000; stroke-width:0.15000; stroke-opacity:1; 
stroke-linecap:round; stroke-linejoin:round;">
<path d="M287.00220 110.00000
L285.00220 110.00000
" />
</g>
<g style="fill:#000000; fill-opacity:0.0; 
stroke:#000000; stroke-width:0.02120; stroke-opacity:1; 
stroke-linecap:round; stroke-linejoin:round;">
</g>
<g style="fill:#000000; fill-opacity:0.0; 
stroke:#000000; stroke-width:0.15000; stroke-opacity:1; 
stroke-linecap:round; stroke-linejoin:round;">
<path d="M287.00220 160.00000
L285.00220 160.00000
" />
</g>
<g style="fill:#000000; fill-opacity:0.0; 
stroke:#000000; stroke-width:0.02120; stroke-opacity:1; 
stroke-linecap:round; stroke-linejoin:round;">
</g>
<g style="fill:#000000; fill-opacity:0.0; 
stroke:#000000; stroke-width:0.15000; stroke-opacity:1; 
stroke-linecap:round; stroke-linejoin:round;">
<text x="286.00220" y="35.65000"
textLength="1.22929" font-size="1.73333" lengthAdjust="spacingAndGlyphs"
text-anchor="middle" opacity="0">A</text>
<g class="stroked-text"><desc>A</desc>
<path d="M285.69268 35.22218
L286.31172 35.22218
" />
<path d="M285.56887 35.59360
L286.00220 34.29360
" />
<path d="M286.00220 34.29360
L286.43553 35.59360
" />
</g></g>
<g style="fill:#000000; fill-opacity:0.0; 
stroke:#000000; stroke-width:0.02120; stroke-opacity:1; 
stroke-linecap:round; stroke-linejoin:round;">
</g>
<g style="fill:#000000; fill-opacity:0.0; 
stroke:#000000; stroke-width:0.15000; stroke-opacity:1; 
stroke-linecap:round; stroke-linejoin:round;">
<text x="286.00220" y="85.65000"
textLength="1.41500" font-size="1.73333" lengthAdjust="spacingAndGlyphs"
text-anchor="middle" opacity="0">B</text>
<g class="stroked-text"><desc>B</desc>
<path d="M286.09506 84.91265
L286.28077 84.97456
" />
<path d="M286.28077 84.97456
L286.34268 85.03646
" />
<path d="M286.34268 85.03646
L286.40458 85.16027
" />
<path d="M286.40458 85.16027
L286.40458 85.34598
" />
<path d="M286.40458 85.34598
L286.34268 85.46979
" />
<path d="M286.34268 85.46979
L286.28077 85.53170
" />
<path d="M286.28077 85.53170
L286.15696 85.59360
" />
<path d="M286.15696 85.59360
L285.66172 85.59360
" />
<path d="M285.66172 85.59360
L285.66172 84.29360
" />
<path d="M285.66172 84.29360
L286.09506 84.29360
" />
<path d="M286.09506 84.29360
L286.21887 84.35551
" />
<path d="M286.21887 84.35551
L286.28077 84.41741
" />
<path d="M286.28077 84.41741
L286.34268 84.54122
" />
<path d="M286.34268 84.54122
L286.34268 84.66503
" />
<path d="M286.34268 84.66503
L286.28077 84.78884
" />
<path d="M286.28077 84.78884
L286.21887 84.85075
" />
<path d="M286.21887 84.85075
L286.09506 84.91265
" />
<path d="M286.09506 84.91265
L285.66172 84.91265
" />
</g></g>
<g style="fill:#000000; fill-opacity:0.0; 
stroke:#000000; stroke-width:0.02120; stroke-opacity:1; 
stroke-linecap:round; stroke-linejoin:round;">
</g>
<g style="fill:#000000; fill-opacity:0.0; 
stroke:#000000; stroke-width:0.15000; stroke-opacity:1; 
stroke-linecap:round; stroke-linejoin:round;">
<text x="286.00220" y="135.65000"
textLength="1.41500" font-size="1.73333" lengthAdjust="spacingAndGlyphs"
text-anchor="middle" opacity="0">C</text>
<g class="stroked-text"><desc>C</desc>
<path d="M286.40458 135.46980
L286.34268 135.53170
" />
<path d="M286.34268 135.53170
L286.15696 135.59360
" />
<path d="M286.15696 135.59360
L286.03315 135.59360
" />
<path d="M286.03315 135.59360
L285.84744 135.53170
" />
<path d="M285.84744 135.53170
L285.72363 135.40789
" />
<path d="M285.72363 135.40789
L285.66172 135.28408
" />
<path d="M285.66172 135.28408
L285.59982 135.03646
" />
<path d="M285.59982 135.03646
L285.59982 134.85075
" />
<path d="M285.59982 134.85075
L285.66172 134.60313
" />
<path d="M285.66172 134.60313
L285.72363 134.47932
" />
<path d="M285.72363 134.47932
L285.84744 134.35551
" />
<path d="M285.84744 134.35551
L286.03315 134.29360
" />
<path d="M286.03315 134.29360
L286.15696 134.29360
" />
<path d="M286.15696 134.29360
L286.34268 134.35551
" />
<path d="M286.34268 134.35551
L286.40458 134.41741
" />
</g></g>
<g style="fill:#000000; fill-opacity:0.0; 
stroke:#000000; stroke-width:0.02120; stroke-opacity:1; 
stroke-linecap:round; stroke-linejoin:round;">
</g>
<g style="fill:#000000; fill-opacity:0.0; 
stroke:#000000; stroke-width:0.15000; stroke-opacity:1; 
stroke-linecap:round; stroke-linejoin:round;">
<text x="286.00220" y="185.65000"
textLength="1.41500" font-size="1.73333" lengthAdjust="spacingAndGlyphs"
text-anchor="middle" opacity="0">D</text>
<g class="stroked-text"><desc>D</desc>
<path d="M285.66172 185.59360
L285.66172 184.29360
" />
<path d="M285.66172 184.29360
L285.97125 184.29360
" />
<path d="M285.97125 184.29360
L286.15696 184.35551
" />
<path d="M286.15696 184.35551
L286.28077 184.47932
" />
<path d="M286.28077 184.47932
L286.34268 184.60313
" />
<path d="M286.34268 184.60313
L286.40458 184.85075
" />
<path d="M286.40458 184.85075
L286.40458 185.03646
" />
<path d="M286.40458 185.03646
L286.34268 185.28408
" />
<path d="M286.34268 185.28408
L286.28077 185.40789
" />
<path d="M286.28077 185.40789
L286.15696 185.53170
" />
<path d="M286.15696 185.53170
L285.97125 185.59360
" />
<path d="M285.97125 185.59360
L285.66172 185.59360
" />
</g></g>
<g style="fill:#000000; fill-opacity:0.0; 
stroke:#000000; stroke-width:0.02120; stroke-opacity:1; 
stroke-linecap:round; stroke-linejoin:round;">
</g>
<g style="fill:#000000; fill-opacity:0.0; 
stroke:#000000; stroke-width:0.15000; stroke-opacity:1; 
stroke-linecap:round; stroke-linejoin:round;">
<text x="200.00220" y="193.85720"
textLength="6.93214" font-size="2.00000" lengthAdjust="spacingAndGlyphs"
text-anchor="start" opacity="0">Date: </text>
<g class="stroked-text"><desc>Date: </desc>
<path d="M200.45803 193.79333
L200.45803 192.29333
" />
<path d="M200.45803 192.29333
L200.81517 192.29333
" />
<path d="M200.81517 192.29333
L201.02945 192.36476
" />
<path d="M201.02945 192.36476
L201.17231 192.50761
" />
<path d="M201.17231 192.50761
L201.24374 192.65047
" />
<path d="M201.24374 192.65047
L201.31517 192.93618
" />
<path d="M201.31517 192.93618
L201.31517 193.15047
" />
<path d="M201.31517 193.15047
L201.24374 193.43618
" />
<path d="M201.24374 193.43618
L201.17231 193.57904
" />
<path d="M201.17231 193.57904
L201.02945 193.72190
" />
<path d="M201.02945 193.72190
L200.81517 193.79333
" />
<path d="M200.81517 193.79333
L200.45803 193.79333
" />
<path d="M202.60088 193.79333
L202.60088 193.00761
" />
<path d="M202.60088 193.00761
L202.52945 192.86476
" />
<path d="M202.52945 192.86476
L202.38660 192.79333
" />
<path d="M202.38660 192.79333
L202.10088 192.79333
" />
<path d="M202.10088 192.79333
L201.95803 192.86476
" />
<path d="M202.60088 193.72190
L202.45803 193.79333
" />
<path d="M202.45803 193.79333
L202.10088 193.79333
" />
<path d="M202.10088 193.79333
L201.95803 193.72190
" />
<path d="M201.95803 193.72190
L201.88660 193.57904
" />
<path d="M201.88660 193.57904
L201.88660 193.43618
" />
<path d="M201.88660 193.43618
L201.95803 193.29333
" />
<path d="M201.95803 193.29333
L202.10088 193.22190
" />
<path d="M202.10088 193.22190
L202.45803 193.22190
" />
<path d="M202.45803 193.22190
L202.60088 193.15047
" />
<path d="M203.10088 192.79333
L203.67231 192.79333
" />
<path d="M203.31517 192.29333
L203.31517 193.57904
" />
<path d="M203.31517 193.57904
L203.38660 193.72190
" />
<path d="M203.38660 193.72190
L203.52945 193.79333
" />
<path d="M203.52945 193.79333
L203.67231 193.79333
" />
<path d="M204.74374 193.72190
L204.60088 193.79333
" />
<path d="M204.60088 193.79333
L204.31517 193.79333
" />
<path d="M204.31517 193.79333
L204.17231 193.72190
" />
<path d="M204.17231 193.72190
L204.10088 193.57904
" />
<path d="M204.10088 193.57904
L204.10088 193.00761
" />
<path d="M204.10088 193.00761
L204.17231 192.86476
" />
<path d="M204.17231 192.86476
L204.31517 192.79333
" />
<path d="M204.31517 192.79333
L204.60088 192.79333
" />
<path d="M204.60088 192.79333
L204.74374 192.86476
" />
<path d="M204.74374 192.86476
L204.81517 193.00761
" />
<path d="M204.81517 193.00761
L204.81517 193.15047
" />
<path d="M204.81517 193.15047
L204.10088 193.29333
" />
<path d="M205.45803 193.65047
L205.52945 193.72190
" />
<path d="M205.52945 193.72190
L205.45803 193.79333
" />
<path d="M205.45803 193.79333
L205.38660 193.72190
" />
<path d="M205.38660 193.72190
L205.45803 193.65047
" />
<path d="M205.45803 193.65047
L205.45803 193.79333
" />
<path d="M205.45803 192.86476
L205.52945 192.93618
" />
<path d="M205.52945 192.93618
L205.45803 193.00761
" />
<path d="M205.45803 193.00761
L205.38660 192.93618
" />
<path d="M205.38660 192.93618
L205.45803 192.86476
" />
<path d="M205.45803 192.86476
L205.45803 193.00761
" />
</g></g>
<g style="fill:#000000; fill-opacity:0.0; 
stroke:#000000; stroke-width:0.02120; stroke-opacity:1; 
stroke-linecap:round; stroke-linejoin:round;">
</g>
<g style="fill:#000000; fill-opacity:0.0; 
stroke:#000000; stroke-width:0.15000; stroke-opacity:1; 
stroke-linecap:round; stroke-linejoin:round;">
<path d="M177.00220 194.50720
L285.00220 194.50720
" />
</g>
<g style="fill:#000000; fill-opacity:0.0; 
stroke:#000000; stroke-width:0.02120; stroke-opacity:1; 
stroke-linecap:round; stroke-linejoin:round;">
</g>
<g style="fill:#000000; fill-opacity:0.0; 
stroke:#000000; stroke-width:0.15000; stroke-opacity:1; 
stroke-linecap:round; stroke-linejoin:round;">
<text x="178.00220" y="196.65720"
textLength="20.57500" font-size="2.00000" lengthAdjust="spacingAndGlyphs"
text-anchor="start" opacity="0">${KICAD_VERSION}</text>
<g class="stroked-text"><desc>${KICAD_VERSION}</desc>
<path d="M178.38660 196.52190
L178.60088 196.59333
" />
<path d="M178.60088 196.59333
L178.95803 196.59333
" />
<path d="M178.95803 196.59333
L179.10088 196.52190
" />
<path d="M179.10088 196.52190
L179.17231 196.45047
" />
<path d="M179.17231 196.45047
L179.24374 196.30761
" />
<path d="M179.24374 196.30761
L179.24374 196.16476
" />
<path d="M179.24374 196.16476
L179.17231 196.02190
" />
<path d="M179.17231 196.02190
L179.10088 195.95047
" />
<path d="M179.10088 195.95047
L178.95803 195.87904
" />
<path d="M178.95803 195.87904
L178.67231 195.80761
" />
<path d="M178.67231 195.80761
L178.52945 195.73618
" />
<path d="M178.52945 195.73618
L178.45803 195.66476
" />
<path d="M178.45803 195.66476
L178.38660 195.52190
" />
<path d="M178.38660 195.52190
L178.38660 195.37904
" />
<path d="M178.38660 195.37904
L178.45803 195.23618
" />
<path d="M178.45803 195.23618
L178.52945 195.16476
" />
<path d="M178.52945 195.16476
L178.67231 195.09333
" />
<path d="M178.67231 195.09333
L179.02945 195.09333
" />
<path d="M179.02945 195.09333
L179.24374 195.16476
" />
<path d="M178.81517 194.87904
L178.81517 196.80761
" />
<path d="M180.31517 197.16476
L180.24374 197.16476
" />
<path d="M180.24374 197.16476
L180.10088 197.09333
" />
<path d="M180.10088 197.09333
L180.02945 196.95047
" />
<path d="M180.02945 196.95047
L180.02945 196.23618
" />
<path d="M180.02945 196.23618
L179.95803 196.09333
" />
<path d="M179.95803 196.09333
L179.81517 196.02190
" />
<path d="M179.81517 196.02190
L179.95803 195.95047
" />
<path d="M179.95803 195.95047
L180.02945 195.80761
" />
<path d="M180.02945 195.80761
L180.02945 195.09333
" />
<path d="M180.02945 195.09333
L180.10088 194.95047
" />
<path d="M180.10088 194.95047
L180.24374 194.87904
" />
<path d="M180.24374 194.87904
L180.31517 194.87904
" />
<path d="M180.88660 196.59333
L180.88660 195.09333
" />
<path d="M181.74374 196.59333
L181.10088 195.73618
" />
<path d="M181.74374 195.09333
L180.88660 195.95047
" />
<path d="M182.38660 196.59333
L182.38660 195.09333
" />
<path d="M183.95803 196.45047
L183.88660 196.52190
" />
<path d="M183.88660 196.52190
L183.67231 196.59333
" />
<path d="M183.67231 196.59333
L183.52945 196.59333
" />
<path d="M183.52945 196.59333
L183.31517 196.52190
" />
<path d="M183.31517 196.52190
L183.17231 196.37904
" />
<path d="M183.17231 196.37904
L183.10088 196.23618
" />
<path d="M183.10088 196.23618
L183.02945 195.95047
" />
<path d="M183.02945 195.95047
L183.02945 195.73618
" />
<path d="M183.02945 195.73618
L183.10088 195.45047
" />
<path d="M183.10088 195.45047
L183.17231 195.30761
" />
<path d="M183.17231 195.30761
L183.31517 195.16476
" />
<path d="M183.31517 195.16476
L183.52945 195.09333
" />
<path d="M183.52945 195.09333
L183.67231 195.09333
" />
<path d="M183.67231 195.09333
L183.88660 195.16476
" />
<path d="M183.88660 195.16476
L183.95803 195.23618
" />
<path d="M184.52945 196.16476
L185.24374 196.16476
" />
<path d="M184.38660 196.59333
L184.88660 195.09333
" />
<path d="M184.88660 195.09333
L185.38660 196.59333
" />
<path d="M185.88660 196.59333
L185.88660 195.09333
" />
<path d="M185.88660 195.09333
L186.24374 195.09333
" />
<path d="M186.24374 195.09333
L186.45803 195.16476
" />
<path d="M186.45803 195.16476
L186.60088 195.30761
" />
<path d="M186.60088 195.30761
L186.67231 195.45047
" />
<path d="M186.67231 195.45047
L186.74374 195.73618
" />
<path d="M186.74374 195.73618
L186.74374 195.95047
" />
<path d="M186.74374 195.95047
L186.67231 196.23618
" />
<path d="M186.67231 196.23618
L186.60088 196.37904
" />
<path d="M186.60088 196.37904
L186.45803 196.52190
" />
<path d="M186.45803 196.52190
L186.24374 196.59333
" />
<path d="M186.24374 196.59333
L185.88660 196.59333
" />
<path d="M187.02945 196.73618
L188.17231 196.73618
" />
<path d="M188.31517 195.09333
L188.81517 196.59333
" />
<path d="M188.81517 196.59333
L189.31517 195.09333
" />
<path d="M189.81517 195.80761
L190.31517 195.80761
" />
<path d="M190.52945 196.59333
L189.81517 196.59333
" />
<path d="M189.81517 196.59333
L189.81517 195.09333
" />
<path d="M189.81517 195.09333
L190.52945 195.09333
" />
<path d="M192.02945 196.59333
L191.52945 195.87904
" />
<path d="M191.17231 196.59333
L191.17231 195.09333
" />
<path d="M191.17231 195.09333
L191.74374 195.09333
" />
<path d="M191.74374 195.09333
L191.88660 195.16476
" />
<path d="M191.88660 195.16476
L191.95803 195.23618
" />
<path d="M191.95803 195.23618
L192.02945 195.37904
" />
<path d="M192.02945 195.37904
L192.02945 195.59333
" />
<path d="M192.02945 195.59333
L191.95803 195.73618
" />
<path d="M191.95803 195.73618
L191.88660 195.80761
" />
<path d="M191.88660 195.80761
L191.74374 195.87904
" />
<path d="M191.74374 195.87904
L191.17231 195.87904
" />
<path d="M192.60088 196.52190
L192.81517 196.59333
" />
<path d="M192.81517 196.59333
L193.17231 196.59333
" />
<path d="M193.17231 196.59333
L193.31517 196.52190
" />
<path d="M193.31517 196.52190
L193.38660 196.45047
" />
<path d="M193.38660 196.45047
L193.45803 196.30761
" />
<path d="M193.45803 196.30761
L193.45803 196.16476
" />
<path d="M193.45803 196.16476
L193.38660 196.02190
" />
<path d="M193.38660 196.02190
L193.31517 195.95047
" />
<path d="M193.31517 195.95047
L193.17231 195.87904
" />
<path d="M193.17231 195.87904
L192.88660 195.80761
" />
<path d="M192.88660 195.80761
L192.74374 195.73618
" />
<path d="M192.74374 195.73618
L192.67231 195.66476
" />
<path d="M192.67231 195.66476
L192.60088 195.52190
" />
<path d="M192.60088 195.52190
L192.60088 195.37904
" />
<path d="M192.60088 195.37904
L192.67231 195.23618
" />
<path d="M192.67231 195.23618
L192.74374 195.16476
" />
<path d="M192.74374 195.16476
L192.88660 195.09333
" />
<path d="M192.88660 195.09333
L193.24374 195.09333
" />
<path d="M193.24374 195.09333
L193.45803 195.16476
" />
<path d="M194.10088 196.59333
L194.10088 195.09333
" />
<path d="M195.10088 195.09333
L195.38660 195.09333
" />
<path d="M195.38660 195.09333
L195.52945 195.16476
" />
<path d="M195.52945 195.16476
L195.67231 195.30761
" />
<path d="M195.67231 195.30761
L195.74374 195.59333
" />
<path d="M195.74374 195.59333
L195.74374 196.09333
" />
<path d="M195.74374 196.09333
L195.67231 196.37904
" />
<path d="M195.67231 196.37904
L195.52945 196.52190
" />
<path d="M195.52945 196.52190
L195.38660 196.59333
" />
<path d="M195.38660 196.59333
L195.10088 196.59333
" />
<path d="M195.10088 196.59333
L194.95803 196.52190
" />
<path d="M194.95803 196.52190
L194.81517 196.37904
" />
<path d="M194.81517 196.37904
L194.74374 196.09333
" />
<path d="M194.74374 196.09333
L194.74374 195.59333
" />
<path d="M194.74374 195.59333
L194.81517 195.30761
" />
<path d="M194.81517 195.30761
L194.95803 195.16476
" />
<path d="M194.95803 195.16476
L195.10088 195.09333
" />
<path d="M196.38660 196.59333
L196.38660 195.09333
" />
<path d="M196.38660 195.09333
L197.24374 196.59333
" />
<path d="M197.24374 196.59333
L197.24374 195.09333
" />
<path d="M197.81517 197.16476
L197.88660 197.16476
" />
<path d="M197.88660 197.16476
L198.02945 197.09333
" />
<path d="M198.02945 197.09333
L198.10088 196.95047
" />
<path d="M198.10088 196.95047
L198.10088 196.23618
" />
<path d="M198.10088 196.23618
L198.17231 196.09333
" />
<path d="M198.17231 196.09333
L198.31517 196.02190
" />
<path d="M198.31517 196.02190
L198.17231 195.95047
" />
<path d="M198.17231 195.95047
L198.10088 195.80761
" />
<path d="M198.10088 195.80761
L198.10088 195.09333
" />
<path d="M198.10088 195.09333
L198.02945 194.95047
" />
<path d="M198.02945 194.95047
L197.88660 194.87904
" />
<path d="M197.88660 194.87904
L197.81517 194.87904
" />
</g></g>
<g style="fill:#000000; fill-opacity:0.0; 
stroke:#000000; stroke-width:0.02120; stroke-opacity:1; 
stroke-linecap:round; stroke-linejoin:round;">
</g>
<g style="fill:#000000; fill-opacity:0.0; 
stroke:#000000; stroke-width:0.15000; stroke-opacity:1; 
stroke-linecap:round; stroke-linejoin:round;">
<path d="M177.00220 191.50720
L285.00220 191.50720
" />
</g>
<g style="fill:#000000; fill-opacity:0.0; 
stroke:#000000; stroke-width:0.02120; stroke-opacity:1; 
stroke-linecap:round; stroke-linejoin:round;">
</g>
<g style="fill:#000000; fill-opacity:0.0; 
stroke:#000000; stroke-width:0.30000; stroke-opacity:1; 
stroke-linecap:round; stroke-linejoin:round;">
<text x="263.00220" y="193.85720"
textLength="6.23571" font-size="2.00000" lengthAdjust="spacingAndGlyphs"
text-anchor="start" opacity="0">Rev: </text>
<g class="stroked-text"><desc>Rev: </desc>
<path d="M264.41385 193.78553
L263.91385 193.07124
" />
<path d="M263.55671 193.78553
L263.55671 192.28553
" />
<path d="M263.55671 192.28553
L264.12814 192.28553
" />
<path d="M264.12814 192.28553
L264.27100 192.35696
" />
<path d="M264.27100 192.35696
L264.34242 192.42838
" />
<path d="M264.34242 192.42838
L264.41385 192.57124
" />
<path d="M264.41385 192.57124
L264.41385 192.78553
" />
<path d="M264.41385 192.78553
L264.34242 192.92838
" />
<path d="M264.34242 192.92838
L264.27100 192.99981
" />
<path d="M264.27100 192.99981
L264.12814 193.07124
" />
<path d="M264.12814 193.07124
L263.55671 193.07124
" />
<path d="M265.62814 193.71410
L265.48528 193.78553
" />
<path d="M265.48528 193.78553
L265.19957 193.78553
" />
<path d="M265.19957 193.78553
L265.05671 193.71410
" />
<path d="M265.05671 193.71410
L264.98528 193.57124
" />
<path d="M264.98528 193.57124
L264.98528 192.99981
" />
<path d="M264.98528 192.99981
L265.05671 192.85696
" />
<path d="M265.05671 192.85696
L265.19957 192.78553
" />
<path d="M265.19957 192.78553
L265.48528 192.78553
" />
<path d="M265.48528 192.78553
L265.62814 192.85696
" />
<path d="M265.62814 192.85696
L265.69957 192.99981
" />
<path d="M265.69957 192.99981
L265.69957 193.14267
" />
<path d="M265.69957 193.14267
L264.98528 193.28553
" />
<path d="M266.19957 192.78553
L266.55671 193.78553
" />
<path d="M266.55671 193.78553
L266.91385 192.78553
" />
<path d="M267.48528 193.64267
L267.55671 193.71410
" />
<path d="M267.55671 193.71410
L267.48528 193.78553
" />
<path d="M267.48528 193.78553
L267.41385 193.71410
" />
<path d="M267.41385 193.71410
L267.48528 193.64267
" />
<path d="M267.48528 193.64267
L267.48528 193.78553
" />
<path d="M267.48528 192.85696
L267.55671 192.92838
" />
<path d="M267.55671 192.92838
L267.48528 192.99981
" />
<path d="M267.48528 192.99981
L267.41385 192.92838
" />
<path d="M267.41385 192.92838
L267.48528 192.85696
" />
<path d="M267.48528 192.85696
L267.48528 192.99981
" />
</g></g>
<g style="fill:#000000; fill-opacity:0.0; 
stroke:#000000; stroke-width:0.02120; stroke-opacity:1; 
stroke-linecap:round; stroke-linejoin:round;">
</g>
<g style="fill:#000000; fill-opacity:0.0; 
stroke:#000000; stroke-width:0.15000; stroke-opacity:1; 
stroke-linecap:round; stroke-linejoin:round;">
<text x="178.00220" y="193.85720"
textLength="9.28928" font-size="2.00000" lengthAdjust="spacingAndGlyphs"
text-anchor="start" opacity="0">Size: A4</text>
<g class="stroked-text"><desc>Size: A4</desc>
<path d="M178.38660 193.72190
L178.60088 193.79333
" />
<path d="M178.60088 193.79333
L178.95803 193.79333
" />
<path d="M178.95803 193.79333
L179.10088 193.72190
" />
<path d="M179.10088 193.72190
L179.17231 193.65047
" />
<path d="M179.17231 193.65047
L179.24374 193.50761
" />
<path d="M179.24374 193.50761
L179.24374 193.36476
" />
<path d="M179.24374 193.36476
L179.17231 193.22190
" />
<path d="M179.17231 193.22190
L179.10088 193.15047
" />
<path d="M179.10088 193.15047
L178.95803 193.07904
" />
<path d="M178.95803 193.07904
L178.67231 193.00761
" />
<path d="M178.67231 193.00761
L178.52945 192.93618
" />
<path d="M178.52945 192.93618
L178.45803 192.86476
" />
<path d="M178.45803 192.86476
L178.38660 192.72190
" />
<path d="M178.38660 192.72190
L178.38660 192.57904
" />
<path d="M178.38660 192.57904
L178.45803 192.43618
" />
<path d="M178.45803 192.43618
L178.52945 192.36476
" />
<path d="M178.52945 192.36476
L178.67231 192.29333
" />
<path d="M178.67231 192.29333
L179.02945 192.29333
" />
<path d="M179.02945 192.29333
L179.24374 192.36476
" />
<path d="M179.88660 193.79333
L179.88660 192.79333
" />
<path d="M179.88660 192.29333
L179.81517 192.36476
" />
<path d="M179.81517 192.36476
L179.88660 192.43618
" />
<path d="M179.88660 192.43618
L179.95803 192.36476
" />
<path d="M179.95803 192.36476
L179.88660 192.29333
" />
<path d="M179.88660 192.29333
L179.88660 192.43618
" />
<path d="M180.45803 192.79333
L181.24374 192.79333
" />
<path d="M181.24374 192.79333
L180.45803 193.79333
" />
<path d="M180.45803 193.79333
L181.24374 193.79333
" />
<path d="M182.38660 193.72190
L182.24374 193.79333
" />
<path d="M182.24374 193.79333
L181.95803 193.79333
" />
<path d="M181.95803 193.79333
L181.81517 193.72190
" />
<path d="M181.81517 193.72190
L181.74374 193.57904
" />
<path d="M181.74374 193.57904
L181.74374 193.00761
" />
<path d="M181.74374 193.00761
L181.81517 192.86476
" />
<path d="M181.81517 192.86476
L181.95803 192.79333
" />
<path d="M181.95803 192.79333
L182.24374 192.79333
" />
<path d="M182.24374 192.79333
L182.38660 192.86476
" />
<path d="M182.38660 192.86476
L182.45803 193.00761
" />
<path d="M182.45803 193.00761
L182.45803 193.15047
" />
<path d="M182.45803 193.15047
L181.74374 193.29333
" />
<path d="M183.10088 193.65047
L183.17231 193.72190
" />
<path d="M183.17231 193.72190
L183.10088 193.79333
" />
<path d="M183.10088 193.79333
L183.02945 193.72190
" />
<path d="M183.02945 193.72190
L183.10088 193.65047
" />
<path d="M183.10088 193.65047
L183.10088 193.79333
" />
<path d="M183.10088 192.86476
L183.17231 192.93618
" />
<path d="M183.17231 192.93618
L183.10088 193.00761
" />
<path d="M183.10088 193.00761
L183.02945 192.93618
" />
<path d="M183.02945 192.93618
L183.10088 192.86476
" />
<path d="M183.10088 192.86476
L183.10088 193.00761
" />
<path d="M184.88660 193.36476
L185.60088 193.36476
" />
<path d="M184.74374 193.79333
L185.24374 192.29333
" />
<path d="M185.24374 192.29333
L185.74374 193.79333
" />
<path d="M186.88660 192.79333
L186.88660 193.79333
" />
<path d="M186.52945 192.22190
L186.17231 193.29333
" />
<path d="M186.17231 193.29333
L187.10088 193.29333
" />
</g></g>
<g style="fill:#000000; fill-opacity:0.0; 
stroke:#000000; stroke-width:0.02120; stroke-opacity:1; 
stroke-linecap:round; stroke-linejoin:round;">
</g>
<g style="fill:#000000; fill-opacity:0.0; 
stroke:#000000; stroke-width:0.15000; stroke-opacity:1; 
stroke-linecap:round; stroke-linejoin:round;">
<text x="263.00220" y="196.65720"
textLength="8.43214" font-size="2.00000" lengthAdjust="spacingAndGlyphs"
text-anchor="start" opacity="0">Id: 1/1</text>
<g class="stroked-text"><desc>Id: 1/1</desc>
<path d="M263.45803 196.59333
L263.45803 195.09333
" />
<path d="M264.81517 196.59333
L264.81517 195.09333
" />
<path d="M264.81517 196.52190
L264.67231 196.59333
" />
<path d="M264.67231 196.59333
L264.38660 196.59333
" />
<path d="M264.38660 196.59333
L264.24374 196.52190
" />
<path d="M264.24374 196.52190
L264.17231 196.45047
" />
<path d="M264.17231 196.45047
L264.10088 196.30761
" />
<path d="M264.10088 196.30761
L264.10088 195.87904
" />
<path d="M264.10088 195.87904
L264.17231 195.73618
" />
<path d="M264.17231 195.73618
L264.24374 195.66476
" />
<path d="M264.24374 195.66476
L264.38660 195.59333
" />
<path d="M264.38660 195.59333
L264.67231 195.59333
" />
<path d="M264.67231 195.59333
L264.81517 195.66476
" />
<path d="M265.52945 196.45047
L265.60088 196.52190
" />
<path d="M265.60088 196.52190
L265.52945 196.59333
" />
<path d="M265.52945 196.59333
L265.45803 196.52190
" />
<path d="M265.45803 196.52190
L265.52945 196.45047
" />
<path d="M265.52945 196.45047
L265.52945 196.59333
" />
<path d="M265.52945 195.66476
L265.60088 195.73618
" />
<path d="M265.60088 195.73618
L265.52945 195.80761
" />
<path d="M265.52945 195.80761
L265.45803 195.73618
" />
<path d="M265.45803 195.73618
L265.52945 195.66476
" />
<path d="M265.52945 195.66476
L265.52945 195.80761
" />
<path d="M268.17231 196.59333
L267.31517 196.59333
" />
<path d="M267.74374 196.59333
L267.74374 195.09333
" />
<path d="M267.74374 195.09333
L267.60088 195.30761
" />
<path d="M267.60088 195.30761
L267.45803 195.45047
" />
<path d="M267.45803 195.45047
L267.31517 195.52190
" />
<path d="M269.88660 195.02190
L268.60088 196.95047
" />
<path d="M271.17231 196.59333
L270.31517 196.59333
" />
<path d="M270.74374 196.59333
L270.74374 195.09333
" />
<path d="M270.74374 195.09333
L270.60088 195.30761
" />
<path d="M270.60088 195.30761
L270.45803 195.45047
" />
<path d="M270.45803 195.45047
L270.31517 195.52190
" />
</g></g>
<g style="fill:#000000; fill-opacity:0.0; 
stroke:#000000; stroke-width:0.02120; stroke-opacity:1; 
stroke-linecap:round; stroke-linejoin:round;">
</g>
<g style="fill:#000000; fill-opacity:0.0; 
stroke:#000000; stroke-width:0.15000; stroke-opacity:1; 
stroke-linecap:round; stroke-linejoin:round;">
<path d="M177.00220 187.50720
L285.00220 187.50720
" />
</g>
<g style="fill:#000000; fill-opacity:0.0; 
stroke:#000000; stroke-width:0.02120; stroke-opacity:1; 
stroke-linecap:round; stroke-linejoin:round;">
</g>
<g style="fill:#000000; fill-opacity:0.0; 
stroke:#000000; stroke-width:0.40000; stroke-opacity:1; 
stroke-linecap:round; stroke-linejoin:round;">
<text x="178.00220" y="190.30720"
textLength="9.45714" font-size="2.66667" lengthAdjust="spacingAndGlyphs"
text-anchor="start" opacity="0">Title: </text>
<g class="stroked-text"><desc>Title: </desc>
<path d="M178.69393 188.21164
L179.83678 188.21164
" />
<path d="M179.01536 190.21164
L179.26536 188.21164
" />
<path d="M180.25345 190.21164
L180.42012 188.87830
" />
<path d="M180.50345 188.21164
L180.39631 188.30688
" />
<path d="M180.39631 188.30688
L180.47964 188.40211
" />
<path d="M180.47964 188.40211
L180.58679 188.30688
" />
<path d="M180.58679 188.30688
L180.50345 188.21164
" />
<path d="M180.50345 188.21164
L180.47964 188.40211
" />
<path d="M181.08679 188.87830
L181.84869 188.87830
" />
<path d="M181.45583 188.21164
L181.24155 189.92592
" />
<path d="M181.24155 189.92592
L181.31298 190.11640
" />
<path d="M181.31298 190.11640
L181.49155 190.21164
" />
<path d="M181.49155 190.21164
L181.68202 190.21164
" />
<path d="M182.63440 190.21164
L182.45583 190.11640
" />
<path d="M182.45583 190.11640
L182.38440 189.92592
" />
<path d="M182.38440 189.92592
L182.59869 188.21164
" />
<path d="M184.17012 190.11640
L183.96774 190.21164
" />
<path d="M183.96774 190.21164
L183.58678 190.21164
" />
<path d="M183.58678 190.21164
L183.40821 190.11640
" />
<path d="M183.40821 190.11640
L183.33678 189.92592
" />
<path d="M183.33678 189.92592
L183.43202 189.16402
" />
<path d="M183.43202 189.16402
L183.55107 188.97354
" />
<path d="M183.55107 188.97354
L183.75345 188.87830
" />
<path d="M183.75345 188.87830
L184.13440 188.87830
" />
<path d="M184.13440 188.87830
L184.31298 188.97354
" />
<path d="M184.31298 188.97354
L184.38440 189.16402
" />
<path d="M184.38440 189.16402
L184.36059 189.35449
" />
<path d="M184.36059 189.35449
L183.38440 189.54497
" />
<path d="M185.13440 190.02116
L185.21774 190.11640
" />
<path d="M185.21774 190.11640
L185.11059 190.21164
" />
<path d="M185.11059 190.21164
L185.02726 190.11640
" />
<path d="M185.02726 190.11640
L185.13440 190.02116
" />
<path d="M185.13440 190.02116
L185.11059 190.21164
" />
<path d="M185.26536 188.97354
L185.34869 189.06878
" />
<path d="M185.34869 189.06878
L185.24155 189.16402
" />
<path d="M185.24155 189.16402
L185.15821 189.06878
" />
<path d="M185.15821 189.06878
L185.26536 188.97354
" />
<path d="M185.26536 188.97354
L185.24155 189.16402
" />
</g></g>
<g style="fill:#000000; fill-opacity:0.0; 
stroke:#000000; stroke-width:0.02120; stroke-opacity:1; 
stroke-linecap:round; stroke-linejoin:round;">
</g>
<g style="fill:#000000; fill-opacity:0.0; 
stroke:#000000; stroke-width:0.15000; stroke-opacity:1; 
stroke-linecap:round; stroke-linejoin:round;">
<text x="178.00220" y="186.45720"
textLength="27.57500" font-size="2.00000" lengthAdjust="spacingAndGlyphs"
text-anchor="start" opacity="0">File: template.kicad_pcb</text>
<g class="stroked-text"><desc>File: template.kicad_pcb</desc>
<path d="M178.95803 185.60761
L178.45803 185.60761
" />
<path d="M178.45803 186.39333
L178.45803 184.89333
" />
<path d="M178.45803 184.89333
L179.17231 184.89333
" />
<path d="M179.74374 186.39333
L179.74374 185.39333
" />
<path d="M179.74374 184.89333
L179.67231 184.96476
" />
<path d="M179.67231 184.96476
L179.74374 185.03618
" />
<path d="M179.74374 185.03618
L179.81517 184.96476
" />
<path d="M179.81517 184.96476
L179.74374 184.89333
" />
<path d="M179.74374 184.89333
L179.74374 185.03618
" />
<path d="M180.67231 186.39333
L180.52945 186.32190
" />
<path d="M180.52945 186.32190
L180.45803 186.17904
" />
<path d="M180.45803 186.17904
L180.45803 184.89333
" />
<path d="M181.81517 186.32190
L181.67231 186.39333
" />
<path d="M181.67231 186.39333
L181.38660 186.39333
" />
<path d="M181.38660 186.39333
L181.24374 186.32190
" />
<path d="M181.24374 186.32190
L181.17231 186.17904
" />
<path d="M181.17231 186.17904
L181.17231 185.60761
" />
<path d="M181.17231 185.60761
L181.24374 185.46476
" />
<path d="M181.24374 185.46476
L181.38660 185.39333
" />
<path d="M181.38660 185.39333
L181.67231 185.39333
" />
<path d="M181.67231 185.39333
L181.81517 185.46476
" />
<path d="M181.81517 185.46476
L181.88660 185.60761
" />
<path d="M181.88660 185.60761
L181.88660 185.75047
" />
<path d="M181.88660 185.75047
L181.17231 185.89333
" />
<path d="M182.52945 186.25047
L182.60088 186.32190
" />
<path d="M182.60088 186.32190
L182.52945 186.39333
" />
<path d="M182.52945 186.39333
L182.45803 186.32190
" />
<path d="M182.45803 186.32190
L182.52945 186.25047
" />
<path d="M182.52945 186.25047
L182.52945 186.39333
" />
<path d="M182.52945 185.46476
L182.60088 185.53618
" />
<path d="M182.60088 185.53618
L182.52945 185.60761
" />
<path d="M182.52945 185.60761
L182.45803 185.53618
" />
<path d="M182.45803 185.53618
L182.52945 185.46476
" />
<path d="M182.52945 185.46476
L182.52945 185.60761
" />
<path d="M184.17231 185.39333
L184.74374 185.39333
" />
<path d="M184.38660 184.89333
L184.38660 186.17904
" />
<path d="M184.38660 186.17904
L184.45803 186.32190
" />
<path d="M184.45803 186.32190
L184.60088 186.39333
" />
<path d="M184.60088 186.39333
L184.74374 186.39333
" />
<path d="M185.81517 186.32190
L185.67231 186.39333
" />
<path d="M185.67231 186.39333
L185.38660 186.39333
" />
<path d="M185.38660 186.39333
L185.24374 186.32190
" />
<path d="M185.24374 186.32190
L185.17231 186.17904
" />
<path d="M185.17231 186.17904
L185.17231 185.60761
" />
<path d="M185.17231 185.60761
L185.24374 185.46476
" />
<path d="M185.24374 185.46476
L185.38660 185.39333
" />
<path d="M185.38660 185.39333
L185.67231 185.39333
" />
<path d="M185.67231 185.39333
L185.81517 185.46476
" />
<path d="M185.81517 185.46476
L185.88660 185.60761
" />
<path d="M185.88660 185.60761
L185.88660 185.75047
" />
<path d="M185.88660 185.75047
L185.17231 185.89333
" />
<path d="M186.52945 186.39333
L186.52945 185.39333
" />
<path d="M186.52945 185.53618
L186.60088 185.46476
" />
<path d="M186.60088 185.46476
L186.74374 185.39333
" />
<path d="M186.74374 185.39333
L186.95803 185.39333
" />
<path d="M186.95803 185.39333
L187.10088 185.46476
" />
<path d="M187.10088 185.46476
L187.17231 185.60761
" />
<path d="M187.17231 185.60761
L187.17231 186.39333
" />
<path d="M187.17231 185.60761
L187.24374 185.46476
" />
<path d="M187.24374 185.46476
L187.38660 185.39333
" />
<path d="M187.38660 185.39333
L187.60088 185.39333
" />
<path d="M187.60088 185.39333
L187.74374 185.46476
" />
<path d="M187.74374 185.46476
L187.81517 185.60761
" />
<path d="M187.81517 185.60761
L187.81517 186.39333
" />
<path d="M188.52945 185.39333
L188.52945 186.89333
" />
<path d="M188.52945 185.46476
L188.67231 185.39333
" />
<path d="M188.67231 185.39333
L188.95803 185.39333
" />
<path d="M188.95803 185.39333
L189.10088 185.46476
" />
<path d="M189.10088 185.46476
L189.17231 185.53618
" />
<path d="M189.17231 185.53618
L189.24374 185.67904
" />
<path d="M189.24374 185.67904
L189.24374 186.10761
" />
<path d="M189.24374 186.10761
L189.17231 186.25047
" />
<path d="M189.17231 186.25047
L189.10088 186.32190
" />
<path d="M189.10088 186.32190
L188.95803 186.39333
" />
<path d="M188.95803 186.39333
L188.67231 186.39333
" />
<path d="M188.67231 186.39333
L188.52945 186.32190
" />
<path d="M190.10088 186.39333
L189.95803 186.32190
" />
<path d="M189.95803 186.32190
L189.88660 186.17904
" />
<path d="M189.88660 186.17904
L189.88660 184.89333
" />
<path d="M191.31517 186.39333
L191.31517 185.60761
" />
<path d="M191.31517 185.60761
L191.24374 185.46476
" />
<path d="M191.24374 185.46476
L191.10088 185.39333
" />
<path d="M191.10088 185.39333
L190.81517 185.39333
" />
<path d="M190.81517 185.39333
L190.67231 185.46476
" />
<path d="M191.31517 186.32190
L191.17231 186.39333
" />
<path d="M191.17231 186.39333
L190.81517 186.39333
" />
<path d="M190.81517 186.39333
L190.67231 186.32190
" />
<path d="M190.67231 186.32190
L190.60088 186.17904
" />
<path d="M190.60088 186.17904
L190.60088 186.03618
" />
<path d="M190.60088 186.03618
L190.67231 185.89333
" />
<path d="M190.67231 185.89333
L190.81517 185.82190
" />
<path d="M190.81517 185.82190
L191.17231 185.82190
" />
<path d="M191.17231 185.82190
L191.31517 185.75047
" />
<path d="M191.81517 185.39333
L192.38660 185.39333
" />
<path d="M192.02945 184.89333
L192.02945 186.17904
" />
<path d="M192.02945 186.17904
L192.10088 186.32190
" />
<path d="M192.10088 186.32190
L192.24374 186.39333
" />
<path d="M192.24374 186.39333
L192.38660 186.39333
" />
<path d="M193.45803 186.32190
L193.31517 186.39333
" />
<path d="M193.31517 186.39333
L193.02945 186.39333
" />
<path d="M193.02945 186.39333
L192.88660 186.32190
" />
<path d="M192.88660 186.32190
L192.81517 186.17904
" />
<path d="M192.81517 186.17904
L192.81517 185.60761
" />
<path d="M192.81517 185.60761
L192.88660 185.46476
" />
<path d="M192.88660 185.46476
L193.02945 185.39333
" />
<path d="M193.02945 185.39333
L193.31517 185.39333
" />
<path d="M193.31517 185.39333
L193.45803 185.46476
" />
<path d="M193.45803 185.46476
L193.52945 185.60761
" />
<path d="M193.52945 185.60761
L193.52945 185.75047
" />
<path d="M193.52945 185.75047
L192.81517 185.89333
" />
<path d="M194.17231 186.25047
L194.24374 186.32190
" />
<path d="M194.24374 186.32190
L194.17231 186.39333
" />
<path d="M194.17231 186.39333
L194.10088 186.32190
" />
<path d="M194.10088 186.32190
L194.17231 186.25047
" />
<path d="M194.17231 186.25047
L194.17231 186.39333
" />
<path d="M194.88660 186.39333
L194.88660 184.89333
" />
<path d="M195.02945 185.82190
L195.45803 186.39333
" />
<path d="M195.45803 185.39333
L194.88660 185.96476
" />
<path d="M196.10088 186.39333
L196.10088 185.39333
" />
<path d="M196.10088 184.89333
L196.02945 184.96476
" />
<path d="M196.02945 184.96476
L196.10088 185.03618
" />
<path d="M196.10088 185.03618
L196.17231 184.96476
" />
<path d="M196.17231 184.96476
L196.10088 184.89333
" />
<path d="M196.10088 184.89333
L196.10088 185.03618
" />
<path d="M197.45803 186.32190
L197.31517 186.39333
" />
<path d="M197.31517 186.39333
L197.02945 186.39333
" />
<path d="M197.02945 186.39333
L196.88660 186.32190
" />
<path d="M196.88660 186.32190
L196.81517 186.25047
" />
<path d="M196.81517 186.25047
L196.74374 186.10761
" />
<path d="M196.74374 186.10761
L196.74374 185.67904
" />
<path d="M196.74374 185.67904
L196.81517 185.53618
" />
<path d="M196.81517 185.53618
L196.88660 185.46476
" />
<path d="M196.88660 185.46476
L197.02945 185.39333
" />
<path d="M197.02945 185.39333
L197.31517 185.39333
" />
<path d="M197.31517 185.39333
L197.45803 185.46476
" />
<path d="M198.74374 186.39333
L198.74374 185.60761
" />
<path d="M198.74374 185.60761
L198.67231 185.46476
" />
<path d="M198.67231 185.46476
L198.52945 185.39333
" />
<path d="M198.52945 185.39333
L198.24374 185.39333
" />
<path d="M198.24374 185.39333
L198.10088 185.46476
" />
<path d="M198.74374 186.32190
L198.60088 186.39333
" />
<path d="M198.60088 186.39333
L198.24374 186.39333
" />
<path d="M198.24374 186.39333
L198.10088 186.32190
" />
<path d="M198.10088 186.32190
L198.02945 186.17904
" />
<path d="M198.02945 186.17904
L198.02945 186.03618
" />
<path d="M198.02945 186.03618
L198.10088 185.89333
" />
<path d="M198.10088 185.89333
L198.24374 185.82190
" />
<path d="M198.24374 185.82190
L198.60088 185.82190
" />
<path d="M198.60088 185.82190
L198.74374 185.75047
" />
<path d="M200.10088 186.39333
L200.10088 184.89333
" />
<path d="M200.10088 186.32190
L199.95803 186.39333
" />
<path d="M199.95803 186.39333
L199.67231 186.39333
" />
<path d="M199.67231 186.39333
L199.52945 186.32190
" />
<path d="M199.52945 186.32190
L199.45803 186.25047
" />
<path d="M199.45803 186.25047
L199.38660 186.10761
" />
<path d="M199.38660 186.10761
L199.38660 185.67904
" />
<path d="M199.38660 185.67904
L199.45803 185.53618
" />
<path d="M199.45803 185.53618
L199.52945 185.46476
" />
<path d="M199.52945 185.46476
L199.67231 185.39333
" />
<path d="M199.67231 185.39333
L199.95803 185.39333
" />
<path d="M199.95803 185.39333
L200.10088 185.46476
" />
<path d="M200.45803 186.53618
L201.60088 186.53618
" />
<path d="M201.95803 185.39333
L201.95803 186.89333
" />
<path d="M201.95803 185.46476
L202.10088 185.39333
" />
<path d="M202.10088 185.39333
L202.38660 185.39333
" />
<path d="M202.38660 185.39333
L202.52945 185.46476
" />
<path d="M202.52945 185.46476
L202.60088 185.53618
" />
<path d="M202.60088 185.53618
L202.67231 185.67904
" />
<path d="M202.67231 185.67904
L202.67231 186.10761
" />
<path d="M202.67231 186.10761
L202.60088 186.25047
" />
<path d="M202.60088 186.25047
L202.52945 186.32190
" />
<path d="M202.52945 186.32190
L202.38660 186.39333
" />
<path d="M202.38660 186.39333
L202.10088 186.39333
" />
<path d="M202.10088 186.39333
L201.95803 186.32190
" />
<path d="M203.95803 186.32190
L203.81517 186.39333
" />
<path d="M203.81517 186.39333
L203.52945 186.39333
" />
<path d="M203.52945 186.39333
L203.38660 186.32190
" />
<path d="M203.38660 186.32190
L203.31517 186.25047
" />
<path d="M203.31517 186.25047
L203.24374 186.10761
" />
<path d="M203.24374 186.10761
L203.24374 185.67904
" />
<path d="M203.24374 185.67904
L203.31517 185.53618
" />
<path d="M203.31517 185.53618
L203.38660 185.46476
" />
<path d="M203.38660 185.46476
L203.52945 185.39333
" />
<path d="M203.52945 185.39333
L203.81517 185.39333
" />
<path d="M203.81517 185.39333
L203.95803 185.46476
" />
<path d="M204.60088 186.39333
L204.60088 184.89333
" />
<path d="M204.60088 185.46476
L204.74374 185.39333
" />
<path d="M204.74374 185.39333
L205.02945 185.39333
" />
<path d="M205.02945 185.39333
L205.17231 185.46476
" />
<path d="M205.17231 185.46476
L205.24374 185.53618
" />
<path d="M205.24374 185.53618
L205.31517 185.67904
" />
<path d="M205.31517 185.67904
L205.31517 186.10761
" />
<path d="M205.31517 186.10761
L205.24374 186.25047
" />
<path d="M205.24374 186.25047
L205.17231 186.32190
" />
<path d="M205.17231 186.32190
L205.02945 186.39333
" />
<path d="M205.02945 186.39333
L204.74374 186.39333
" />
<path d="M204.74374 186.39333
L204.60088 186.32190
" />
</g></g>
<g style="fill:#000000; fill-opacity:0.0; 
stroke:#000000; stroke-width:0.02120; stroke-opacity:1; 
stroke-linecap:round; stroke-linejoin:round;">
</g>
<g style="fill:#000000; fill-opacity:0.0; 
stroke:#000000; stroke-width:0.15000; stroke-opacity:1; 
stroke-linecap:round; stroke-linejoin:round;">
<path d="M177.00220 181.50720
L285.00220 181.50720
" />
</g>
<g style="fill:#000000; fill-opacity:0.0; 
stroke:#000000; stroke-width:0.02120; stroke-opacity:1; 
stroke-linecap:round; stroke-linejoin:round;">
</g>
<g style="fill:#000000; fill-opacity:0.0; 
stroke:#000000; stroke-width:0.15000; stroke-opacity:1; 
stroke-linecap:round; stroke-linejoin:round;">
<text x="178.00220" y="183.75720"
textLength="8.14643" font-size="2.00000" lengthAdjust="spacingAndGlyphs"
text-anchor="start" opacity="0">Sheet: </text>
<g class="stroked-text"><desc>Sheet: </desc>
<path d="M178.38660 183.62190
L178.60088 183.69333
" />
<path d="M178.60088 183.69333
L178.95803 183.69333
" />
<path d="M178.95803 183.69333
L179.10088 183.62190
" />
<path d="M179.10088 183.62190
L179.17231 183.55047
" />
<path d="M179.17231 183.55047
L179.24374 183.40761
" />
<path d="M179.24374 183.40761
L179.24374 183.26476
" />
<path d="M179.24374 183.26476
L179.17231 183.12190
" />
<path d="M179.17231 183.12190
L179.10088 183.05047
" />
<path d="M179.10088 183.05047
L178.95803 182.97904
" />
<path d="M178.95803 182.97904
L178.67231 182.90761
" />
<path d="M178.67231 182.90761
L178.52945 182.83619
" />
<path d="M178.52945 182.83619
L178.45803 182.76476
" />
<path d="M178.45803 182.76476
L178.38660 182.62190
" />
<path d="M178.38660 182.62190
L178.38660 182.47904
" />
<path d="M178.38660 182.47904
L178.45803 182.33619
" />
<path d="M178.45803 182.33619
L178.52945 182.26476
" />
<path d="M178.52945 182.26476
L178.67231 182.19333
" />
<path d="M178.67231 182.19333
L179.02945 182.19333
" />
<path d="M179.02945 182.19333
L179.24374 182.26476
" />
<path d="M179.88660 183.69333
L179.88660 182.19333
" />
<path d="M180.52945 183.69333
L180.52945 182.90761
" />
<path d="M180.52945 182.90761
L180.45803 182.76476
" />
<path d="M180.45803 182.76476
L180.31517 182.69333
" />
<path d="M180.31517 182.69333
L180.10088 182.69333
" />
<path d="M180.10088 182.69333
L179.95803 182.76476
" />
<path d="M179.95803 182.76476
L179.88660 182.83619
" />
<path d="M181.81517 183.62190
L181.67231 183.69333
" />
<path d="M181.67231 183.69333
L181.38660 183.69333
" />
<path d="M181.38660 183.69333
L181.24374 183.62190
" />
<path d="M181.24374 183.62190
L181.17231 183.47904
" />
<path d="M181.17231 183.47904
L181.17231 182.90761
" />
<path d="M181.17231 182.90761
L181.24374 182.76476
" />
<path d="M181.24374 182.76476
L181.38660 182.69333
" />
<path d="M181.38660 182.69333
L181.67231 182.69333
" />
<path d="M181.67231 182.69333
L181.81517 182.76476
" />
<path d="M181.81517 182.76476
L181.88660 182.90761
" />
<path d="M181.88660 182.90761
L181.88660 183.05047
" />
<path d="M181.88660 183.05047
L181.17231 183.19333
" />
<path d="M183.10088 183.62190
L182.95803 183.69333
" />
<path d="M182.95803 183.69333
L182.67231 183.69333
" />
<path d="M182.67231 183.69333
L182.52945 183.62190
" />
<path d="M182.52945 183.62190
L182.45803 183.47904
" />
<path d="M182.45803 183.47904
L182.45803 182.90761
" />
<path d="M182.45803 182.90761
L182.52945 182.76476
" />
<path d="M182.52945 182.76476
L182.67231 182.69333
" />
<path d="M182.67231 182.69333
L182.95803 182.69333
" />
<path d="M182.95803 182.69333
L183.10088 182.76476
" />
<path d="M183.10088 182.76476
L183.17231 182.90761
" />
<path d="M183.17231 182.90761
L183.17231 183.05047
" />
<path d="M183.17231 183.05047
L182.45803 183.19333
" />
<path d="M183.60088 182.69333
L184.17231 182.69333
" />
<path d="M183.81517 182.19333
L183.81517 183.47904
" />
<path d="M183.81517 183.47904
L183.88660 183.62190
" />
<path d="M183.88660 183.62190
L184.02945 183.69333
" />
<path d="M184.02945 183.69333
L184.17231 183.69333
" />
<path d="M184.67231 183.55047
L184.74374 183.62190
" />
<path d="M184.74374 183.62190
L184.67231 183.69333
" />
<path d="M184.67231 183.69333
L184.60088 183.62190
" />
<path d="M184.60088 183.62190
L184.67231 183.55047
" />
<path d="M184.67231 183.55047
L184.67231 183.69333
" />
<path d="M184.67231 182.76476
L184.74374 182.83619
" />
<path d="M184.74374 182.83619
L184.67231 182.90761
" />
<path d="M184.67231 182.90761
L184.60088 182.83619
" />
<path d="M184.60088 182.83619
L184.67231 182.76476
" />
<path d="M184.67231 182.76476
L184.67231 182.90761
" />
</g></g>
<g style="fill:#000000; fill-opacity:0.0; 
stroke:#000000; stroke-width:0.02120; stroke-opacity:1; 
stroke-linecap:round; stroke-linejoin:round;">
</g>
<g style="fill:#000000; fill-opacity:0.0; 
stroke:#000000; stroke-width:0.30000; stroke-opacity:1; 
stroke-linecap:round; stroke-linejoin:round;">
<text x="178.00220" y="180.75720"
textLength="0.75000" font-size="2.00000" lengthAdjust="spacingAndGlyphs"
text-anchor="start" opacity="0"></text>
<g class="stroked-text"><desc></desc>
</g></g>
<g style="fill:#000000; fill-opacity:0.0; 
stroke:#000000; stroke-width:0.02120; stroke-opacity:1; 
stroke-linecap:round; stroke-linejoin:round;">
</g>
<g style="fill:#000000; fill-opacity:0.0; 
stroke:#000000; stroke-width:0.15000; stroke-opacity:1; 
stroke-linecap:round; stroke-linejoin:round;">
<text x="178.00220" y="177.75720"
textLength="0.37500" font-size="2.00000" lengthAdjust="spacingAndGlyphs"
text-anchor="start" opacity="0"></text>
<g class="stroked-text"><desc></desc>
</g></g>
<g style="fill:#000000; fill-opacity:0.0; 
stroke:#000000; stroke-width:0.02120; stroke-opacity:1; 
stroke-linecap:round; stroke-linejoin:round;">
</g>
<g style="fill:#000000; fill-opacity:0.0; 
stroke:#000000; stroke-width:0.15000; stroke-opacity:1; 
stroke-linecap:round; stroke-linejoin:round;">
<text x="178.00220" y="174.75720"
textLength="0.37500" font-size="2.00000" lengthAdjust="spacingAndGlyphs"
text-anchor="start" opacity="0"></text>
<g class="stroked-text"><desc></desc>
</g></g>
<g style="fill:#000000; fill-opacity:0.0; 
stroke:#000000; stroke-width:0.02120; stroke-opacity:1; 
stroke-linecap:round; stroke-linejoin:round;">
</g>
<g style="fill:#000000; fill-opacity:0.0; 
stroke:#000000; stroke-width:0.15000; stroke-opacity:1; 
stroke-linecap:round; stroke-linejoin:round;">
<text x="178.00220" y="171.75720"
textLength="0.37500" font-size="2.00000" lengthAdjust="spacingAndGlyphs"
text-anchor="start" opacity="0"></text>
<g class="stroked-text"><desc></desc>
</g></g>
<g style="fill:#000000; fill-opacity:0.0; 
stroke:#000000; stroke-width:0.02120; stroke-opacity:1; 
stroke-linecap:round; stroke-linejoin:round;">
</g>
<g style="fill:#000000; fill-opacity:0.0; 
stroke:#000000; stroke-width:0.15000; stroke-opacity:1; 
stroke-linecap:round; stroke-linejoin:round;">
<text x="178.00220" y="168.75720"
textLength="0.37500" font-size="2.00000" lengthAdjust="spacingAndGlyphs"
text-anchor="start" opacity="0"></text>
<g class="stroked-text"><desc></desc>
</g></g>
<g style="fill:#000000; fill-opacity:0.0; 
stroke:#000000; stroke-width:0.02120; stroke-opacity:1; 
stroke-linecap:round; stroke-linejoin:round;">
</g>
<g style="fill:#000000; fill-opacity:0.0; 
stroke:#000000; stroke-width:0.15000; stroke-opacity:1; 
stroke-linecap:round; stroke-linejoin:round;">
<path d="M197.00220 191.50720
L197.00220 194.50720
" />
</g>
<g style="fill:#000000; fill-opacity:0.0; 
stroke:#000000; stroke-width:0.02120; stroke-opacity:1; 
stroke-linecap:round; stroke-linejoin:round;">
</g>
<g style="fill:#000000; fill-opacity:0.0; 
stroke:#000000; stroke-width:0.15000; stroke-opacity:1; 
stroke-linecap:round; stroke-linejoin:round;">
<path d="M261.00220 191.50720
L261.00220 198.00720
" />
</g>
<g style="fill:#000000; fill-opacity:0.0; 
stroke:#000000; stroke-width:0.10000; stroke-opacity:1; 
stroke-linecap:round; stroke-linejoin:round;">
<path d="M205.00000 128.00000
L100.00000 128.00000
" />
<path d="M100.00000 128.00000
L100.00000 53.00000
" />
<path d="M100.00000 53.00000
L205.00000 53.00000
" />
<path d="M205.00000 53.00000
L205.00000 128.00000
" />
<g >
</g>
<g >
</g>
<g >
</g>
<g >
</g>
<g >
</g>
<g >
</g>
<g >
</g>
<g >
</g>
<g >
</g>
<g >
</g>
<g >
</g>
<g >
</g>
<g >
</g>
<g >
</g>
<g >
</g>
<g >
</g>
<g >
</g>
<g >
</g>
<g >
</g>
<g >
</g>
<g >
</g>
<g >
</g>
<g >
</g>
<g >
</g>
<g >
</g>
<g >
</g>
<g >
</g>
<g >
</g>
<g >
</g>
<g >
</g>
<g >
</g>
<g >
</g>
<g >
</g>
<g >
</g>
<g >
</g>
<g >
</g>
<g >
</g>
<g >
</g>
<g >
</g>
<g >
</g>
<g >
</g>
<g >
</g>
<g >
</g>
<g >
</g>
<g >
</g>
<g >
</g>
<g >
</g>
<g >
</g>
<g >
</g>
<g >
</g>
<g >
</g>
<g >
</g>
<g >
</g>
<g >
</g>
<g >
</g>
<g >
</g>
<g >
</g>
<g >
</g>
<g >
</g>
<g >
</g>
<g >
</g>
<g >
</g>
<g >
</g>
<g >
</g>
<g >
</g>
<g >
</g>
<g >
</g>
<g >
</g>
<g >
</g>
<g >
</g>
<g >
</g>
<g >
</g>
<g >
</g>
<g >
</g>
<g >
</g>
<g >
</g>
<g >
</g>
<g >
</g>
<g >
</g>
<g >
</g>
<g >
</g>
<g >
</g>
<g >
</g>
<g >
</g>
<g >
</g>
</g>
<g style="fill:#000000; fill-opacity:0.0; 
stroke:#000000; stroke-width:0.10000; stroke-opacity:1; 
stroke-linecap:round; stroke-linejoin:round;">
</g>
<g style="fill:#000000; fill-opacity:0.0; 
stroke:#000000; stroke-width:0.15000; stroke-opacity:1; 
stroke-linecap:round; stroke-linejoin:round;">
<g transform="rotate(-90.000000 114.04600 123.44400)">
<text x="114.04600" y="123.94400"
transform="scale(-1 1) translate(-228.092000 0)"
textLength="2.88929" font-size="1.33333" lengthAdjust="spacingAndGlyphs"
text-anchor="middle" opacity="0">10k</text>
</g>
<g class="stroked-text"><desc>10k</desc>
<path d="M114.50082 122.84876
L114.50082 122.27733
" />
<path d="M114.50082 122.56305
L113.50082 122.56305
" />
<path d="M113.50082 122.56305
L113.64368 122.46781
" />
<path d="M113.64368 122.46781
L113.73891 122.37257
" />
<path d="M113.73891 122.37257
L113.78653 122.27733
" />
<path d="M113.50082 123.46781
L113.50082 123.56305
" />
<path d="M113.50082 123.56305
L113.54844 123.65828
" />
<path d="M113.54844 123.65828
L113.59606 123.70590
" />
<path d="M113.59606 123.70590
L113.69129 123.75352
" />
<path d="M113.69129 123.75352
L113.88177 123.80114
" />
<path d="M113.88177 123.80114
L114.11987 123.80114
" />
<path d="M114.11987 123.80114
L114.31034 123.75352
" />
<path d="M114.31034 123.75352
L114.40558 123.70590
" />
<path d="M114.40558 123.70590
L114.45320 123.65828
" />
<path d="M114.45320 123.65828
L114.50082 123.56305
" />
<path d="M114.50082 123.56305
L114.50082 123.46781
" />
<path d="M114.50082 123.46781
L114.45320 123.37257
" />
<path d="M114.45320 123.37257
L114.40558 123.32495
" />
<path d="M114.40558 123.32495
L114.31034 123.27733
" />
<path d="M114.31034 123.27733
L114.11987 123.22971
" />
<path d="M114.11987 123.22971
L113.88177 123.22971
" />
<path d="M113.88177 123.22971
L113.69129 123.27733
" />
<path d="M113.69129 123.27733
L113.59606 123.32495
" />
<path d="M113.59606 123.32495
L113.54844 123.37257
" />
<path d="M113.54844 123.37257
L113.50082 123.46781
" />
<path d="M114.50082 124.22971
L113.50082 124.22971
" />
<path d="M114.11987 124.32495
L114.50082 124.61067
" />
<path d="M113.83415 124.61067
L114.21510 124.22971
" />
</g><g transform="rotate(-90.000000 202.04900 96.90100)">
<text x="202.04900" y="97.40100"
transform="scale(-1 1) translate(-404.098000 0)"
textLength="7.41310" font-size="1.33333" lengthAdjust="spacingAndGlyphs"
text-anchor="middle" opacity="0">LED_BLUE</text>
</g>
<g class="stroked-text"><desc>LED_BLUE</desc>
<path d="M202.50382 93.99624
L202.50382 93.52005
" />
<path d="M202.50382 93.52005
L201.50382 93.52005
" />
<path d="M201.98001 94.32957
L201.98001 94.66290
" />
<path d="M202.50382 94.80576
L202.50382 94.32957
" />
<path d="M202.50382 94.32957
L201.50382 94.32957
" />
<path d="M201.50382 94.32957
L201.50382 94.80576
" />
<path d="M202.50382 95.23433
L201.50382 95.23433
" />
<path d="M201.50382 95.23433
L201.50382 95.47243
" />
<path d="M201.50382 95.47243
L201.55144 95.61529
" />
<path d="M201.55144 95.61529
L201.64668 95.71052
" />
<path d="M201.64668 95.71052
L201.74191 95.75814
" />
<path d="M201.74191 95.75814
L201.93239 95.80576
" />
<path d="M201.93239 95.80576
L202.07525 95.80576
" />
<path d="M202.07525 95.80576
L202.26572 95.75814
" />
<path d="M202.26572 95.75814
L202.36096 95.71052
" />
<path d="M202.36096 95.71052
L202.45620 95.61529
" />
<path d="M202.45620 95.61529
L202.50382 95.47243
" />
<path d="M202.50382 95.47243
L202.50382 95.23433
" />
<path d="M202.59906 95.99624
L202.59906 96.75814
" />
<path d="M201.98001 97.32957
L202.02763 97.47243
" />
<path d="M202.02763 97.47243
L202.07525 97.52005
" />
<path d="M202.07525 97.52005
L202.17048 97.56767
" />
<path d="M202.17048 97.56767
L202.31334 97.56767
" />
<path d="M202.31334 97.56767
L202.40858 97.52005
" />
<path d="M202.40858 97.52005
L202.45620 97.47243
" />
<path d="M202.45620 97.47243
L202.50382 97.37719
" />
<path d="M202.50382 97.37719
L202.50382 96.99624
" />
<path d="M202.50382 96.99624
L201.50382 96.99624
" />
<path d="M201.50382 96.99624
L201.50382 97.32957
" />
<path d="M201.50382 97.32957
L201.55144 97.42481
" />
<path d="M201.55144 97.42481
L201.59906 97.47243
" />
<path d="M201.59906 97.47243
L201.69429 97.52005
" />
<path d="M201.69429 97.52005
L201.78953 97.52005
" />
<path d="M201.78953 97.52005
L201.88477 97.47243
" />
<path d="M201.88477 97.47243
L201.93239 97.42481
" />
<path d="M201.93239 97.42481
L201.98001 97.32957
" />
<path d="M201.98001 97.32957
L201.98001 96.99624
" />
<path d="M202.50382 98.47243
L202.50382 97.99624
" />
<path d="M202.50382 97.99624
L201.50382 97.99624
" />
<path d="M201.50382 98.80576
L202.31334 98.80576
" />
<path d="M202.31334 98.80576
L202.40858 98.85338
" />
<path d="M202.40858 98.85338
L202.45620 98.90100
" />
<path d="M202.45620 98.90100
L202.50382 98.99624
" />
<path d="M202.50382 98.99624
L202.50382 99.18671
" />
<path d="M202.50382 99.18671
L202.45620 99.28195
" />
<path d="M202.45620 99.28195
L202.40858 99.32957
" />
<path d="M202.40858 99.32957
L202.31334 99.37719
" />
<path d="M202.31334 99.37719
L201.50382 99.37719
" />
<path d="M201.98001 99.85338
L201.98001 100.18671
" />
<path d="M202.50382 100.32957
L202.50382 99.85338
" />
<path d="M202.50382 99.85338
L201.50382 99.85338
" />
<path d="M201.50382 99.85338
L201.50382 100.32957
" />
</g><g transform="rotate(-90.000000 203.83500 96.77400)">
<text x="203.83500" y="97.27400"
transform="scale(-1 1) translate(-407.670000 0)"
textLength="2.12738" font-size="1.33333" lengthAdjust="spacingAndGlyphs"
text-anchor="middle" opacity="0">D6</text>
</g>
<g class="stroked-text"><desc>D6</desc>
<path d="M204.28982 96.03590
L203.28982 96.03590
" />
<path d="M203.28982 96.03590
L203.28982 96.27400
" />
<path d="M203.28982 96.27400
L203.33744 96.41686
" />
<path d="M203.33744 96.41686
L203.43268 96.51210
" />
<path d="M203.43268 96.51210
L203.52791 96.55971
" />
<path d="M203.52791 96.55971
L203.71839 96.60733
" />
<path d="M203.71839 96.60733
L203.86125 96.60733
" />
<path d="M203.86125 96.60733
L204.05172 96.55971
" />
<path d="M204.05172 96.55971
L204.14696 96.51210
" />
<path d="M204.14696 96.51210
L204.24220 96.41686
" />
<path d="M204.24220 96.41686
L204.28982 96.27400
" />
<path d="M204.28982 96.27400
L204.28982 96.03590
" />
<path d="M203.28982 97.46448
L203.28982 97.27400
" />
<path d="M203.28982 97.27400
L203.33744 97.17876
" />
<path d="M203.33744 97.17876
L203.38506 97.13114
" />
<path d="M203.38506 97.13114
L203.52791 97.03590
" />
<path d="M203.52791 97.03590
L203.71839 96.98829
" />
<path d="M203.71839 96.98829
L204.09934 96.98829
" />
<path d="M204.09934 96.98829
L204.19458 97.03590
" />
<path d="M204.19458 97.03590
L204.24220 97.08352
" />
<path d="M204.24220 97.08352
L204.28982 97.17876
" />
<path d="M204.28982 97.17876
L204.28982 97.36924
" />
<path d="M204.28982 97.36924
L204.24220 97.46448
" />
<path d="M204.24220 97.46448
L204.19458 97.51210
" />
<path d="M204.19458 97.51210
L204.09934 97.55971
" />
<path d="M204.09934 97.55971
L203.86125 97.55971
" />
<path d="M203.86125 97.55971
L203.76601 97.51210
" />
<path d="M203.76601 97.51210
L203.71839 97.46448
" />
<path d="M203.71839 97.46448
L203.67077 97.36924
" />
<path d="M203.67077 97.36924
L203.67077 97.17876
" />
<path d="M203.67077 97.17876
L203.71839 97.08352
" />
<path d="M203.71839 97.08352
L203.76601 97.03590
" />
<path d="M203.76601 97.03590
L203.86125 96.98829
" />
</g><g transform="rotate(-90.000000 202.04900 91.69400)">
<text x="202.04900" y="92.19400"
transform="scale(-1 1) translate(-404.098000 0)"
textLength="8.50833" font-size="1.33333" lengthAdjust="spacingAndGlyphs"
text-anchor="middle" opacity="0">LED_GREEN</text>
</g>
<g class="stroked-text"><desc>LED_GREEN</desc>
<path d="M202.50382 88.24162
L202.50382 87.76543
" />
<path d="M202.50382 87.76543
L201.50382 87.76543
" />
<path d="M201.98001 88.57495
L201.98001 88.90828
" />
<path d="M202.50382 89.05114
L202.50382 88.57495
" />
<path d="M202.50382 88.57495
L201.50382 88.57495
" />
<path d="M201.50382 88.57495
L201.50382 89.05114
" />
<path d="M202.50382 89.47971
L201.50382 89.47971
" />
<path d="M201.50382 89.47971
L201.50382 89.71781
" />
<path d="M201.50382 89.71781
L201.55144 89.86067
" />
<path d="M201.55144 89.86067
L201.64668 89.95590
" />
<path d="M201.64668 89.95590
L201.74191 90.00352
" />
<path d="M201.74191 90.00352
L201.93239 90.05114
" />
<path d="M201.93239 90.05114
L202.07525 90.05114
" />
<path d="M202.07525 90.05114
L202.26572 90.00352
" />
<path d="M202.26572 90.00352
L202.36096 89.95590
" />
<path d="M202.36096 89.95590
L202.45620 89.86067
" />
<path d="M202.45620 89.86067
L202.50382 89.71781
" />
<path d="M202.50382 89.71781
L202.50382 89.47971
" />
<path d="M202.59906 90.24162
L202.59906 91.00352
" />
<path d="M201.55144 91.76543
L201.50382 91.67019
" />
<path d="M201.50382 91.67019
L201.50382 91.52733
" />
<path d="M201.50382 91.52733
L201.55144 91.38448
" />
<path d="M201.55144 91.38448
L201.64668 91.28924
" />
<path d="M201.64668 91.28924
L201.74191 91.24162
" />
<path d="M201.74191 91.24162
L201.93239 91.19400
" />
<path d="M201.93239 91.19400
L202.07525 91.19400
" />
<path d="M202.07525 91.19400
L202.26572 91.24162
" />
<path d="M202.26572 91.24162
L202.36096 91.28924
" />
<path d="M202.36096 91.28924
L202.45620 91.38448
" />
<path d="M202.45620 91.38448
L202.50382 91.52733
" />
<path d="M202.50382 91.52733
L202.50382 91.62257
" />
<path d="M202.50382 91.62257
L202.45620 91.76543
" />
<path d="M202.45620 91.76543
L202.40858 91.81305
" />
<path d="M202.40858 91.81305
L202.07525 91.81305
" />
<path d="M202.07525 91.81305
L202.07525 91.62257
" />
<path d="M202.50382 92.81305
L202.02763 92.47971
" />
<path d="M202.50382 92.24162
L201.50382 92.24162
" />
<path d="M201.50382 92.24162
L201.50382 92.62257
" />
<path d="M201.50382 92.62257
L201.55144 92.71781
" />
<path d="M201.55144 92.71781
L201.59906 92.76543
" />
<path d="M201.59906 92.76543
L201.69429 92.81305
" />
<path d="M201.69429 92.81305
L201.83715 92.81305
" />
<path d="M201.83715 92.81305
L201.93239 92.76543
" />
<path d="M201.93239 92.76543
L201.98001 92.71781
" />
<path d="M201.98001 92.71781
L202.02763 92.62257
" />
<path d="M202.02763 92.62257
L202.02763 92.24162
" />
<path d="M201.98001 93.24162
L201.98001 93.57495
" />
<path d="M202.50382 93.71781
L202.50382 93.24162
" />
<path d="M202.50382 93.24162
L201.50382 93.24162
" />
<path d="M201.50382 93.24162
L201.50382 93.71781
" />
<path d="M201.98001 94.14638
L201.98001 94.47971
" />
<path d="M202.50382 94.62257
L202.50382 94.14638
" />
<path d="M202.50382 94.14638
L201.50382 94.14638
" />
<path d="M201.50382 94.14638
L201.50382 94.62257
" />
<path d="M202.50382 95.05114
L201.50382 95.05114
" />
<path d="M201.50382 95.05114
L202.50382 95.62257
" />
<path d="M202.50382 95.62257
L201.50382 95.62257
" />
</g><g transform="rotate(-90.000000 203.83500 91.56700)">
<text x="203.83500" y="92.06700"
transform="scale(-1 1) translate(-407.670000 0)"
textLength="2.12738" font-size="1.33333" lengthAdjust="spacingAndGlyphs"
text-anchor="middle" opacity="0">D4</text>
</g>
<g class="stroked-text"><desc>D4</desc>
<path d="M204.28982 90.82890
L203.28982 90.82890
" />
<path d="M203.28982 90.82890
L203.28982 91.06700
" />
<path d="M203.28982 91.06700
L203.33744 91.20986
" />
<path d="M203.33744 91.20986
L203.43268 91.30509
" />
<path d="M203.43268 91.30509
L203.52791 91.35271
" />
<path d="M203.52791 91.35271
L203.71839 91.40033
" />
<path d="M203.71839 91.40033
L203.86125 91.40033
" />
<path d="M203.86125 91.40033
L204.05172 91.35271
" />
<path d="M204.05172 91.35271
L204.14696 91.30509
" />
<path d="M204.14696 91.30509
L204.24220 91.20986
" />
<path d="M204.24220 91.20986
L204.28982 91.06700
" />
<path d="M204.28982 91.06700
L204.28982 90.82890
" />
<path d="M203.62315 92.25748
L204.28982 92.25748
" />
<path d="M203.24220 92.01938
L203.95648 91.78129
" />
<path d="M203.95648 91.78129
L203.95648 92.40033
" />
</g><g transform="rotate(-90.000000 186.56800 120.77700)">
<text x="186.56800" y="121.27700"
transform="scale(-1 1) translate(-373.136000 0)"
textLength="16.50834" font-size="1.33333" lengthAdjust="spacingAndGlyphs"
text-anchor="middle" opacity="0">SolderJumper_2_Open</text>
</g>
<g class="stroked-text"><desc>SolderJumper_2_Open</desc>
<path d="M186.97520 112.80081
L187.02282 112.94366
" />
<path d="M187.02282 112.94366
L187.02282 113.18176
" />
<path d="M187.02282 113.18176
L186.97520 113.27700
" />
<path d="M186.97520 113.27700
L186.92758 113.32462
" />
<path d="M186.92758 113.32462
L186.83234 113.37224
" />
<path d="M186.83234 113.37224
L186.73710 113.37224
" />
<path d="M186.73710 113.37224
L186.64187 113.32462
" />
<path d="M186.64187 113.32462
L186.59425 113.27700
" />
<path d="M186.59425 113.27700
L186.54663 113.18176
" />
<path d="M186.54663 113.18176
L186.49901 112.99128
" />
<path d="M186.49901 112.99128
L186.45139 112.89605
" />
<path d="M186.45139 112.89605
L186.40377 112.84843
" />
<path d="M186.40377 112.84843
L186.30853 112.80081
" />
<path d="M186.30853 112.80081
L186.21329 112.80081
" />
<path d="M186.21329 112.80081
L186.11806 112.84843
" />
<path d="M186.11806 112.84843
L186.07044 112.89605
" />
<path d="M186.07044 112.89605
L186.02282 112.99128
" />
<path d="M186.02282 112.99128
L186.02282 113.22938
" />
<path d="M186.02282 113.22938
L186.07044 113.37224
" />
<path d="M187.02282 113.94366
L186.97520 113.84843
" />
<path d="M186.97520 113.84843
L186.92758 113.80081
" />
<path d="M186.92758 113.80081
L186.83234 113.75319
" />
<path d="M186.83234 113.75319
L186.54663 113.75319
" />
<path d="M186.54663 113.75319
L186.45139 113.80081
" />
<path d="M186.45139 113.80081
L186.40377 113.84843
" />
<path d="M186.40377 113.84843
L186.35615 113.94366
" />
<path d="M186.35615 113.94366
L186.35615 114.08652
" />
<path d="M186.35615 114.08652
L186.40377 114.18176
" />
<path d="M186.40377 114.18176
L186.45139 114.22938
" />
<path d="M186.45139 114.22938
L186.54663 114.27700
" />
<path d="M186.54663 114.27700
L186.83234 114.27700
" />
<path d="M186.83234 114.27700
L186.92758 114.22938
" />
<path d="M186.92758 114.22938
L186.97520 114.18176
" />
<path d="M186.97520 114.18176
L187.02282 114.08652
" />
<path d="M187.02282 114.08652
L187.02282 113.94366
" />
<path d="M187.02282 114.84843
L186.97520 114.75319
" />
<path d="M186.97520 114.75319
L186.87996 114.70557
" />
<path d="M186.87996 114.70557
L186.02282 114.70557
" />
<path d="M187.02282 115.65795
L186.02282 115.65795
" />
<path d="M186.97520 115.65795
L187.02282 115.56271
" />
<path d="M187.02282 115.56271
L187.02282 115.37224
" />
<path d="M187.02282 115.37224
L186.97520 115.27700
" />
<path d="M186.97520 115.27700
L186.92758 115.22938
" />
<path d="M186.92758 115.22938
L186.83234 115.18176
" />
<path d="M186.83234 115.18176
L186.54663 115.18176
" />
<path d="M186.54663 115.18176
L186.45139 115.22938
" />
<path d="M186.45139 115.22938
L186.40377 115.27700
" />
<path d="M186.40377 115.27700
L186.35615 115.37224
" />
<path d="M186.35615 115.37224
L186.35615 115.56271
" />
<path d="M186.35615 115.56271
L186.40377 115.65795
" />
<path d="M186.97520 116.51509
L187.02282 116.41986
" />
<path d="M187.02282 116.41986
L187.02282 116.22938
" />
<path d="M187.02282 116.22938
L186.97520 116.13414
" />
<path d="M186.97520 116.13414
L186.87996 116.08652
" />
<path d="M186.87996 116.08652
L186.49901 116.08652
" />
<path d="M186.49901 116.08652
L186.40377 116.13414
" />
<path d="M186.40377 116.13414
L186.35615 116.22938
" />
<path d="M186.35615 116.22938
L186.35615 116.41986
" />
<path d="M186.35615 116.41986
L186.40377 116.51509
" />
<path d="M186.40377 116.51509
L186.49901 116.56271
" />
<path d="M186.49901 116.56271
L186.59425 116.56271
" />
<path d="M186.59425 116.56271
L186.68948 116.08652
" />
<path d="M187.02282 116.99128
L186.35615 116.99128
" />
<path d="M186.54663 116.99128
L186.45139 117.03890
" />
<path d="M186.45139 117.03890
L186.40377 117.08652
" />
<path d="M186.40377 117.08652
L186.35615 117.18176
" />
<path d="M186.35615 117.18176
L186.35615 117.27700
" />
<path d="M186.02282 117.89605
L186.73710 117.89605
" />
<path d="M186.73710 117.89605
L186.87996 117.84843
" />
<path d="M186.87996 117.84843
L186.97520 117.75319
" />
<path d="M186.97520 117.75319
L187.02282 117.61033
" />
<path d="M187.02282 117.61033
L187.02282 117.51509
" />
<path d="M186.35615 118.80081
L187.02282 118.80081
" />
<path d="M186.35615 118.37224
L186.87996 118.37224
" />
<path d="M186.87996 118.37224
L186.97520 118.41986
" />
<path d="M186.97520 118.41986
L187.02282 118.51509
" />
<path d="M187.02282 118.51509
L187.02282 118.65795
" />
<path d="M187.02282 118.65795
L186.97520 118.75319
" />
<path d="M186.97520 118.75319
L186.92758 118.80081
" />
<path d="M187.02282 119.27700
L186.35615 119.27700
" />
<path d="M186.45139 119.27700
L186.40377 119.32462
" />
<path d="M186.40377 119.32462
L186.35615 119.41986
" />
<path d="M186.35615 119.41986
L186.35615 119.56271
" />
<path d="M186.35615 119.56271
L186.40377 119.65795
" />
<path d="M186.40377 119.65795
L186.49901 119.70557
" />
<path d="M186.49901 119.70557
L187.02282 119.70557
" />
<path d="M186.49901 119.70557
L186.40377 119.75319
" />
<path d="M186.40377 119.75319
L186.35615 119.84843
" />
<path d="M186.35615 119.84843
L186.35615 119.99128
" />
<path d="M186.35615 119.99128
L186.40377 120.08652
" />
<path d="M186.40377 120.08652
L186.49901 120.13414
" />
<path d="M186.49901 120.13414
L187.02282 120.13414
" />
<path d="M186.35615 120.61033
L187.35615 120.61033
" />
<path d="M186.40377 120.61033
L186.35615 120.70557
" />
<path d="M186.35615 120.70557
L186.35615 120.89605
" />
<path d="M186.35615 120.89605
L186.40377 120.99128
" />
<path d="M186.40377 120.99128
L186.45139 121.03890
" />
<path d="M186.45139 121.03890
L186.54663 121.08652
" />
<path d="M186.54663 121.08652
L186.83234 121.08652
" />
<path d="M186.83234 121.08652
L186.92758 121.03890
" />
<path d="M186.92758 121.03890
L186.97520 120.99128
" />
<path d="M186.97520 120.99128
L187.02282 120.89605
" />
<path d="M187.02282 120.89605
L187.02282 120.70557
" />
<path d="M187.02282 120.70557
L186.97520 120.61033
" />
<path d="M186.97520 121.89605
L187.02282 121.80081
" />
<path d="M187.02282 121.80081
L187.02282 121.61033
" />
<path d="M187.02282 121.61033
L186.97520 121.51509
" />
<path d="M186.97520 121.51509
L186.87996 121.46748
" />
<path d="M186.87996 121.46748
L186.49901 121.46748
" />
<path d="M186.49901 121.46748
L186.40377 121.51509
" />
<path d="M186.40377 121.51509
L186.35615 121.61033
" />
<path d="M186.35615 121.61033
L186.35615 121.80081
" />
<path d="M186.35615 121.80081
L186.40377 121.89605
" />
<path d="M186.40377 121.89605
L186.49901 121.94367
" />
<path d="M186.49901 121.94367
L186.59425 121.94367
" />
<path d="M186.59425 121.94367
L186.68948 121.46748
" />
<path d="M187.02282 122.37224
L186.35615 122.37224
" />
<path d="M186.54663 122.37224
L186.45139 122.41986
" />
<path d="M186.45139 122.41986
L186.40377 122.46748
" />
<path d="M186.40377 122.46748
L186.35615 122.56271
" />
<path d="M186.35615 122.56271
L186.35615 122.65795
" />
<path d="M187.11806 122.75319
L187.11806 123.51509
" />
<path d="M186.11806 123.70557
L186.07044 123.75319
" />
<path d="M186.07044 123.75319
L186.02282 123.84843
" />
<path d="M186.02282 123.84843
L186.02282 124.08652
" />
<path d="M186.02282 124.08652
L186.07044 124.18176
" />
<path d="M186.07044 124.18176
L186.11806 124.22938
" />
<path d="M186.11806 124.22938
L186.21329 124.27700
" />
<path d="M186.21329 124.27700
L186.30853 124.27700
" />
<path d="M186.30853 124.27700
L186.45139 124.22938
" />
<path d="M186.45139 124.22938
L187.02282 123.65795
" />
<path d="M187.02282 123.65795
L187.02282 124.27700
" />
<path d="M187.11806 124.46748
L187.11806 125.22938
" />
<path d="M186.02282 125.65795
L186.02282 125.84843
" />
<path d="M186.02282 125.84843
L186.07044 125.94367
" />
<path d="M186.07044 125.94367
L186.16568 126.03890
" />
<path d="M186.16568 126.03890
L186.35615 126.08652
" />
<path d="M186.35615 126.08652
L186.68948 126.08652
" />
<path d="M186.68948 126.08652
L186.87996 126.03890
" />
<path d="M186.87996 126.03890
L186.97520 125.94367
" />
<path d="M186.97520 125.94367
L187.02282 125.84843
" />
<path d="M187.02282 125.84843
L187.02282 125.65795
" />
<path d="M187.02282 125.65795
L186.97520 125.56271
" />
<path d="M186.97520 125.56271
L186.87996 125.46748
" />
<path d="M186.87996 125.46748
L186.68948 125.41986
" />
<path d="M186.68948 125.41986
L186.35615 125.41986
" />
<path d="M186.35615 125.41986
L186.16568 125.46748
" />
<path d="M186.16568 125.46748
L186.07044 125.56271
" />
<path d="M186.07044 125.56271
L186.02282 125.65795
" />
<path d="M186.35615 126.51510
L187.35615 126.51510
" />
<path d="M186.40377 126.51510
L186.35615 126.61033
" />
<path d="M186.35615 126.61033
L186.35615 126.80081
" />
<path d="M186.35615 126.80081
L186.40377 126.89605
" />
<path d="M186.40377 126.89605
L186.45139 126.94367
" />
<path d="M186.45139 126.94367
L186.54663 126.99129
" />
<path d="M186.54663 126.99129
L186.83234 126.99129
" />
<path d="M186.83234 126.99129
L186.92758 126.94367
" />
<path d="M186.92758 126.94367
L186.97520 126.89605
" />
<path d="M186.97520 126.89605
L187.02282 126.80081
" />
<path d="M187.02282 126.80081
L187.02282 126.61033
" />
<path d="M187.02282 126.61033
L186.97520 126.51510
" />
<path d="M186.97520 127.80081
L187.02282 127.70557
" />
<path d="M187.02282 127.70557
L187.02282 127.51510
" />
<path d="M187.02282 127.51510
L186.97520 127.41986
" />
<path d="M186.97520 127.41986
L186.87996 127.37224
" />
<path d="M186.87996 127.37224
L186.49901 127.37224
" />
<path d="M186.49901 127.37224
L186.40377 127.41986
" />
<path d="M186.40377 127.41986
L186.35615 127.51510
" />
<path d="M186.35615 127.51510
L186.35615 127.70557
" />
<path d="M186.35615 127.70557
L186.40377 127.80081
" />
<path d="M186.40377 127.80081
L186.49901 127.84843
" />
<path d="M186.49901 127.84843
L186.59425 127.84843
" />
<path d="M186.59425 127.84843
L186.68948 127.37224
" />
<path d="M186.35615 128.27700
L187.02282 128.27700
" />
<path d="M186.45139 128.27700
L186.40377 128.32462
" />
<path d="M186.40377 128.32462
L186.35615 128.41986
" />
<path d="M186.35615 128.41986
L186.35615 128.56271
" />
<path d="M186.35615 128.56271
L186.40377 128.65795
" />
<path d="M186.40377 128.65795
L186.49901 128.70557
" />
<path d="M186.49901 128.70557
L187.02282 128.70557
" />
</g></g>
<g style="fill:#000000; fill-opacity:0.0; 
stroke:#000000; stroke-width:0.10000; stroke-opacity:1; 
stroke-linecap:round; stroke-linejoin:round;">
<path d="M203.20000 98.93300
L203.20000 94.86900
" />
<path d="M204.08900 98.93300
L203.20000 98.93300
" />
<path d="M204.47000 98.67900
L204.19700 98.95200
" />
<path d="M203.20000 94.86900
L204.47000 94.86900
" />
<path d="M204.47000 94.86900
L204.47000 98.67900
" />
<path d="M203.20000 93.72600
L203.20000 89.66200
" />
<path d="M204.08900 93.72600
L203.20000 93.72600
" />
<path d="M204.47000 93.47200
L204.19700 93.74500
" />
<path d="M203.20000 89.66200
L204.47000 89.66200
" />
<path d="M204.47000 89.66200
L204.47000 93.47200
" />
<g >
</g>
<g >
</g>
<g >
</g>
<g >
</g>
<g >
</g>
<g >
</g>
<g >
</g>
<g >
</g>
<g >
</g>
<g >
</g>
<g >
</g>
<g >
</g>
<g >
</g>
<g >
</g>
<g >
</g>
<g >
</g>
<g >
</g>
<g >
</g>
<g >
</g>
<g >
</g>
<g >
</g>
<g >
</g>
<g >
</g>
<g >
</g>
<g >
</g>
<g >
</g>
<g >
</g>
<g >
</g>
<g >
</g>
<g >
</g>
<g >
</g>
<g >
</g>
<g >
</g>
<g >
</g>
<g >
</g>
<g >
</g>
<g >
</g>
<g >
</g>
<g >
</g>
<g >
</g>
<g >
</g>
<g >
</g>
<g >
</g>
<g >
</g>
<g >
</g>
<g >
</g>
<g >
</g>
<g >
</g>
<g >
</g>
<g >
</g>
<g >
</g>
<g >
</g>
<g >
</g>
<g >
</g>
<g >
</g>
<g >
</g>
<g >
</g>
<g >
</g>
<g >
</g>
<g >
</g>
<g >
</g>
<g >
</g>
<g >
</g>
<g >
</g>
<g >
</g>
<g >
</g>
<g >
</g>
<g >
</g>
<g >
</g>
<g >
</g>
<g >
</g>
<g >
</g>
<g >
</g>
<g >
</g>
<g >
</g>
<g >
</g>
<g >
</g>
<g >
</g>
<g >
</g>
<g >
</g>
<g >
</g>
<g >
</g>
<g >
</g>
<g >
</g>
<g >
</g>
</g> 
</svg>
