<?xml version="1.0" standalone="no"?>
 <!DOCTYPE svg PUBLIC "-//W3C//DTD SVG 1.1//EN" 
 "http://www.w3.org/Graphics/SVG/1.1/DTD/svg11.dtd"> 
<svg
  xmlns:svg="http://www.w3.org/2000/svg"
  xmlns="http://www.w3.org/2000/svg"
  xmlns:xlink="http://www.w3.org/1999/xlink"
  version="1.1"
  width="297.00220mm" height="210.00720mm" viewBox="0.00000 0.00000 297.00220 210.00720">
<title>SVG Image created as template-47.svg date 2024/02/29 16:23:39 </title>
  <desc>Image generated by PCBNEW </desc>
<g style="fill:#000000; fill-opacity:1.00000;stroke:#000000; stroke-opacity:1.00000;
stroke-linecap:round; stroke-linejoin:round;"
 transform="translate(0 0) scale(1 1)">
</g>
<g style="fill:#000000; fill-opacity:0.0; 
stroke:#000000; stroke-width:0.00000; stroke-opacity:1; 
stroke-linecap:round; stroke-linejoin:round;">
</g>
<g style="fill:#000000; fill-opacity:0.0; 
stroke:#000000; stroke-width:0.02120; stroke-opacity:1; 
stroke-linecap:round; stroke-linejoin:round;">
</g>
<g style="fill:#000000; fill-opacity:0.0; 
stroke:#000000; stroke-width:0.15000; stroke-opacity:1; 
stroke-linecap:round; stroke-linejoin:round;">
<path d="M177.00220 166.00720
L285.00220 166.00720
L285.00220 198.00720
L177.00220 198.00720
L177.00220 166.00720
" />
</g>
<g style="fill:#000000; fill-opacity:0.0; 
stroke:#000000; stroke-width:0.02120; stroke-opacity:1; 
stroke-linecap:round; stroke-linejoin:round;">
</g>
<g style="fill:#000000; fill-opacity:0.0; 
stroke:#000000; stroke-width:0.15000; stroke-opacity:1; 
stroke-linecap:round; stroke-linejoin:round;">
<path d="M10.00000 10.00000
L287.00220 10.00000
L287.00220 200.00720
L10.00000 200.00720
L10.00000 10.00000
" />
</g>
<g style="fill:#000000; fill-opacity:0.0; 
stroke:#000000; stroke-width:0.02120; stroke-opacity:1; 
stroke-linecap:round; stroke-linejoin:round;">
</g>
<g style="fill:#000000; fill-opacity:0.0; 
stroke:#000000; stroke-width:0.15000; stroke-opacity:1; 
stroke-linecap:round; stroke-linejoin:round;">
<path d="M12.00000 12.00000
L285.00220 12.00000
L285.00220 198.00720
L12.00000 198.00720
L12.00000 12.00000
" />
</g>
<g style="fill:#000000; fill-opacity:0.0; 
stroke:#000000; stroke-width:0.02120; stroke-opacity:1; 
stroke-linecap:round; stroke-linejoin:round;">
</g>
<g style="fill:#000000; fill-opacity:0.0; 
stroke:#000000; stroke-width:0.15000; stroke-opacity:1; 
stroke-linecap:round; stroke-linejoin:round;">
<path d="M60.00000 12.00000
L60.00000 10.00000
" />
</g>
<g style="fill:#000000; fill-opacity:0.0; 
stroke:#000000; stroke-width:0.02120; stroke-opacity:1; 
stroke-linecap:round; stroke-linejoin:round;">
</g>
<g style="fill:#000000; fill-opacity:0.0; 
stroke:#000000; stroke-width:0.15000; stroke-opacity:1; 
stroke-linecap:round; stroke-linejoin:round;">
<path d="M110.00000 12.00000
L110.00000 10.00000
" />
</g>
<g style="fill:#000000; fill-opacity:0.0; 
stroke:#000000; stroke-width:0.02120; stroke-opacity:1; 
stroke-linecap:round; stroke-linejoin:round;">
</g>
<g style="fill:#000000; fill-opacity:0.0; 
stroke:#000000; stroke-width:0.15000; stroke-opacity:1; 
stroke-linecap:round; stroke-linejoin:round;">
<path d="M160.00000 12.00000
L160.00000 10.00000
" />
</g>
<g style="fill:#000000; fill-opacity:0.0; 
stroke:#000000; stroke-width:0.02120; stroke-opacity:1; 
stroke-linecap:round; stroke-linejoin:round;">
</g>
<g style="fill:#000000; fill-opacity:0.0; 
stroke:#000000; stroke-width:0.15000; stroke-opacity:1; 
stroke-linecap:round; stroke-linejoin:round;">
<path d="M210.00000 12.00000
L210.00000 10.00000
" />
</g>
<g style="fill:#000000; fill-opacity:0.0; 
stroke:#000000; stroke-width:0.02120; stroke-opacity:1; 
stroke-linecap:round; stroke-linejoin:round;">
</g>
<g style="fill:#000000; fill-opacity:0.0; 
stroke:#000000; stroke-width:0.15000; stroke-opacity:1; 
stroke-linecap:round; stroke-linejoin:round;">
<path d="M260.00000 12.00000
L260.00000 10.00000
" />
</g>
<g style="fill:#000000; fill-opacity:0.0; 
stroke:#000000; stroke-width:0.02120; stroke-opacity:1; 
stroke-linecap:round; stroke-linejoin:round;">
</g>
<g style="fill:#000000; fill-opacity:0.0; 
stroke:#000000; stroke-width:0.15000; stroke-opacity:1; 
stroke-linecap:round; stroke-linejoin:round;">
<text x="35.00000" y="11.65000"
textLength="1.35309" font-size="1.73333" lengthAdjust="spacingAndGlyphs"
text-anchor="start" opacity="0">1</text>
<g class="stroked-text"><desc>1</desc>
<path d="M36.08916 11.59360
L35.34630 11.59360
" />
<path d="M35.71773 11.59360
L35.71773 10.29360
" />
<path d="M35.71773 10.29360
L35.59392 10.47932
" />
<path d="M35.59392 10.47932
L35.47011 10.60313
" />
<path d="M35.47011 10.60313
L35.34630 10.66503
" />
</g></g>
<g style="fill:#000000; fill-opacity:0.0; 
stroke:#000000; stroke-width:0.02120; stroke-opacity:1; 
stroke-linecap:round; stroke-linejoin:round;">
</g>
<g style="fill:#000000; fill-opacity:0.0; 
stroke:#000000; stroke-width:0.15000; stroke-opacity:1; 
stroke-linecap:round; stroke-linejoin:round;">
<text x="85.00000" y="11.65000"
textLength="1.35309" font-size="1.73333" lengthAdjust="spacingAndGlyphs"
text-anchor="start" opacity="0">2</text>
<g class="stroked-text"><desc>2</desc>
<path d="M85.34630 10.41741
L85.40821 10.35551
" />
<path d="M85.40821 10.35551
L85.53202 10.29360
" />
<path d="M85.53202 10.29360
L85.84154 10.29360
" />
<path d="M85.84154 10.29360
L85.96535 10.35551
" />
<path d="M85.96535 10.35551
L86.02725 10.41741
" />
<path d="M86.02725 10.41741
L86.08916 10.54122
" />
<path d="M86.08916 10.54122
L86.08916 10.66503
" />
<path d="M86.08916 10.66503
L86.02725 10.85075
" />
<path d="M86.02725 10.85075
L85.28440 11.59360
" />
<path d="M85.28440 11.59360
L86.08916 11.59360
" />
</g></g>
<g style="fill:#000000; fill-opacity:0.0; 
stroke:#000000; stroke-width:0.02120; stroke-opacity:1; 
stroke-linecap:round; stroke-linejoin:round;">
</g>
<g style="fill:#000000; fill-opacity:0.0; 
stroke:#000000; stroke-width:0.15000; stroke-opacity:1; 
stroke-linecap:round; stroke-linejoin:round;">
<text x="135.00000" y="11.65000"
textLength="1.35309" font-size="1.73333" lengthAdjust="spacingAndGlyphs"
text-anchor="start" opacity="0">3</text>
<g class="stroked-text"><desc>3</desc>
<path d="M135.28440 10.29360
L136.08916 10.29360
" />
<path d="M136.08916 10.29360
L135.65583 10.78884
" />
<path d="M135.65583 10.78884
L135.84154 10.78884
" />
<path d="M135.84154 10.78884
L135.96535 10.85075
" />
<path d="M135.96535 10.85075
L136.02725 10.91265
" />
<path d="M136.02725 10.91265
L136.08916 11.03646
" />
<path d="M136.08916 11.03646
L136.08916 11.34598
" />
<path d="M136.08916 11.34598
L136.02725 11.46979
" />
<path d="M136.02725 11.46979
L135.96535 11.53170
" />
<path d="M135.96535 11.53170
L135.84154 11.59360
" />
<path d="M135.84154 11.59360
L135.47011 11.59360
" />
<path d="M135.47011 11.59360
L135.34630 11.53170
" />
<path d="M135.34630 11.53170
L135.28440 11.46979
" />
</g></g>
<g style="fill:#000000; fill-opacity:0.0; 
stroke:#000000; stroke-width:0.02120; stroke-opacity:1; 
stroke-linecap:round; stroke-linejoin:round;">
</g>
<g style="fill:#000000; fill-opacity:0.0; 
stroke:#000000; stroke-width:0.15000; stroke-opacity:1; 
stroke-linecap:round; stroke-linejoin:round;">
<text x="185.00000" y="11.65000"
textLength="1.35309" font-size="1.73333" lengthAdjust="spacingAndGlyphs"
text-anchor="start" opacity="0">4</text>
<g class="stroked-text"><desc>4</desc>
<path d="M185.96535 10.72694
L185.96535 11.59360
" />
<path d="M185.65583 10.23170
L185.34630 11.16027
" />
<path d="M185.34630 11.16027
L186.15106 11.16027
" />
</g></g>
<g style="fill:#000000; fill-opacity:0.0; 
stroke:#000000; stroke-width:0.02120; stroke-opacity:1; 
stroke-linecap:round; stroke-linejoin:round;">
</g>
<g style="fill:#000000; fill-opacity:0.0; 
stroke:#000000; stroke-width:0.15000; stroke-opacity:1; 
stroke-linecap:round; stroke-linejoin:round;">
<text x="235.00000" y="11.65000"
textLength="1.35309" font-size="1.73333" lengthAdjust="spacingAndGlyphs"
text-anchor="start" opacity="0">5</text>
<g class="stroked-text"><desc>5</desc>
<path d="M236.02725 10.29360
L235.40821 10.29360
" />
<path d="M235.40821 10.29360
L235.34630 10.91265
" />
<path d="M235.34630 10.91265
L235.40821 10.85075
" />
<path d="M235.40821 10.85075
L235.53202 10.78884
" />
<path d="M235.53202 10.78884
L235.84154 10.78884
" />
<path d="M235.84154 10.78884
L235.96535 10.85075
" />
<path d="M235.96535 10.85075
L236.02725 10.91265
" />
<path d="M236.02725 10.91265
L236.08916 11.03646
" />
<path d="M236.08916 11.03646
L236.08916 11.34598
" />
<path d="M236.08916 11.34598
L236.02725 11.46979
" />
<path d="M236.02725 11.46979
L235.96535 11.53170
" />
<path d="M235.96535 11.53170
L235.84154 11.59360
" />
<path d="M235.84154 11.59360
L235.53202 11.59360
" />
<path d="M235.53202 11.59360
L235.40821 11.53170
" />
<path d="M235.40821 11.53170
L235.34630 11.46979
" />
</g></g>
<g style="fill:#000000; fill-opacity:0.0; 
stroke:#000000; stroke-width:0.02120; stroke-opacity:1; 
stroke-linecap:round; stroke-linejoin:round;">
</g>
<g style="fill:#000000; fill-opacity:0.0; 
stroke:#000000; stroke-width:0.15000; stroke-opacity:1; 
stroke-linecap:round; stroke-linejoin:round;">
<text x="285.00000" y="11.65000"
textLength="1.35309" font-size="1.73333" lengthAdjust="spacingAndGlyphs"
text-anchor="start" opacity="0">6</text>
<g class="stroked-text"><desc>6</desc>
<path d="M285.96535 10.29360
L285.71773 10.29360
" />
<path d="M285.71773 10.29360
L285.59392 10.35551
" />
<path d="M285.59392 10.35551
L285.53202 10.41741
" />
<path d="M285.53202 10.41741
L285.40821 10.60313
" />
<path d="M285.40821 10.60313
L285.34630 10.85075
" />
<path d="M285.34630 10.85075
L285.34630 11.34598
" />
<path d="M285.34630 11.34598
L285.40821 11.46979
" />
<path d="M285.40821 11.46979
L285.47011 11.53170
" />
<path d="M285.47011 11.53170
L285.59392 11.59360
" />
<path d="M285.59392 11.59360
L285.84154 11.59360
" />
<path d="M285.84154 11.59360
L285.96535 11.53170
" />
<path d="M285.96535 11.53170
L286.02725 11.46979
" />
<path d="M286.02725 11.46979
L286.08916 11.34598
" />
<path d="M286.08916 11.34598
L286.08916 11.03646
" />
<path d="M286.08916 11.03646
L286.02725 10.91265
" />
<path d="M286.02725 10.91265
L285.96535 10.85075
" />
<path d="M285.96535 10.85075
L285.84154 10.78884
" />
<path d="M285.84154 10.78884
L285.59392 10.78884
" />
<path d="M285.59392 10.78884
L285.47011 10.85075
" />
<path d="M285.47011 10.85075
L285.40821 10.91265
" />
<path d="M285.40821 10.91265
L285.34630 11.03646
" />
</g></g>
<g style="fill:#000000; fill-opacity:0.0; 
stroke:#000000; stroke-width:0.02120; stroke-opacity:1; 
stroke-linecap:round; stroke-linejoin:round;">
</g>
<g style="fill:#000000; fill-opacity:0.0; 
stroke:#000000; stroke-width:0.15000; stroke-opacity:1; 
stroke-linecap:round; stroke-linejoin:round;">
<path d="M60.00000 198.00720
L60.00000 200.00720
" />
</g>
<g style="fill:#000000; fill-opacity:0.0; 
stroke:#000000; stroke-width:0.02120; stroke-opacity:1; 
stroke-linecap:round; stroke-linejoin:round;">
</g>
<g style="fill:#000000; fill-opacity:0.0; 
stroke:#000000; stroke-width:0.15000; stroke-opacity:1; 
stroke-linecap:round; stroke-linejoin:round;">
<path d="M110.00000 198.00720
L110.00000 200.00720
" />
</g>
<g style="fill:#000000; fill-opacity:0.0; 
stroke:#000000; stroke-width:0.02120; stroke-opacity:1; 
stroke-linecap:round; stroke-linejoin:round;">
</g>
<g style="fill:#000000; fill-opacity:0.0; 
stroke:#000000; stroke-width:0.15000; stroke-opacity:1; 
stroke-linecap:round; stroke-linejoin:round;">
<path d="M160.00000 198.00720
L160.00000 200.00720
" />
</g>
<g style="fill:#000000; fill-opacity:0.0; 
stroke:#000000; stroke-width:0.02120; stroke-opacity:1; 
stroke-linecap:round; stroke-linejoin:round;">
</g>
<g style="fill:#000000; fill-opacity:0.0; 
stroke:#000000; stroke-width:0.15000; stroke-opacity:1; 
stroke-linecap:round; stroke-linejoin:round;">
<path d="M210.00000 198.00720
L210.00000 200.00720
" />
</g>
<g style="fill:#000000; fill-opacity:0.0; 
stroke:#000000; stroke-width:0.02120; stroke-opacity:1; 
stroke-linecap:round; stroke-linejoin:round;">
</g>
<g style="fill:#000000; fill-opacity:0.0; 
stroke:#000000; stroke-width:0.15000; stroke-opacity:1; 
stroke-linecap:round; stroke-linejoin:round;">
<path d="M260.00000 198.00720
L260.00000 200.00720
" />
</g>
<g style="fill:#000000; fill-opacity:0.0; 
stroke:#000000; stroke-width:0.02120; stroke-opacity:1; 
stroke-linecap:round; stroke-linejoin:round;">
</g>
<g style="fill:#000000; fill-opacity:0.0; 
stroke:#000000; stroke-width:0.15000; stroke-opacity:1; 
stroke-linecap:round; stroke-linejoin:round;">
<text x="35.00000" y="199.65720"
textLength="1.35309" font-size="1.73333" lengthAdjust="spacingAndGlyphs"
text-anchor="start" opacity="0">1</text>
<g class="stroked-text"><desc>1</desc>
<path d="M36.08916 199.60080
L35.34630 199.60080
" />
<path d="M35.71773 199.60080
L35.71773 198.30080
" />
<path d="M35.71773 198.30080
L35.59392 198.48652
" />
<path d="M35.59392 198.48652
L35.47011 198.61033
" />
<path d="M35.47011 198.61033
L35.34630 198.67223
" />
</g></g>
<g style="fill:#000000; fill-opacity:0.0; 
stroke:#000000; stroke-width:0.02120; stroke-opacity:1; 
stroke-linecap:round; stroke-linejoin:round;">
</g>
<g style="fill:#000000; fill-opacity:0.0; 
stroke:#000000; stroke-width:0.15000; stroke-opacity:1; 
stroke-linecap:round; stroke-linejoin:round;">
<text x="85.00000" y="199.65720"
textLength="1.35309" font-size="1.73333" lengthAdjust="spacingAndGlyphs"
text-anchor="start" opacity="0">2</text>
<g class="stroked-text"><desc>2</desc>
<path d="M85.34630 198.42461
L85.40821 198.36271
" />
<path d="M85.40821 198.36271
L85.53202 198.30080
" />
<path d="M85.53202 198.30080
L85.84154 198.30080
" />
<path d="M85.84154 198.30080
L85.96535 198.36271
" />
<path d="M85.96535 198.36271
L86.02725 198.42461
" />
<path d="M86.02725 198.42461
L86.08916 198.54842
" />
<path d="M86.08916 198.54842
L86.08916 198.67223
" />
<path d="M86.08916 198.67223
L86.02725 198.85795
" />
<path d="M86.02725 198.85795
L85.28440 199.60080
" />
<path d="M85.28440 199.60080
L86.08916 199.60080
" />
</g></g>
<g style="fill:#000000; fill-opacity:0.0; 
stroke:#000000; stroke-width:0.02120; stroke-opacity:1; 
stroke-linecap:round; stroke-linejoin:round;">
</g>
<g style="fill:#000000; fill-opacity:0.0; 
stroke:#000000; stroke-width:0.15000; stroke-opacity:1; 
stroke-linecap:round; stroke-linejoin:round;">
<text x="135.00000" y="199.65720"
textLength="1.35309" font-size="1.73333" lengthAdjust="spacingAndGlyphs"
text-anchor="start" opacity="0">3</text>
<g class="stroked-text"><desc>3</desc>
<path d="M135.28440 198.30080
L136.08916 198.30080
" />
<path d="M136.08916 198.30080
L135.65583 198.79604
" />
<path d="M135.65583 198.79604
L135.84154 198.79604
" />
<path d="M135.84154 198.79604
L135.96535 198.85795
" />
<path d="M135.96535 198.85795
L136.02725 198.91985
" />
<path d="M136.02725 198.91985
L136.08916 199.04366
" />
<path d="M136.08916 199.04366
L136.08916 199.35318
" />
<path d="M136.08916 199.35318
L136.02725 199.47699
" />
<path d="M136.02725 199.47699
L135.96535 199.53890
" />
<path d="M135.96535 199.53890
L135.84154 199.60080
" />
<path d="M135.84154 199.60080
L135.47011 199.60080
" />
<path d="M135.47011 199.60080
L135.34630 199.53890
" />
<path d="M135.34630 199.53890
L135.28440 199.47699
" />
</g></g>
<g style="fill:#000000; fill-opacity:0.0; 
stroke:#000000; stroke-width:0.02120; stroke-opacity:1; 
stroke-linecap:round; stroke-linejoin:round;">
</g>
<g style="fill:#000000; fill-opacity:0.0; 
stroke:#000000; stroke-width:0.15000; stroke-opacity:1; 
stroke-linecap:round; stroke-linejoin:round;">
<text x="185.00000" y="199.65720"
textLength="1.35309" font-size="1.73333" lengthAdjust="spacingAndGlyphs"
text-anchor="start" opacity="0">4</text>
<g class="stroked-text"><desc>4</desc>
<path d="M185.96535 198.73414
L185.96535 199.60080
" />
<path d="M185.65583 198.23890
L185.34630 199.16747
" />
<path d="M185.34630 199.16747
L186.15106 199.16747
" />
</g></g>
<g style="fill:#000000; fill-opacity:0.0; 
stroke:#000000; stroke-width:0.02120; stroke-opacity:1; 
stroke-linecap:round; stroke-linejoin:round;">
</g>
<g style="fill:#000000; fill-opacity:0.0; 
stroke:#000000; stroke-width:0.15000; stroke-opacity:1; 
stroke-linecap:round; stroke-linejoin:round;">
<text x="235.00000" y="199.65720"
textLength="1.35309" font-size="1.73333" lengthAdjust="spacingAndGlyphs"
text-anchor="start" opacity="0">5</text>
<g class="stroked-text"><desc>5</desc>
<path d="M236.02725 198.30080
L235.40821 198.30080
" />
<path d="M235.40821 198.30080
L235.34630 198.91985
" />
<path d="M235.34630 198.91985
L235.40821 198.85795
" />
<path d="M235.40821 198.85795
L235.53202 198.79604
" />
<path d="M235.53202 198.79604
L235.84154 198.79604
" />
<path d="M235.84154 198.79604
L235.96535 198.85795
" />
<path d="M235.96535 198.85795
L236.02725 198.91985
" />
<path d="M236.02725 198.91985
L236.08916 199.04366
" />
<path d="M236.08916 199.04366
L236.08916 199.35318
" />
<path d="M236.08916 199.35318
L236.02725 199.47699
" />
<path d="M236.02725 199.47699
L235.96535 199.53890
" />
<path d="M235.96535 199.53890
L235.84154 199.60080
" />
<path d="M235.84154 199.60080
L235.53202 199.60080
" />
<path d="M235.53202 199.60080
L235.40821 199.53890
" />
<path d="M235.40821 199.53890
L235.34630 199.47699
" />
</g></g>
<g style="fill:#000000; fill-opacity:0.0; 
stroke:#000000; stroke-width:0.02120; stroke-opacity:1; 
stroke-linecap:round; stroke-linejoin:round;">
</g>
<g style="fill:#000000; fill-opacity:0.0; 
stroke:#000000; stroke-width:0.15000; stroke-opacity:1; 
stroke-linecap:round; stroke-linejoin:round;">
<text x="285.00000" y="199.65720"
textLength="1.35309" font-size="1.73333" lengthAdjust="spacingAndGlyphs"
text-anchor="start" opacity="0">6</text>
<g class="stroked-text"><desc>6</desc>
<path d="M285.96535 198.30080
L285.71773 198.30080
" />
<path d="M285.71773 198.30080
L285.59392 198.36271
" />
<path d="M285.59392 198.36271
L285.53202 198.42461
" />
<path d="M285.53202 198.42461
L285.40821 198.61033
" />
<path d="M285.40821 198.61033
L285.34630 198.85795
" />
<path d="M285.34630 198.85795
L285.34630 199.35318
" />
<path d="M285.34630 199.35318
L285.40821 199.47699
" />
<path d="M285.40821 199.47699
L285.47011 199.53890
" />
<path d="M285.47011 199.53890
L285.59392 199.60080
" />
<path d="M285.59392 199.60080
L285.84154 199.60080
" />
<path d="M285.84154 199.60080
L285.96535 199.53890
" />
<path d="M285.96535 199.53890
L286.02725 199.47699
" />
<path d="M286.02725 199.47699
L286.08916 199.35318
" />
<path d="M286.08916 199.35318
L286.08916 199.04366
" />
<path d="M286.08916 199.04366
L286.02725 198.91985
" />
<path d="M286.02725 198.91985
L285.96535 198.85795
" />
<path d="M285.96535 198.85795
L285.84154 198.79604
" />
<path d="M285.84154 198.79604
L285.59392 198.79604
" />
<path d="M285.59392 198.79604
L285.47011 198.85795
" />
<path d="M285.47011 198.85795
L285.40821 198.91985
" />
<path d="M285.40821 198.91985
L285.34630 199.04366
" />
</g></g>
<g style="fill:#000000; fill-opacity:0.0; 
stroke:#000000; stroke-width:0.02120; stroke-opacity:1; 
stroke-linecap:round; stroke-linejoin:round;">
</g>
<g style="fill:#000000; fill-opacity:0.0; 
stroke:#000000; stroke-width:0.15000; stroke-opacity:1; 
stroke-linecap:round; stroke-linejoin:round;">
<path d="M10.00000 60.00000
L12.00000 60.00000
" />
</g>
<g style="fill:#000000; fill-opacity:0.0; 
stroke:#000000; stroke-width:0.02120; stroke-opacity:1; 
stroke-linecap:round; stroke-linejoin:round;">
</g>
<g style="fill:#000000; fill-opacity:0.0; 
stroke:#000000; stroke-width:0.15000; stroke-opacity:1; 
stroke-linecap:round; stroke-linejoin:round;">
<path d="M10.00000 110.00000
L12.00000 110.00000
" />
</g>
<g style="fill:#000000; fill-opacity:0.0; 
stroke:#000000; stroke-width:0.02120; stroke-opacity:1; 
stroke-linecap:round; stroke-linejoin:round;">
</g>
<g style="fill:#000000; fill-opacity:0.0; 
stroke:#000000; stroke-width:0.15000; stroke-opacity:1; 
stroke-linecap:round; stroke-linejoin:round;">
<path d="M10.00000 160.00000
L12.00000 160.00000
" />
</g>
<g style="fill:#000000; fill-opacity:0.0; 
stroke:#000000; stroke-width:0.02120; stroke-opacity:1; 
stroke-linecap:round; stroke-linejoin:round;">
</g>
<g style="fill:#000000; fill-opacity:0.0; 
stroke:#000000; stroke-width:0.15000; stroke-opacity:1; 
stroke-linecap:round; stroke-linejoin:round;">
<text x="11.00000" y="35.65000"
textLength="1.22929" font-size="1.73333" lengthAdjust="spacingAndGlyphs"
text-anchor="middle" opacity="0">A</text>
<g class="stroked-text"><desc>A</desc>
<path d="M10.69048 35.22218
L11.30952 35.22218
" />
<path d="M10.56667 35.59360
L11.00000 34.29360
" />
<path d="M11.00000 34.29360
L11.43333 35.59360
" />
</g></g>
<g style="fill:#000000; fill-opacity:0.0; 
stroke:#000000; stroke-width:0.02120; stroke-opacity:1; 
stroke-linecap:round; stroke-linejoin:round;">
</g>
<g style="fill:#000000; fill-opacity:0.0; 
stroke:#000000; stroke-width:0.15000; stroke-opacity:1; 
stroke-linecap:round; stroke-linejoin:round;">
<text x="11.00000" y="85.65000"
textLength="1.41500" font-size="1.73333" lengthAdjust="spacingAndGlyphs"
text-anchor="middle" opacity="0">B</text>
<g class="stroked-text"><desc>B</desc>
<path d="M11.09286 84.91265
L11.27857 84.97456
" />
<path d="M11.27857 84.97456
L11.34048 85.03646
" />
<path d="M11.34048 85.03646
L11.40238 85.16027
" />
<path d="M11.40238 85.16027
L11.40238 85.34598
" />
<path d="M11.40238 85.34598
L11.34048 85.46979
" />
<path d="M11.34048 85.46979
L11.27857 85.53170
" />
<path d="M11.27857 85.53170
L11.15476 85.59360
" />
<path d="M11.15476 85.59360
L10.65952 85.59360
" />
<path d="M10.65952 85.59360
L10.65952 84.29360
" />
<path d="M10.65952 84.29360
L11.09286 84.29360
" />
<path d="M11.09286 84.29360
L11.21667 84.35551
" />
<path d="M11.21667 84.35551
L11.27857 84.41741
" />
<path d="M11.27857 84.41741
L11.34048 84.54122
" />
<path d="M11.34048 84.54122
L11.34048 84.66503
" />
<path d="M11.34048 84.66503
L11.27857 84.78884
" />
<path d="M11.27857 84.78884
L11.21667 84.85075
" />
<path d="M11.21667 84.85075
L11.09286 84.91265
" />
<path d="M11.09286 84.91265
L10.65952 84.91265
" />
</g></g>
<g style="fill:#000000; fill-opacity:0.0; 
stroke:#000000; stroke-width:0.02120; stroke-opacity:1; 
stroke-linecap:round; stroke-linejoin:round;">
</g>
<g style="fill:#000000; fill-opacity:0.0; 
stroke:#000000; stroke-width:0.15000; stroke-opacity:1; 
stroke-linecap:round; stroke-linejoin:round;">
<text x="11.00000" y="135.65000"
textLength="1.41500" font-size="1.73333" lengthAdjust="spacingAndGlyphs"
text-anchor="middle" opacity="0">C</text>
<g class="stroked-text"><desc>C</desc>
<path d="M11.40238 135.46980
L11.34048 135.53170
" />
<path d="M11.34048 135.53170
L11.15476 135.59360
" />
<path d="M11.15476 135.59360
L11.03095 135.59360
" />
<path d="M11.03095 135.59360
L10.84524 135.53170
" />
<path d="M10.84524 135.53170
L10.72143 135.40789
" />
<path d="M10.72143 135.40789
L10.65952 135.28408
" />
<path d="M10.65952 135.28408
L10.59762 135.03646
" />
<path d="M10.59762 135.03646
L10.59762 134.85075
" />
<path d="M10.59762 134.85075
L10.65952 134.60313
" />
<path d="M10.65952 134.60313
L10.72143 134.47932
" />
<path d="M10.72143 134.47932
L10.84524 134.35551
" />
<path d="M10.84524 134.35551
L11.03095 134.29360
" />
<path d="M11.03095 134.29360
L11.15476 134.29360
" />
<path d="M11.15476 134.29360
L11.34048 134.35551
" />
<path d="M11.34048 134.35551
L11.40238 134.41741
" />
</g></g>
<g style="fill:#000000; fill-opacity:0.0; 
stroke:#000000; stroke-width:0.02120; stroke-opacity:1; 
stroke-linecap:round; stroke-linejoin:round;">
</g>
<g style="fill:#000000; fill-opacity:0.0; 
stroke:#000000; stroke-width:0.15000; stroke-opacity:1; 
stroke-linecap:round; stroke-linejoin:round;">
<text x="11.00000" y="185.65000"
textLength="1.41500" font-size="1.73333" lengthAdjust="spacingAndGlyphs"
text-anchor="middle" opacity="0">D</text>
<g class="stroked-text"><desc>D</desc>
<path d="M10.65952 185.59360
L10.65952 184.29360
" />
<path d="M10.65952 184.29360
L10.96905 184.29360
" />
<path d="M10.96905 184.29360
L11.15476 184.35551
" />
<path d="M11.15476 184.35551
L11.27857 184.47932
" />
<path d="M11.27857 184.47932
L11.34048 184.60313
" />
<path d="M11.34048 184.60313
L11.40238 184.85075
" />
<path d="M11.40238 184.85075
L11.40238 185.03646
" />
<path d="M11.40238 185.03646
L11.34048 185.28408
" />
<path d="M11.34048 185.28408
L11.27857 185.40789
" />
<path d="M11.27857 185.40789
L11.15476 185.53170
" />
<path d="M11.15476 185.53170
L10.96905 185.59360
" />
<path d="M10.96905 185.59360
L10.65952 185.59360
" />
</g></g>
<g style="fill:#000000; fill-opacity:0.0; 
stroke:#000000; stroke-width:0.02120; stroke-opacity:1; 
stroke-linecap:round; stroke-linejoin:round;">
</g>
<g style="fill:#000000; fill-opacity:0.0; 
stroke:#000000; stroke-width:0.15000; stroke-opacity:1; 
stroke-linecap:round; stroke-linejoin:round;">
<path d="M287.00220 60.00000
L285.00220 60.00000
" />
</g>
<g style="fill:#000000; fill-opacity:0.0; 
stroke:#000000; stroke-width:0.02120; stroke-opacity:1; 
stroke-linecap:round; stroke-linejoin:round;">
</g>
<g style="fill:#000000; fill-opacity:0.0; 
stroke:#000000; stroke-width:0.15000; stroke-opacity:1; 
stroke-linecap:round; stroke-linejoin:round;">
<path d="M287.00220 110.00000
L285.00220 110.00000
" />
</g>
<g style="fill:#000000; fill-opacity:0.0; 
stroke:#000000; stroke-width:0.02120; stroke-opacity:1; 
stroke-linecap:round; stroke-linejoin:round;">
</g>
<g style="fill:#000000; fill-opacity:0.0; 
stroke:#000000; stroke-width:0.15000; stroke-opacity:1; 
stroke-linecap:round; stroke-linejoin:round;">
<path d="M287.00220 160.00000
L285.00220 160.00000
" />
</g>
<g style="fill:#000000; fill-opacity:0.0; 
stroke:#000000; stroke-width:0.02120; stroke-opacity:1; 
stroke-linecap:round; stroke-linejoin:round;">
</g>
<g style="fill:#000000; fill-opacity:0.0; 
stroke:#000000; stroke-width:0.15000; stroke-opacity:1; 
stroke-linecap:round; stroke-linejoin:round;">
<text x="286.00220" y="35.65000"
textLength="1.22929" font-size="1.73333" lengthAdjust="spacingAndGlyphs"
text-anchor="middle" opacity="0">A</text>
<g class="stroked-text"><desc>A</desc>
<path d="M285.69268 35.22218
L286.31172 35.22218
" />
<path d="M285.56887 35.59360
L286.00220 34.29360
" />
<path d="M286.00220 34.29360
L286.43553 35.59360
" />
</g></g>
<g style="fill:#000000; fill-opacity:0.0; 
stroke:#000000; stroke-width:0.02120; stroke-opacity:1; 
stroke-linecap:round; stroke-linejoin:round;">
</g>
<g style="fill:#000000; fill-opacity:0.0; 
stroke:#000000; stroke-width:0.15000; stroke-opacity:1; 
stroke-linecap:round; stroke-linejoin:round;">
<text x="286.00220" y="85.65000"
textLength="1.41500" font-size="1.73333" lengthAdjust="spacingAndGlyphs"
text-anchor="middle" opacity="0">B</text>
<g class="stroked-text"><desc>B</desc>
<path d="M286.09506 84.91265
L286.28077 84.97456
" />
<path d="M286.28077 84.97456
L286.34268 85.03646
" />
<path d="M286.34268 85.03646
L286.40458 85.16027
" />
<path d="M286.40458 85.16027
L286.40458 85.34598
" />
<path d="M286.40458 85.34598
L286.34268 85.46979
" />
<path d="M286.34268 85.46979
L286.28077 85.53170
" />
<path d="M286.28077 85.53170
L286.15696 85.59360
" />
<path d="M286.15696 85.59360
L285.66172 85.59360
" />
<path d="M285.66172 85.59360
L285.66172 84.29360
" />
<path d="M285.66172 84.29360
L286.09506 84.29360
" />
<path d="M286.09506 84.29360
L286.21887 84.35551
" />
<path d="M286.21887 84.35551
L286.28077 84.41741
" />
<path d="M286.28077 84.41741
L286.34268 84.54122
" />
<path d="M286.34268 84.54122
L286.34268 84.66503
" />
<path d="M286.34268 84.66503
L286.28077 84.78884
" />
<path d="M286.28077 84.78884
L286.21887 84.85075
" />
<path d="M286.21887 84.85075
L286.09506 84.91265
" />
<path d="M286.09506 84.91265
L285.66172 84.91265
" />
</g></g>
<g style="fill:#000000; fill-opacity:0.0; 
stroke:#000000; stroke-width:0.02120; stroke-opacity:1; 
stroke-linecap:round; stroke-linejoin:round;">
</g>
<g style="fill:#000000; fill-opacity:0.0; 
stroke:#000000; stroke-width:0.15000; stroke-opacity:1; 
stroke-linecap:round; stroke-linejoin:round;">
<text x="286.00220" y="135.65000"
textLength="1.41500" font-size="1.73333" lengthAdjust="spacingAndGlyphs"
text-anchor="middle" opacity="0">C</text>
<g class="stroked-text"><desc>C</desc>
<path d="M286.40458 135.46980
L286.34268 135.53170
" />
<path d="M286.34268 135.53170
L286.15696 135.59360
" />
<path d="M286.15696 135.59360
L286.03315 135.59360
" />
<path d="M286.03315 135.59360
L285.84744 135.53170
" />
<path d="M285.84744 135.53170
L285.72363 135.40789
" />
<path d="M285.72363 135.40789
L285.66172 135.28408
" />
<path d="M285.66172 135.28408
L285.59982 135.03646
" />
<path d="M285.59982 135.03646
L285.59982 134.85075
" />
<path d="M285.59982 134.85075
L285.66172 134.60313
" />
<path d="M285.66172 134.60313
L285.72363 134.47932
" />
<path d="M285.72363 134.47932
L285.84744 134.35551
" />
<path d="M285.84744 134.35551
L286.03315 134.29360
" />
<path d="M286.03315 134.29360
L286.15696 134.29360
" />
<path d="M286.15696 134.29360
L286.34268 134.35551
" />
<path d="M286.34268 134.35551
L286.40458 134.41741
" />
</g></g>
<g style="fill:#000000; fill-opacity:0.0; 
stroke:#000000; stroke-width:0.02120; stroke-opacity:1; 
stroke-linecap:round; stroke-linejoin:round;">
</g>
<g style="fill:#000000; fill-opacity:0.0; 
stroke:#000000; stroke-width:0.15000; stroke-opacity:1; 
stroke-linecap:round; stroke-linejoin:round;">
<text x="286.00220" y="185.65000"
textLength="1.41500" font-size="1.73333" lengthAdjust="spacingAndGlyphs"
text-anchor="middle" opacity="0">D</text>
<g class="stroked-text"><desc>D</desc>
<path d="M285.66172 185.59360
L285.66172 184.29360
" />
<path d="M285.66172 184.29360
L285.97125 184.29360
" />
<path d="M285.97125 184.29360
L286.15696 184.35551
" />
<path d="M286.15696 184.35551
L286.28077 184.47932
" />
<path d="M286.28077 184.47932
L286.34268 184.60313
" />
<path d="M286.34268 184.60313
L286.40458 184.85075
" />
<path d="M286.40458 184.85075
L286.40458 185.03646
" />
<path d="M286.40458 185.03646
L286.34268 185.28408
" />
<path d="M286.34268 185.28408
L286.28077 185.40789
" />
<path d="M286.28077 185.40789
L286.15696 185.53170
" />
<path d="M286.15696 185.53170
L285.97125 185.59360
" />
<path d="M285.97125 185.59360
L285.66172 185.59360
" />
</g></g>
<g style="fill:#000000; fill-opacity:0.0; 
stroke:#000000; stroke-width:0.02120; stroke-opacity:1; 
stroke-linecap:round; stroke-linejoin:round;">
</g>
<g style="fill:#000000; fill-opacity:0.0; 
stroke:#000000; stroke-width:0.15000; stroke-opacity:1; 
stroke-linecap:round; stroke-linejoin:round;">
<text x="200.00220" y="193.85720"
textLength="6.93214" font-size="2.00000" lengthAdjust="spacingAndGlyphs"
text-anchor="start" opacity="0">Date: </text>
<g class="stroked-text"><desc>Date: </desc>
<path d="M200.45803 193.79333
L200.45803 192.29333
" />
<path d="M200.45803 192.29333
L200.81517 192.29333
" />
<path d="M200.81517 192.29333
L201.02945 192.36476
" />
<path d="M201.02945 192.36476
L201.17231 192.50761
" />
<path d="M201.17231 192.50761
L201.24374 192.65047
" />
<path d="M201.24374 192.65047
L201.31517 192.93618
" />
<path d="M201.31517 192.93618
L201.31517 193.15047
" />
<path d="M201.31517 193.15047
L201.24374 193.43618
" />
<path d="M201.24374 193.43618
L201.17231 193.57904
" />
<path d="M201.17231 193.57904
L201.02945 193.72190
" />
<path d="M201.02945 193.72190
L200.81517 193.79333
" />
<path d="M200.81517 193.79333
L200.45803 193.79333
" />
<path d="M202.60088 193.79333
L202.60088 193.00761
" />
<path d="M202.60088 193.00761
L202.52945 192.86476
" />
<path d="M202.52945 192.86476
L202.38660 192.79333
" />
<path d="M202.38660 192.79333
L202.10088 192.79333
" />
<path d="M202.10088 192.79333
L201.95803 192.86476
" />
<path d="M202.60088 193.72190
L202.45803 193.79333
" />
<path d="M202.45803 193.79333
L202.10088 193.79333
" />
<path d="M202.10088 193.79333
L201.95803 193.72190
" />
<path d="M201.95803 193.72190
L201.88660 193.57904
" />
<path d="M201.88660 193.57904
L201.88660 193.43618
" />
<path d="M201.88660 193.43618
L201.95803 193.29333
" />
<path d="M201.95803 193.29333
L202.10088 193.22190
" />
<path d="M202.10088 193.22190
L202.45803 193.22190
" />
<path d="M202.45803 193.22190
L202.60088 193.15047
" />
<path d="M203.10088 192.79333
L203.67231 192.79333
" />
<path d="M203.31517 192.29333
L203.31517 193.57904
" />
<path d="M203.31517 193.57904
L203.38660 193.72190
" />
<path d="M203.38660 193.72190
L203.52945 193.79333
" />
<path d="M203.52945 193.79333
L203.67231 193.79333
" />
<path d="M204.74374 193.72190
L204.60088 193.79333
" />
<path d="M204.60088 193.79333
L204.31517 193.79333
" />
<path d="M204.31517 193.79333
L204.17231 193.72190
" />
<path d="M204.17231 193.72190
L204.10088 193.57904
" />
<path d="M204.10088 193.57904
L204.10088 193.00761
" />
<path d="M204.10088 193.00761
L204.17231 192.86476
" />
<path d="M204.17231 192.86476
L204.31517 192.79333
" />
<path d="M204.31517 192.79333
L204.60088 192.79333
" />
<path d="M204.60088 192.79333
L204.74374 192.86476
" />
<path d="M204.74374 192.86476
L204.81517 193.00761
" />
<path d="M204.81517 193.00761
L204.81517 193.15047
" />
<path d="M204.81517 193.15047
L204.10088 193.29333
" />
<path d="M205.45803 193.65047
L205.52945 193.72190
" />
<path d="M205.52945 193.72190
L205.45803 193.79333
" />
<path d="M205.45803 193.79333
L205.38660 193.72190
" />
<path d="M205.38660 193.72190
L205.45803 193.65047
" />
<path d="M205.45803 193.65047
L205.45803 193.79333
" />
<path d="M205.45803 192.86476
L205.52945 192.93618
" />
<path d="M205.52945 192.93618
L205.45803 193.00761
" />
<path d="M205.45803 193.00761
L205.38660 192.93618
" />
<path d="M205.38660 192.93618
L205.45803 192.86476
" />
<path d="M205.45803 192.86476
L205.45803 193.00761
" />
</g></g>
<g style="fill:#000000; fill-opacity:0.0; 
stroke:#000000; stroke-width:0.02120; stroke-opacity:1; 
stroke-linecap:round; stroke-linejoin:round;">
</g>
<g style="fill:#000000; fill-opacity:0.0; 
stroke:#000000; stroke-width:0.15000; stroke-opacity:1; 
stroke-linecap:round; stroke-linejoin:round;">
<path d="M177.00220 194.50720
L285.00220 194.50720
" />
</g>
<g style="fill:#000000; fill-opacity:0.0; 
stroke:#000000; stroke-width:0.02120; stroke-opacity:1; 
stroke-linecap:round; stroke-linejoin:round;">
</g>
<g style="fill:#000000; fill-opacity:0.0; 
stroke:#000000; stroke-width:0.15000; stroke-opacity:1; 
stroke-linecap:round; stroke-linejoin:round;">
<text x="178.00220" y="196.65720"
textLength="20.57500" font-size="2.00000" lengthAdjust="spacingAndGlyphs"
text-anchor="start" opacity="0">${KICAD_VERSION}</text>
<g class="stroked-text"><desc>${KICAD_VERSION}</desc>
<path d="M178.38660 196.52190
L178.60088 196.59333
" />
<path d="M178.60088 196.59333
L178.95803 196.59333
" />
<path d="M178.95803 196.59333
L179.10088 196.52190
" />
<path d="M179.10088 196.52190
L179.17231 196.45047
" />
<path d="M179.17231 196.45047
L179.24374 196.30761
" />
<path d="M179.24374 196.30761
L179.24374 196.16476
" />
<path d="M179.24374 196.16476
L179.17231 196.02190
" />
<path d="M179.17231 196.02190
L179.10088 195.95047
" />
<path d="M179.10088 195.95047
L178.95803 195.87904
" />
<path d="M178.95803 195.87904
L178.67231 195.80761
" />
<path d="M178.67231 195.80761
L178.52945 195.73618
" />
<path d="M178.52945 195.73618
L178.45803 195.66476
" />
<path d="M178.45803 195.66476
L178.38660 195.52190
" />
<path d="M178.38660 195.52190
L178.38660 195.37904
" />
<path d="M178.38660 195.37904
L178.45803 195.23618
" />
<path d="M178.45803 195.23618
L178.52945 195.16476
" />
<path d="M178.52945 195.16476
L178.67231 195.09333
" />
<path d="M178.67231 195.09333
L179.02945 195.09333
" />
<path d="M179.02945 195.09333
L179.24374 195.16476
" />
<path d="M178.81517 194.87904
L178.81517 196.80761
" />
<path d="M180.31517 197.16476
L180.24374 197.16476
" />
<path d="M180.24374 197.16476
L180.10088 197.09333
" />
<path d="M180.10088 197.09333
L180.02945 196.95047
" />
<path d="M180.02945 196.95047
L180.02945 196.23618
" />
<path d="M180.02945 196.23618
L179.95803 196.09333
" />
<path d="M179.95803 196.09333
L179.81517 196.02190
" />
<path d="M179.81517 196.02190
L179.95803 195.95047
" />
<path d="M179.95803 195.95047
L180.02945 195.80761
" />
<path d="M180.02945 195.80761
L180.02945 195.09333
" />
<path d="M180.02945 195.09333
L180.10088 194.95047
" />
<path d="M180.10088 194.95047
L180.24374 194.87904
" />
<path d="M180.24374 194.87904
L180.31517 194.87904
" />
<path d="M180.88660 196.59333
L180.88660 195.09333
" />
<path d="M181.74374 196.59333
L181.10088 195.73618
" />
<path d="M181.74374 195.09333
L180.88660 195.95047
" />
<path d="M182.38660 196.59333
L182.38660 195.09333
" />
<path d="M183.95803 196.45047
L183.88660 196.52190
" />
<path d="M183.88660 196.52190
L183.67231 196.59333
" />
<path d="M183.67231 196.59333
L183.52945 196.59333
" />
<path d="M183.52945 196.59333
L183.31517 196.52190
" />
<path d="M183.31517 196.52190
L183.17231 196.37904
" />
<path d="M183.17231 196.37904
L183.10088 196.23618
" />
<path d="M183.10088 196.23618
L183.02945 195.95047
" />
<path d="M183.02945 195.95047
L183.02945 195.73618
" />
<path d="M183.02945 195.73618
L183.10088 195.45047
" />
<path d="M183.10088 195.45047
L183.17231 195.30761
" />
<path d="M183.17231 195.30761
L183.31517 195.16476
" />
<path d="M183.31517 195.16476
L183.52945 195.09333
" />
<path d="M183.52945 195.09333
L183.67231 195.09333
" />
<path d="M183.67231 195.09333
L183.88660 195.16476
" />
<path d="M183.88660 195.16476
L183.95803 195.23618
" />
<path d="M184.52945 196.16476
L185.24374 196.16476
" />
<path d="M184.38660 196.59333
L184.88660 195.09333
" />
<path d="M184.88660 195.09333
L185.38660 196.59333
" />
<path d="M185.88660 196.59333
L185.88660 195.09333
" />
<path d="M185.88660 195.09333
L186.24374 195.09333
" />
<path d="M186.24374 195.09333
L186.45803 195.16476
" />
<path d="M186.45803 195.16476
L186.60088 195.30761
" />
<path d="M186.60088 195.30761
L186.67231 195.45047
" />
<path d="M186.67231 195.45047
L186.74374 195.73618
" />
<path d="M186.74374 195.73618
L186.74374 195.95047
" />
<path d="M186.74374 195.95047
L186.67231 196.23618
" />
<path d="M186.67231 196.23618
L186.60088 196.37904
" />
<path d="M186.60088 196.37904
L186.45803 196.52190
" />
<path d="M186.45803 196.52190
L186.24374 196.59333
" />
<path d="M186.24374 196.59333
L185.88660 196.59333
" />
<path d="M187.02945 196.73618
L188.17231 196.73618
" />
<path d="M188.31517 195.09333
L188.81517 196.59333
" />
<path d="M188.81517 196.59333
L189.31517 195.09333
" />
<path d="M189.81517 195.80761
L190.31517 195.80761
" />
<path d="M190.52945 196.59333
L189.81517 196.59333
" />
<path d="M189.81517 196.59333
L189.81517 195.09333
" />
<path d="M189.81517 195.09333
L190.52945 195.09333
" />
<path d="M192.02945 196.59333
L191.52945 195.87904
" />
<path d="M191.17231 196.59333
L191.17231 195.09333
" />
<path d="M191.17231 195.09333
L191.74374 195.09333
" />
<path d="M191.74374 195.09333
L191.88660 195.16476
" />
<path d="M191.88660 195.16476
L191.95803 195.23618
" />
<path d="M191.95803 195.23618
L192.02945 195.37904
" />
<path d="M192.02945 195.37904
L192.02945 195.59333
" />
<path d="M192.02945 195.59333
L191.95803 195.73618
" />
<path d="M191.95803 195.73618
L191.88660 195.80761
" />
<path d="M191.88660 195.80761
L191.74374 195.87904
" />
<path d="M191.74374 195.87904
L191.17231 195.87904
" />
<path d="M192.60088 196.52190
L192.81517 196.59333
" />
<path d="M192.81517 196.59333
L193.17231 196.59333
" />
<path d="M193.17231 196.59333
L193.31517 196.52190
" />
<path d="M193.31517 196.52190
L193.38660 196.45047
" />
<path d="M193.38660 196.45047
L193.45803 196.30761
" />
<path d="M193.45803 196.30761
L193.45803 196.16476
" />
<path d="M193.45803 196.16476
L193.38660 196.02190
" />
<path d="M193.38660 196.02190
L193.31517 195.95047
" />
<path d="M193.31517 195.95047
L193.17231 195.87904
" />
<path d="M193.17231 195.87904
L192.88660 195.80761
" />
<path d="M192.88660 195.80761
L192.74374 195.73618
" />
<path d="M192.74374 195.73618
L192.67231 195.66476
" />
<path d="M192.67231 195.66476
L192.60088 195.52190
" />
<path d="M192.60088 195.52190
L192.60088 195.37904
" />
<path d="M192.60088 195.37904
L192.67231 195.23618
" />
<path d="M192.67231 195.23618
L192.74374 195.16476
" />
<path d="M192.74374 195.16476
L192.88660 195.09333
" />
<path d="M192.88660 195.09333
L193.24374 195.09333
" />
<path d="M193.24374 195.09333
L193.45803 195.16476
" />
<path d="M194.10088 196.59333
L194.10088 195.09333
" />
<path d="M195.10088 195.09333
L195.38660 195.09333
" />
<path d="M195.38660 195.09333
L195.52945 195.16476
" />
<path d="M195.52945 195.16476
L195.67231 195.30761
" />
<path d="M195.67231 195.30761
L195.74374 195.59333
" />
<path d="M195.74374 195.59333
L195.74374 196.09333
" />
<path d="M195.74374 196.09333
L195.67231 196.37904
" />
<path d="M195.67231 196.37904
L195.52945 196.52190
" />
<path d="M195.52945 196.52190
L195.38660 196.59333
" />
<path d="M195.38660 196.59333
L195.10088 196.59333
" />
<path d="M195.10088 196.59333
L194.95803 196.52190
" />
<path d="M194.95803 196.52190
L194.81517 196.37904
" />
<path d="M194.81517 196.37904
L194.74374 196.09333
" />
<path d="M194.74374 196.09333
L194.74374 195.59333
" />
<path d="M194.74374 195.59333
L194.81517 195.30761
" />
<path d="M194.81517 195.30761
L194.95803 195.16476
" />
<path d="M194.95803 195.16476
L195.10088 195.09333
" />
<path d="M196.38660 196.59333
L196.38660 195.09333
" />
<path d="M196.38660 195.09333
L197.24374 196.59333
" />
<path d="M197.24374 196.59333
L197.24374 195.09333
" />
<path d="M197.81517 197.16476
L197.88660 197.16476
" />
<path d="M197.88660 197.16476
L198.02945 197.09333
" />
<path d="M198.02945 197.09333
L198.10088 196.95047
" />
<path d="M198.10088 196.95047
L198.10088 196.23618
" />
<path d="M198.10088 196.23618
L198.17231 196.09333
" />
<path d="M198.17231 196.09333
L198.31517 196.02190
" />
<path d="M198.31517 196.02190
L198.17231 195.95047
" />
<path d="M198.17231 195.95047
L198.10088 195.80761
" />
<path d="M198.10088 195.80761
L198.10088 195.09333
" />
<path d="M198.10088 195.09333
L198.02945 194.95047
" />
<path d="M198.02945 194.95047
L197.88660 194.87904
" />
<path d="M197.88660 194.87904
L197.81517 194.87904
" />
</g></g>
<g style="fill:#000000; fill-opacity:0.0; 
stroke:#000000; stroke-width:0.02120; stroke-opacity:1; 
stroke-linecap:round; stroke-linejoin:round;">
</g>
<g style="fill:#000000; fill-opacity:0.0; 
stroke:#000000; stroke-width:0.15000; stroke-opacity:1; 
stroke-linecap:round; stroke-linejoin:round;">
<path d="M177.00220 191.50720
L285.00220 191.50720
" />
</g>
<g style="fill:#000000; fill-opacity:0.0; 
stroke:#000000; stroke-width:0.02120; stroke-opacity:1; 
stroke-linecap:round; stroke-linejoin:round;">
</g>
<g style="fill:#000000; fill-opacity:0.0; 
stroke:#000000; stroke-width:0.30000; stroke-opacity:1; 
stroke-linecap:round; stroke-linejoin:round;">
<text x="263.00220" y="193.85720"
textLength="6.23571" font-size="2.00000" lengthAdjust="spacingAndGlyphs"
text-anchor="start" opacity="0">Rev: </text>
<g class="stroked-text"><desc>Rev: </desc>
<path d="M264.41385 193.78553
L263.91385 193.07124
" />
<path d="M263.55671 193.78553
L263.55671 192.28553
" />
<path d="M263.55671 192.28553
L264.12814 192.28553
" />
<path d="M264.12814 192.28553
L264.27100 192.35696
" />
<path d="M264.27100 192.35696
L264.34242 192.42838
" />
<path d="M264.34242 192.42838
L264.41385 192.57124
" />
<path d="M264.41385 192.57124
L264.41385 192.78553
" />
<path d="M264.41385 192.78553
L264.34242 192.92838
" />
<path d="M264.34242 192.92838
L264.27100 192.99981
" />
<path d="M264.27100 192.99981
L264.12814 193.07124
" />
<path d="M264.12814 193.07124
L263.55671 193.07124
" />
<path d="M265.62814 193.71410
L265.48528 193.78553
" />
<path d="M265.48528 193.78553
L265.19957 193.78553
" />
<path d="M265.19957 193.78553
L265.05671 193.71410
" />
<path d="M265.05671 193.71410
L264.98528 193.57124
" />
<path d="M264.98528 193.57124
L264.98528 192.99981
" />
<path d="M264.98528 192.99981
L265.05671 192.85696
" />
<path d="M265.05671 192.85696
L265.19957 192.78553
" />
<path d="M265.19957 192.78553
L265.48528 192.78553
" />
<path d="M265.48528 192.78553
L265.62814 192.85696
" />
<path d="M265.62814 192.85696
L265.69957 192.99981
" />
<path d="M265.69957 192.99981
L265.69957 193.14267
" />
<path d="M265.69957 193.14267
L264.98528 193.28553
" />
<path d="M266.19957 192.78553
L266.55671 193.78553
" />
<path d="M266.55671 193.78553
L266.91385 192.78553
" />
<path d="M267.48528 193.64267
L267.55671 193.71410
" />
<path d="M267.55671 193.71410
L267.48528 193.78553
" />
<path d="M267.48528 193.78553
L267.41385 193.71410
" />
<path d="M267.41385 193.71410
L267.48528 193.64267
" />
<path d="M267.48528 193.64267
L267.48528 193.78553
" />
<path d="M267.48528 192.85696
L267.55671 192.92838
" />
<path d="M267.55671 192.92838
L267.48528 192.99981
" />
<path d="M267.48528 192.99981
L267.41385 192.92838
" />
<path d="M267.41385 192.92838
L267.48528 192.85696
" />
<path d="M267.48528 192.85696
L267.48528 192.99981
" />
</g></g>
<g style="fill:#000000; fill-opacity:0.0; 
stroke:#000000; stroke-width:0.02120; stroke-opacity:1; 
stroke-linecap:round; stroke-linejoin:round;">
</g>
<g style="fill:#000000; fill-opacity:0.0; 
stroke:#000000; stroke-width:0.15000; stroke-opacity:1; 
stroke-linecap:round; stroke-linejoin:round;">
<text x="178.00220" y="193.85720"
textLength="9.28928" font-size="2.00000" lengthAdjust="spacingAndGlyphs"
text-anchor="start" opacity="0">Size: A4</text>
<g class="stroked-text"><desc>Size: A4</desc>
<path d="M178.38660 193.72190
L178.60088 193.79333
" />
<path d="M178.60088 193.79333
L178.95803 193.79333
" />
<path d="M178.95803 193.79333
L179.10088 193.72190
" />
<path d="M179.10088 193.72190
L179.17231 193.65047
" />
<path d="M179.17231 193.65047
L179.24374 193.50761
" />
<path d="M179.24374 193.50761
L179.24374 193.36476
" />
<path d="M179.24374 193.36476
L179.17231 193.22190
" />
<path d="M179.17231 193.22190
L179.10088 193.15047
" />
<path d="M179.10088 193.15047
L178.95803 193.07904
" />
<path d="M178.95803 193.07904
L178.67231 193.00761
" />
<path d="M178.67231 193.00761
L178.52945 192.93618
" />
<path d="M178.52945 192.93618
L178.45803 192.86476
" />
<path d="M178.45803 192.86476
L178.38660 192.72190
" />
<path d="M178.38660 192.72190
L178.38660 192.57904
" />
<path d="M178.38660 192.57904
L178.45803 192.43618
" />
<path d="M178.45803 192.43618
L178.52945 192.36476
" />
<path d="M178.52945 192.36476
L178.67231 192.29333
" />
<path d="M178.67231 192.29333
L179.02945 192.29333
" />
<path d="M179.02945 192.29333
L179.24374 192.36476
" />
<path d="M179.88660 193.79333
L179.88660 192.79333
" />
<path d="M179.88660 192.29333
L179.81517 192.36476
" />
<path d="M179.81517 192.36476
L179.88660 192.43618
" />
<path d="M179.88660 192.43618
L179.95803 192.36476
" />
<path d="M179.95803 192.36476
L179.88660 192.29333
" />
<path d="M179.88660 192.29333
L179.88660 192.43618
" />
<path d="M180.45803 192.79333
L181.24374 192.79333
" />
<path d="M181.24374 192.79333
L180.45803 193.79333
" />
<path d="M180.45803 193.79333
L181.24374 193.79333
" />
<path d="M182.38660 193.72190
L182.24374 193.79333
" />
<path d="M182.24374 193.79333
L181.95803 193.79333
" />
<path d="M181.95803 193.79333
L181.81517 193.72190
" />
<path d="M181.81517 193.72190
L181.74374 193.57904
" />
<path d="M181.74374 193.57904
L181.74374 193.00761
" />
<path d="M181.74374 193.00761
L181.81517 192.86476
" />
<path d="M181.81517 192.86476
L181.95803 192.79333
" />
<path d="M181.95803 192.79333
L182.24374 192.79333
" />
<path d="M182.24374 192.79333
L182.38660 192.86476
" />
<path d="M182.38660 192.86476
L182.45803 193.00761
" />
<path d="M182.45803 193.00761
L182.45803 193.15047
" />
<path d="M182.45803 193.15047
L181.74374 193.29333
" />
<path d="M183.10088 193.65047
L183.17231 193.72190
" />
<path d="M183.17231 193.72190
L183.10088 193.79333
" />
<path d="M183.10088 193.79333
L183.02945 193.72190
" />
<path d="M183.02945 193.72190
L183.10088 193.65047
" />
<path d="M183.10088 193.65047
L183.10088 193.79333
" />
<path d="M183.10088 192.86476
L183.17231 192.93618
" />
<path d="M183.17231 192.93618
L183.10088 193.00761
" />
<path d="M183.10088 193.00761
L183.02945 192.93618
" />
<path d="M183.02945 192.93618
L183.10088 192.86476
" />
<path d="M183.10088 192.86476
L183.10088 193.00761
" />
<path d="M184.88660 193.36476
L185.60088 193.36476
" />
<path d="M184.74374 193.79333
L185.24374 192.29333
" />
<path d="M185.24374 192.29333
L185.74374 193.79333
" />
<path d="M186.88660 192.79333
L186.88660 193.79333
" />
<path d="M186.52945 192.22190
L186.17231 193.29333
" />
<path d="M186.17231 193.29333
L187.10088 193.29333
" />
</g></g>
<g style="fill:#000000; fill-opacity:0.0; 
stroke:#000000; stroke-width:0.02120; stroke-opacity:1; 
stroke-linecap:round; stroke-linejoin:round;">
</g>
<g style="fill:#000000; fill-opacity:0.0; 
stroke:#000000; stroke-width:0.15000; stroke-opacity:1; 
stroke-linecap:round; stroke-linejoin:round;">
<text x="263.00220" y="196.65720"
textLength="8.43214" font-size="2.00000" lengthAdjust="spacingAndGlyphs"
text-anchor="start" opacity="0">Id: 1/1</text>
<g class="stroked-text"><desc>Id: 1/1</desc>
<path d="M263.45803 196.59333
L263.45803 195.09333
" />
<path d="M264.81517 196.59333
L264.81517 195.09333
" />
<path d="M264.81517 196.52190
L264.67231 196.59333
" />
<path d="M264.67231 196.59333
L264.38660 196.59333
" />
<path d="M264.38660 196.59333
L264.24374 196.52190
" />
<path d="M264.24374 196.52190
L264.17231 196.45047
" />
<path d="M264.17231 196.45047
L264.10088 196.30761
" />
<path d="M264.10088 196.30761
L264.10088 195.87904
" />
<path d="M264.10088 195.87904
L264.17231 195.73618
" />
<path d="M264.17231 195.73618
L264.24374 195.66476
" />
<path d="M264.24374 195.66476
L264.38660 195.59333
" />
<path d="M264.38660 195.59333
L264.67231 195.59333
" />
<path d="M264.67231 195.59333
L264.81517 195.66476
" />
<path d="M265.52945 196.45047
L265.60088 196.52190
" />
<path d="M265.60088 196.52190
L265.52945 196.59333
" />
<path d="M265.52945 196.59333
L265.45803 196.52190
" />
<path d="M265.45803 196.52190
L265.52945 196.45047
" />
<path d="M265.52945 196.45047
L265.52945 196.59333
" />
<path d="M265.52945 195.66476
L265.60088 195.73618
" />
<path d="M265.60088 195.73618
L265.52945 195.80761
" />
<path d="M265.52945 195.80761
L265.45803 195.73618
" />
<path d="M265.45803 195.73618
L265.52945 195.66476
" />
<path d="M265.52945 195.66476
L265.52945 195.80761
" />
<path d="M268.17231 196.59333
L267.31517 196.59333
" />
<path d="M267.74374 196.59333
L267.74374 195.09333
" />
<path d="M267.74374 195.09333
L267.60088 195.30761
" />
<path d="M267.60088 195.30761
L267.45803 195.45047
" />
<path d="M267.45803 195.45047
L267.31517 195.52190
" />
<path d="M269.88660 195.02190
L268.60088 196.95047
" />
<path d="M271.17231 196.59333
L270.31517 196.59333
" />
<path d="M270.74374 196.59333
L270.74374 195.09333
" />
<path d="M270.74374 195.09333
L270.60088 195.30761
" />
<path d="M270.60088 195.30761
L270.45803 195.45047
" />
<path d="M270.45803 195.45047
L270.31517 195.52190
" />
</g></g>
<g style="fill:#000000; fill-opacity:0.0; 
stroke:#000000; stroke-width:0.02120; stroke-opacity:1; 
stroke-linecap:round; stroke-linejoin:round;">
</g>
<g style="fill:#000000; fill-opacity:0.0; 
stroke:#000000; stroke-width:0.15000; stroke-opacity:1; 
stroke-linecap:round; stroke-linejoin:round;">
<path d="M177.00220 187.50720
L285.00220 187.50720
" />
</g>
<g style="fill:#000000; fill-opacity:0.0; 
stroke:#000000; stroke-width:0.02120; stroke-opacity:1; 
stroke-linecap:round; stroke-linejoin:round;">
</g>
<g style="fill:#000000; fill-opacity:0.0; 
stroke:#000000; stroke-width:0.40000; stroke-opacity:1; 
stroke-linecap:round; stroke-linejoin:round;">
<text x="178.00220" y="190.30720"
textLength="9.45714" font-size="2.66667" lengthAdjust="spacingAndGlyphs"
text-anchor="start" opacity="0">Title: </text>
<g class="stroked-text"><desc>Title: </desc>
<path d="M178.69393 188.21164
L179.83678 188.21164
" />
<path d="M179.01536 190.21164
L179.26536 188.21164
" />
<path d="M180.25345 190.21164
L180.42012 188.87830
" />
<path d="M180.50345 188.21164
L180.39631 188.30688
" />
<path d="M180.39631 188.30688
L180.47964 188.40211
" />
<path d="M180.47964 188.40211
L180.58679 188.30688
" />
<path d="M180.58679 188.30688
L180.50345 188.21164
" />
<path d="M180.50345 188.21164
L180.47964 188.40211
" />
<path d="M181.08679 188.87830
L181.84869 188.87830
" />
<path d="M181.45583 188.21164
L181.24155 189.92592
" />
<path d="M181.24155 189.92592
L181.31298 190.11640
" />
<path d="M181.31298 190.11640
L181.49155 190.21164
" />
<path d="M181.49155 190.21164
L181.68202 190.21164
" />
<path d="M182.63440 190.21164
L182.45583 190.11640
" />
<path d="M182.45583 190.11640
L182.38440 189.92592
" />
<path d="M182.38440 189.92592
L182.59869 188.21164
" />
<path d="M184.17012 190.11640
L183.96774 190.21164
" />
<path d="M183.96774 190.21164
L183.58678 190.21164
" />
<path d="M183.58678 190.21164
L183.40821 190.11640
" />
<path d="M183.40821 190.11640
L183.33678 189.92592
" />
<path d="M183.33678 189.92592
L183.43202 189.16402
" />
<path d="M183.43202 189.16402
L183.55107 188.97354
" />
<path d="M183.55107 188.97354
L183.75345 188.87830
" />
<path d="M183.75345 188.87830
L184.13440 188.87830
" />
<path d="M184.13440 188.87830
L184.31298 188.97354
" />
<path d="M184.31298 188.97354
L184.38440 189.16402
" />
<path d="M184.38440 189.16402
L184.36059 189.35449
" />
<path d="M184.36059 189.35449
L183.38440 189.54497
" />
<path d="M185.13440 190.02116
L185.21774 190.11640
" />
<path d="M185.21774 190.11640
L185.11059 190.21164
" />
<path d="M185.11059 190.21164
L185.02726 190.11640
" />
<path d="M185.02726 190.11640
L185.13440 190.02116
" />
<path d="M185.13440 190.02116
L185.11059 190.21164
" />
<path d="M185.26536 188.97354
L185.34869 189.06878
" />
<path d="M185.34869 189.06878
L185.24155 189.16402
" />
<path d="M185.24155 189.16402
L185.15821 189.06878
" />
<path d="M185.15821 189.06878
L185.26536 188.97354
" />
<path d="M185.26536 188.97354
L185.24155 189.16402
" />
</g></g>
<g style="fill:#000000; fill-opacity:0.0; 
stroke:#000000; stroke-width:0.02120; stroke-opacity:1; 
stroke-linecap:round; stroke-linejoin:round;">
</g>
<g style="fill:#000000; fill-opacity:0.0; 
stroke:#000000; stroke-width:0.15000; stroke-opacity:1; 
stroke-linecap:round; stroke-linejoin:round;">
<text x="178.00220" y="186.45720"
textLength="27.57500" font-size="2.00000" lengthAdjust="spacingAndGlyphs"
text-anchor="start" opacity="0">File: template.kicad_pcb</text>
<g class="stroked-text"><desc>File: template.kicad_pcb</desc>
<path d="M178.95803 185.60761
L178.45803 185.60761
" />
<path d="M178.45803 186.39333
L178.45803 184.89333
" />
<path d="M178.45803 184.89333
L179.17231 184.89333
" />
<path d="M179.74374 186.39333
L179.74374 185.39333
" />
<path d="M179.74374 184.89333
L179.67231 184.96476
" />
<path d="M179.67231 184.96476
L179.74374 185.03618
" />
<path d="M179.74374 185.03618
L179.81517 184.96476
" />
<path d="M179.81517 184.96476
L179.74374 184.89333
" />
<path d="M179.74374 184.89333
L179.74374 185.03618
" />
<path d="M180.67231 186.39333
L180.52945 186.32190
" />
<path d="M180.52945 186.32190
L180.45803 186.17904
" />
<path d="M180.45803 186.17904
L180.45803 184.89333
" />
<path d="M181.81517 186.32190
L181.67231 186.39333
" />
<path d="M181.67231 186.39333
L181.38660 186.39333
" />
<path d="M181.38660 186.39333
L181.24374 186.32190
" />
<path d="M181.24374 186.32190
L181.17231 186.17904
" />
<path d="M181.17231 186.17904
L181.17231 185.60761
" />
<path d="M181.17231 185.60761
L181.24374 185.46476
" />
<path d="M181.24374 185.46476
L181.38660 185.39333
" />
<path d="M181.38660 185.39333
L181.67231 185.39333
" />
<path d="M181.67231 185.39333
L181.81517 185.46476
" />
<path d="M181.81517 185.46476
L181.88660 185.60761
" />
<path d="M181.88660 185.60761
L181.88660 185.75047
" />
<path d="M181.88660 185.75047
L181.17231 185.89333
" />
<path d="M182.52945 186.25047
L182.60088 186.32190
" />
<path d="M182.60088 186.32190
L182.52945 186.39333
" />
<path d="M182.52945 186.39333
L182.45803 186.32190
" />
<path d="M182.45803 186.32190
L182.52945 186.25047
" />
<path d="M182.52945 186.25047
L182.52945 186.39333
" />
<path d="M182.52945 185.46476
L182.60088 185.53618
" />
<path d="M182.60088 185.53618
L182.52945 185.60761
" />
<path d="M182.52945 185.60761
L182.45803 185.53618
" />
<path d="M182.45803 185.53618
L182.52945 185.46476
" />
<path d="M182.52945 185.46476
L182.52945 185.60761
" />
<path d="M184.17231 185.39333
L184.74374 185.39333
" />
<path d="M184.38660 184.89333
L184.38660 186.17904
" />
<path d="M184.38660 186.17904
L184.45803 186.32190
" />
<path d="M184.45803 186.32190
L184.60088 186.39333
" />
<path d="M184.60088 186.39333
L184.74374 186.39333
" />
<path d="M185.81517 186.32190
L185.67231 186.39333
" />
<path d="M185.67231 186.39333
L185.38660 186.39333
" />
<path d="M185.38660 186.39333
L185.24374 186.32190
" />
<path d="M185.24374 186.32190
L185.17231 186.17904
" />
<path d="M185.17231 186.17904
L185.17231 185.60761
" />
<path d="M185.17231 185.60761
L185.24374 185.46476
" />
<path d="M185.24374 185.46476
L185.38660 185.39333
" />
<path d="M185.38660 185.39333
L185.67231 185.39333
" />
<path d="M185.67231 185.39333
L185.81517 185.46476
" />
<path d="M185.81517 185.46476
L185.88660 185.60761
" />
<path d="M185.88660 185.60761
L185.88660 185.75047
" />
<path d="M185.88660 185.75047
L185.17231 185.89333
" />
<path d="M186.52945 186.39333
L186.52945 185.39333
" />
<path d="M186.52945 185.53618
L186.60088 185.46476
" />
<path d="M186.60088 185.46476
L186.74374 185.39333
" />
<path d="M186.74374 185.39333
L186.95803 185.39333
" />
<path d="M186.95803 185.39333
L187.10088 185.46476
" />
<path d="M187.10088 185.46476
L187.17231 185.60761
" />
<path d="M187.17231 185.60761
L187.17231 186.39333
" />
<path d="M187.17231 185.60761
L187.24374 185.46476
" />
<path d="M187.24374 185.46476
L187.38660 185.39333
" />
<path d="M187.38660 185.39333
L187.60088 185.39333
" />
<path d="M187.60088 185.39333
L187.74374 185.46476
" />
<path d="M187.74374 185.46476
L187.81517 185.60761
" />
<path d="M187.81517 185.60761
L187.81517 186.39333
" />
<path d="M188.52945 185.39333
L188.52945 186.89333
" />
<path d="M188.52945 185.46476
L188.67231 185.39333
" />
<path d="M188.67231 185.39333
L188.95803 185.39333
" />
<path d="M188.95803 185.39333
L189.10088 185.46476
" />
<path d="M189.10088 185.46476
L189.17231 185.53618
" />
<path d="M189.17231 185.53618
L189.24374 185.67904
" />
<path d="M189.24374 185.67904
L189.24374 186.10761
" />
<path d="M189.24374 186.10761
L189.17231 186.25047
" />
<path d="M189.17231 186.25047
L189.10088 186.32190
" />
<path d="M189.10088 186.32190
L188.95803 186.39333
" />
<path d="M188.95803 186.39333
L188.67231 186.39333
" />
<path d="M188.67231 186.39333
L188.52945 186.32190
" />
<path d="M190.10088 186.39333
L189.95803 186.32190
" />
<path d="M189.95803 186.32190
L189.88660 186.17904
" />
<path d="M189.88660 186.17904
L189.88660 184.89333
" />
<path d="M191.31517 186.39333
L191.31517 185.60761
" />
<path d="M191.31517 185.60761
L191.24374 185.46476
" />
<path d="M191.24374 185.46476
L191.10088 185.39333
" />
<path d="M191.10088 185.39333
L190.81517 185.39333
" />
<path d="M190.81517 185.39333
L190.67231 185.46476
" />
<path d="M191.31517 186.32190
L191.17231 186.39333
" />
<path d="M191.17231 186.39333
L190.81517 186.39333
" />
<path d="M190.81517 186.39333
L190.67231 186.32190
" />
<path d="M190.67231 186.32190
L190.60088 186.17904
" />
<path d="M190.60088 186.17904
L190.60088 186.03618
" />
<path d="M190.60088 186.03618
L190.67231 185.89333
" />
<path d="M190.67231 185.89333
L190.81517 185.82190
" />
<path d="M190.81517 185.82190
L191.17231 185.82190
" />
<path d="M191.17231 185.82190
L191.31517 185.75047
" />
<path d="M191.81517 185.39333
L192.38660 185.39333
" />
<path d="M192.02945 184.89333
L192.02945 186.17904
" />
<path d="M192.02945 186.17904
L192.10088 186.32190
" />
<path d="M192.10088 186.32190
L192.24374 186.39333
" />
<path d="M192.24374 186.39333
L192.38660 186.39333
" />
<path d="M193.45803 186.32190
L193.31517 186.39333
" />
<path d="M193.31517 186.39333
L193.02945 186.39333
" />
<path d="M193.02945 186.39333
L192.88660 186.32190
" />
<path d="M192.88660 186.32190
L192.81517 186.17904
" />
<path d="M192.81517 186.17904
L192.81517 185.60761
" />
<path d="M192.81517 185.60761
L192.88660 185.46476
" />
<path d="M192.88660 185.46476
L193.02945 185.39333
" />
<path d="M193.02945 185.39333
L193.31517 185.39333
" />
<path d="M193.31517 185.39333
L193.45803 185.46476
" />
<path d="M193.45803 185.46476
L193.52945 185.60761
" />
<path d="M193.52945 185.60761
L193.52945 185.75047
" />
<path d="M193.52945 185.75047
L192.81517 185.89333
" />
<path d="M194.17231 186.25047
L194.24374 186.32190
" />
<path d="M194.24374 186.32190
L194.17231 186.39333
" />
<path d="M194.17231 186.39333
L194.10088 186.32190
" />
<path d="M194.10088 186.32190
L194.17231 186.25047
" />
<path d="M194.17231 186.25047
L194.17231 186.39333
" />
<path d="M194.88660 186.39333
L194.88660 184.89333
" />
<path d="M195.02945 185.82190
L195.45803 186.39333
" />
<path d="M195.45803 185.39333
L194.88660 185.96476
" />
<path d="M196.10088 186.39333
L196.10088 185.39333
" />
<path d="M196.10088 184.89333
L196.02945 184.96476
" />
<path d="M196.02945 184.96476
L196.10088 185.03618
" />
<path d="M196.10088 185.03618
L196.17231 184.96476
" />
<path d="M196.17231 184.96476
L196.10088 184.89333
" />
<path d="M196.10088 184.89333
L196.10088 185.03618
" />
<path d="M197.45803 186.32190
L197.31517 186.39333
" />
<path d="M197.31517 186.39333
L197.02945 186.39333
" />
<path d="M197.02945 186.39333
L196.88660 186.32190
" />
<path d="M196.88660 186.32190
L196.81517 186.25047
" />
<path d="M196.81517 186.25047
L196.74374 186.10761
" />
<path d="M196.74374 186.10761
L196.74374 185.67904
" />
<path d="M196.74374 185.67904
L196.81517 185.53618
" />
<path d="M196.81517 185.53618
L196.88660 185.46476
" />
<path d="M196.88660 185.46476
L197.02945 185.39333
" />
<path d="M197.02945 185.39333
L197.31517 185.39333
" />
<path d="M197.31517 185.39333
L197.45803 185.46476
" />
<path d="M198.74374 186.39333
L198.74374 185.60761
" />
<path d="M198.74374 185.60761
L198.67231 185.46476
" />
<path d="M198.67231 185.46476
L198.52945 185.39333
" />
<path d="M198.52945 185.39333
L198.24374 185.39333
" />
<path d="M198.24374 185.39333
L198.10088 185.46476
" />
<path d="M198.74374 186.32190
L198.60088 186.39333
" />
<path d="M198.60088 186.39333
L198.24374 186.39333
" />
<path d="M198.24374 186.39333
L198.10088 186.32190
" />
<path d="M198.10088 186.32190
L198.02945 186.17904
" />
<path d="M198.02945 186.17904
L198.02945 186.03618
" />
<path d="M198.02945 186.03618
L198.10088 185.89333
" />
<path d="M198.10088 185.89333
L198.24374 185.82190
" />
<path d="M198.24374 185.82190
L198.60088 185.82190
" />
<path d="M198.60088 185.82190
L198.74374 185.75047
" />
<path d="M200.10088 186.39333
L200.10088 184.89333
" />
<path d="M200.10088 186.32190
L199.95803 186.39333
" />
<path d="M199.95803 186.39333
L199.67231 186.39333
" />
<path d="M199.67231 186.39333
L199.52945 186.32190
" />
<path d="M199.52945 186.32190
L199.45803 186.25047
" />
<path d="M199.45803 186.25047
L199.38660 186.10761
" />
<path d="M199.38660 186.10761
L199.38660 185.67904
" />
<path d="M199.38660 185.67904
L199.45803 185.53618
" />
<path d="M199.45803 185.53618
L199.52945 185.46476
" />
<path d="M199.52945 185.46476
L199.67231 185.39333
" />
<path d="M199.67231 185.39333
L199.95803 185.39333
" />
<path d="M199.95803 185.39333
L200.10088 185.46476
" />
<path d="M200.45803 186.53618
L201.60088 186.53618
" />
<path d="M201.95803 185.39333
L201.95803 186.89333
" />
<path d="M201.95803 185.46476
L202.10088 185.39333
" />
<path d="M202.10088 185.39333
L202.38660 185.39333
" />
<path d="M202.38660 185.39333
L202.52945 185.46476
" />
<path d="M202.52945 185.46476
L202.60088 185.53618
" />
<path d="M202.60088 185.53618
L202.67231 185.67904
" />
<path d="M202.67231 185.67904
L202.67231 186.10761
" />
<path d="M202.67231 186.10761
L202.60088 186.25047
" />
<path d="M202.60088 186.25047
L202.52945 186.32190
" />
<path d="M202.52945 186.32190
L202.38660 186.39333
" />
<path d="M202.38660 186.39333
L202.10088 186.39333
" />
<path d="M202.10088 186.39333
L201.95803 186.32190
" />
<path d="M203.95803 186.32190
L203.81517 186.39333
" />
<path d="M203.81517 186.39333
L203.52945 186.39333
" />
<path d="M203.52945 186.39333
L203.38660 186.32190
" />
<path d="M203.38660 186.32190
L203.31517 186.25047
" />
<path d="M203.31517 186.25047
L203.24374 186.10761
" />
<path d="M203.24374 186.10761
L203.24374 185.67904
" />
<path d="M203.24374 185.67904
L203.31517 185.53618
" />
<path d="M203.31517 185.53618
L203.38660 185.46476
" />
<path d="M203.38660 185.46476
L203.52945 185.39333
" />
<path d="M203.52945 185.39333
L203.81517 185.39333
" />
<path d="M203.81517 185.39333
L203.95803 185.46476
" />
<path d="M204.60088 186.39333
L204.60088 184.89333
" />
<path d="M204.60088 185.46476
L204.74374 185.39333
" />
<path d="M204.74374 185.39333
L205.02945 185.39333
" />
<path d="M205.02945 185.39333
L205.17231 185.46476
" />
<path d="M205.17231 185.46476
L205.24374 185.53618
" />
<path d="M205.24374 185.53618
L205.31517 185.67904
" />
<path d="M205.31517 185.67904
L205.31517 186.10761
" />
<path d="M205.31517 186.10761
L205.24374 186.25047
" />
<path d="M205.24374 186.25047
L205.17231 186.32190
" />
<path d="M205.17231 186.32190
L205.02945 186.39333
" />
<path d="M205.02945 186.39333
L204.74374 186.39333
" />
<path d="M204.74374 186.39333
L204.60088 186.32190
" />
</g></g>
<g style="fill:#000000; fill-opacity:0.0; 
stroke:#000000; stroke-width:0.02120; stroke-opacity:1; 
stroke-linecap:round; stroke-linejoin:round;">
</g>
<g style="fill:#000000; fill-opacity:0.0; 
stroke:#000000; stroke-width:0.15000; stroke-opacity:1; 
stroke-linecap:round; stroke-linejoin:round;">
<path d="M177.00220 181.50720
L285.00220 181.50720
" />
</g>
<g style="fill:#000000; fill-opacity:0.0; 
stroke:#000000; stroke-width:0.02120; stroke-opacity:1; 
stroke-linecap:round; stroke-linejoin:round;">
</g>
<g style="fill:#000000; fill-opacity:0.0; 
stroke:#000000; stroke-width:0.15000; stroke-opacity:1; 
stroke-linecap:round; stroke-linejoin:round;">
<text x="178.00220" y="183.75720"
textLength="8.14643" font-size="2.00000" lengthAdjust="spacingAndGlyphs"
text-anchor="start" opacity="0">Sheet: </text>
<g class="stroked-text"><desc>Sheet: </desc>
<path d="M178.38660 183.62190
L178.60088 183.69333
" />
<path d="M178.60088 183.69333
L178.95803 183.69333
" />
<path d="M178.95803 183.69333
L179.10088 183.62190
" />
<path d="M179.10088 183.62190
L179.17231 183.55047
" />
<path d="M179.17231 183.55047
L179.24374 183.40761
" />
<path d="M179.24374 183.40761
L179.24374 183.26476
" />
<path d="M179.24374 183.26476
L179.17231 183.12190
" />
<path d="M179.17231 183.12190
L179.10088 183.05047
" />
<path d="M179.10088 183.05047
L178.95803 182.97904
" />
<path d="M178.95803 182.97904
L178.67231 182.90761
" />
<path d="M178.67231 182.90761
L178.52945 182.83619
" />
<path d="M178.52945 182.83619
L178.45803 182.76476
" />
<path d="M178.45803 182.76476
L178.38660 182.62190
" />
<path d="M178.38660 182.62190
L178.38660 182.47904
" />
<path d="M178.38660 182.47904
L178.45803 182.33619
" />
<path d="M178.45803 182.33619
L178.52945 182.26476
" />
<path d="M178.52945 182.26476
L178.67231 182.19333
" />
<path d="M178.67231 182.19333
L179.02945 182.19333
" />
<path d="M179.02945 182.19333
L179.24374 182.26476
" />
<path d="M179.88660 183.69333
L179.88660 182.19333
" />
<path d="M180.52945 183.69333
L180.52945 182.90761
" />
<path d="M180.52945 182.90761
L180.45803 182.76476
" />
<path d="M180.45803 182.76476
L180.31517 182.69333
" />
<path d="M180.31517 182.69333
L180.10088 182.69333
" />
<path d="M180.10088 182.69333
L179.95803 182.76476
" />
<path d="M179.95803 182.76476
L179.88660 182.83619
" />
<path d="M181.81517 183.62190
L181.67231 183.69333
" />
<path d="M181.67231 183.69333
L181.38660 183.69333
" />
<path d="M181.38660 183.69333
L181.24374 183.62190
" />
<path d="M181.24374 183.62190
L181.17231 183.47904
" />
<path d="M181.17231 183.47904
L181.17231 182.90761
" />
<path d="M181.17231 182.90761
L181.24374 182.76476
" />
<path d="M181.24374 182.76476
L181.38660 182.69333
" />
<path d="M181.38660 182.69333
L181.67231 182.69333
" />
<path d="M181.67231 182.69333
L181.81517 182.76476
" />
<path d="M181.81517 182.76476
L181.88660 182.90761
" />
<path d="M181.88660 182.90761
L181.88660 183.05047
" />
<path d="M181.88660 183.05047
L181.17231 183.19333
" />
<path d="M183.10088 183.62190
L182.95803 183.69333
" />
<path d="M182.95803 183.69333
L182.67231 183.69333
" />
<path d="M182.67231 183.69333
L182.52945 183.62190
" />
<path d="M182.52945 183.62190
L182.45803 183.47904
" />
<path d="M182.45803 183.47904
L182.45803 182.90761
" />
<path d="M182.45803 182.90761
L182.52945 182.76476
" />
<path d="M182.52945 182.76476
L182.67231 182.69333
" />
<path d="M182.67231 182.69333
L182.95803 182.69333
" />
<path d="M182.95803 182.69333
L183.10088 182.76476
" />
<path d="M183.10088 182.76476
L183.17231 182.90761
" />
<path d="M183.17231 182.90761
L183.17231 183.05047
" />
<path d="M183.17231 183.05047
L182.45803 183.19333
" />
<path d="M183.60088 182.69333
L184.17231 182.69333
" />
<path d="M183.81517 182.19333
L183.81517 183.47904
" />
<path d="M183.81517 183.47904
L183.88660 183.62190
" />
<path d="M183.88660 183.62190
L184.02945 183.69333
" />
<path d="M184.02945 183.69333
L184.17231 183.69333
" />
<path d="M184.67231 183.55047
L184.74374 183.62190
" />
<path d="M184.74374 183.62190
L184.67231 183.69333
" />
<path d="M184.67231 183.69333
L184.60088 183.62190
" />
<path d="M184.60088 183.62190
L184.67231 183.55047
" />
<path d="M184.67231 183.55047
L184.67231 183.69333
" />
<path d="M184.67231 182.76476
L184.74374 182.83619
" />
<path d="M184.74374 182.83619
L184.67231 182.90761
" />
<path d="M184.67231 182.90761
L184.60088 182.83619
" />
<path d="M184.60088 182.83619
L184.67231 182.76476
" />
<path d="M184.67231 182.76476
L184.67231 182.90761
" />
</g></g>
<g style="fill:#000000; fill-opacity:0.0; 
stroke:#000000; stroke-width:0.02120; stroke-opacity:1; 
stroke-linecap:round; stroke-linejoin:round;">
</g>
<g style="fill:#000000; fill-opacity:0.0; 
stroke:#000000; stroke-width:0.30000; stroke-opacity:1; 
stroke-linecap:round; stroke-linejoin:round;">
<text x="178.00220" y="180.75720"
textLength="0.75000" font-size="2.00000" lengthAdjust="spacingAndGlyphs"
text-anchor="start" opacity="0"></text>
<g class="stroked-text"><desc></desc>
</g></g>
<g style="fill:#000000; fill-opacity:0.0; 
stroke:#000000; stroke-width:0.02120; stroke-opacity:1; 
stroke-linecap:round; stroke-linejoin:round;">
</g>
<g style="fill:#000000; fill-opacity:0.0; 
stroke:#000000; stroke-width:0.15000; stroke-opacity:1; 
stroke-linecap:round; stroke-linejoin:round;">
<text x="178.00220" y="177.75720"
textLength="0.37500" font-size="2.00000" lengthAdjust="spacingAndGlyphs"
text-anchor="start" opacity="0"></text>
<g class="stroked-text"><desc></desc>
</g></g>
<g style="fill:#000000; fill-opacity:0.0; 
stroke:#000000; stroke-width:0.02120; stroke-opacity:1; 
stroke-linecap:round; stroke-linejoin:round;">
</g>
<g style="fill:#000000; fill-opacity:0.0; 
stroke:#000000; stroke-width:0.15000; stroke-opacity:1; 
stroke-linecap:round; stroke-linejoin:round;">
<text x="178.00220" y="174.75720"
textLength="0.37500" font-size="2.00000" lengthAdjust="spacingAndGlyphs"
text-anchor="start" opacity="0"></text>
<g class="stroked-text"><desc></desc>
</g></g>
<g style="fill:#000000; fill-opacity:0.0; 
stroke:#000000; stroke-width:0.02120; stroke-opacity:1; 
stroke-linecap:round; stroke-linejoin:round;">
</g>
<g style="fill:#000000; fill-opacity:0.0; 
stroke:#000000; stroke-width:0.15000; stroke-opacity:1; 
stroke-linecap:round; stroke-linejoin:round;">
<text x="178.00220" y="171.75720"
textLength="0.37500" font-size="2.00000" lengthAdjust="spacingAndGlyphs"
text-anchor="start" opacity="0"></text>
<g class="stroked-text"><desc></desc>
</g></g>
<g style="fill:#000000; fill-opacity:0.0; 
stroke:#000000; stroke-width:0.02120; stroke-opacity:1; 
stroke-linecap:round; stroke-linejoin:round;">
</g>
<g style="fill:#000000; fill-opacity:0.0; 
stroke:#000000; stroke-width:0.15000; stroke-opacity:1; 
stroke-linecap:round; stroke-linejoin:round;">
<text x="178.00220" y="168.75720"
textLength="0.37500" font-size="2.00000" lengthAdjust="spacingAndGlyphs"
text-anchor="start" opacity="0"></text>
<g class="stroked-text"><desc></desc>
</g></g>
<g style="fill:#000000; fill-opacity:0.0; 
stroke:#000000; stroke-width:0.02120; stroke-opacity:1; 
stroke-linecap:round; stroke-linejoin:round;">
</g>
<g style="fill:#000000; fill-opacity:0.0; 
stroke:#000000; stroke-width:0.15000; stroke-opacity:1; 
stroke-linecap:round; stroke-linejoin:round;">
<path d="M197.00220 191.50720
L197.00220 194.50720
" />
</g>
<g style="fill:#000000; fill-opacity:0.0; 
stroke:#000000; stroke-width:0.02120; stroke-opacity:1; 
stroke-linecap:round; stroke-linejoin:round;">
</g>
<g style="fill:#000000; fill-opacity:0.0; 
stroke:#000000; stroke-width:0.15000; stroke-opacity:1; 
stroke-linecap:round; stroke-linejoin:round;">
<path d="M261.00220 191.50720
L261.00220 198.00720
" />
</g>
<g style="fill:#000000; fill-opacity:0.0; 
stroke:#000000; stroke-width:0.10000; stroke-opacity:1; 
stroke-linecap:round; stroke-linejoin:round;">
<path d="M205.00000 128.00000
L100.00000 128.00000
" />
<path d="M100.00000 128.00000
L100.00000 53.00000
" />
<path d="M100.00000 53.00000
L205.00000 53.00000
" />
<path d="M205.00000 53.00000
L205.00000 128.00000
" />
<g >
</g>
<g >
</g>
<g >
</g>
<g >
</g>
<g >
</g>
<g >
</g>
<g >
</g>
<g >
</g>
<g >
</g>
<g >
</g>
<g >
</g>
<g >
</g>
<g >
</g>
<g >
</g>
<g >
</g>
<g >
</g>
<g >
</g>
<g >
</g>
<g >
</g>
<g >
</g>
<g >
</g>
<g >
</g>
<g >
</g>
<g >
</g>
<g >
</g>
<g >
</g>
<g >
</g>
<g >
</g>
<g >
</g>
<g >
</g>
<g >
</g>
<g >
</g>
<g >
</g>
<g >
</g>
<g >
</g>
<g >
</g>
<g >
</g>
<g >
</g>
<g >
</g>
<g >
</g>
<g >
</g>
<g >
</g>
<g >
</g>
<g >
</g>
<g >
</g>
<g >
</g>
<g >
</g>
<g >
</g>
<g >
</g>
<g >
</g>
<g >
</g>
<g >
</g>
<g >
</g>
<g >
</g>
<g >
</g>
<g >
</g>
<g >
</g>
<g >
</g>
<g >
</g>
<g >
</g>
<g >
</g>
<g >
</g>
<g >
</g>
<g >
</g>
<g >
</g>
<g >
</g>
<g >
</g>
<g >
</g>
<g >
</g>
<g >
</g>
<g >
</g>
<g >
</g>
<g >
</g>
<g >
</g>
<g >
</g>
<g >
</g>
<g >
</g>
<g >
</g>
<g >
</g>
<g >
</g>
<g >
</g>
<g >
</g>
<g >
</g>
<g >
</g>
<g >
</g>
</g>
<g style="fill:#000000; fill-opacity:0.0; 
stroke:#000000; stroke-width:0.10000; stroke-opacity:1; 
stroke-linecap:round; stroke-linejoin:round;">
</g>
<g style="fill:#000000; fill-opacity:0.0; 
stroke:#000000; stroke-width:0.05000; stroke-opacity:1; 
stroke-linecap:round; stroke-linejoin:round;">
<path d="M139.49000 101.37800
L142.45000 101.37800
" />
<path d="M139.49000 102.83800
L139.49000 101.37800
" />
<path d="M142.45000 101.37800
L142.45000 102.83800
" />
<path d="M142.45000 102.83800
L139.49000 102.83800
" />
<path d="M137.08200 106.64400
L133.68200 106.64400
" />
<path d="M137.08200 104.68400
L137.08200 106.64400
" />
<path d="M133.68200 106.64400
L133.68200 104.68400
" />
<path d="M133.68200 104.68400
L137.08200 104.68400
" />
<path d="M138.29600 111.77400
L138.29600 107.17400
" />
<path d="M140.59600 111.77400
L138.29600 111.77400
" />
<path d="M138.29600 107.17400
L140.59600 107.17400
" />
<path d="M140.59600 107.17400
L140.59600 111.77400
" />
<path d="M108.93400 121.96400
L108.93400 124.92400
" />
<path d="M107.47400 121.96400
L108.93400 121.96400
" />
<path d="M108.93400 124.92400
L107.47400 124.92400
" />
<path d="M107.47400 124.92400
L107.47400 121.96400
" />
<path d="M111.22000 121.96400
L111.22000 124.92400
" />
<path d="M109.76000 121.96400
L111.22000 121.96400
" />
<path d="M111.22000 124.92400
L109.76000 124.92400
" />
<path d="M109.76000 124.92400
L109.76000 121.96400
" />
<path d="M193.26200 121.71000
L193.26200 124.67000
" />
<path d="M191.80200 121.71000
L193.26200 121.71000
" />
<path d="M193.26200 124.67000
L191.80200 124.67000
" />
<path d="M191.80200 124.67000
L191.80200 121.71000
" />
<path d="M204.59700 89.40800
L204.59700 93.96800
" />
<path d="M203.07300 89.41400
L204.59700 89.40800
" />
<path d="M203.07300 93.97400
L203.07300 89.41400
" />
<path d="M204.59700 93.98000
L203.07300 93.97400
" />
<path d="M204.59700 94.61500
L204.59700 99.17500
" />
<path d="M203.07300 94.62100
L204.59700 94.61500
" />
<path d="M203.07300 99.18100
L203.07300 94.62100
" />
<path d="M204.59700 99.18700
L203.07300 99.18100
" />
<path d="M137.66800 111.76000
L137.66800 107.18800
" />
<path d="M137.66800 107.18800
L133.09600 107.18800
" />
<path d="M133.09600 111.76000
L137.66800 111.76000
" />
<path d="M133.09600 107.18800
L133.09600 111.76000
" />
<path d="M148.18000 101.92000
L151.54000 101.92000
" />
<path d="M148.18000 103.82000
L148.18000 101.92000
" />
<path d="M151.54000 101.92000
L151.54000 103.82000
" />
<path d="M151.54000 103.82000
L148.18000 103.82000
" />
<path d="M142.45000 106.64800
L139.49000 106.64800
" />
<path d="M142.45000 105.18800
L142.45000 106.64800
" />
<path d="M139.49000 106.64800
L139.49000 105.18800
" />
<path d="M139.49000 105.18800
L142.45000 105.18800
" />
<path d="M142.45000 104.74300
L139.49000 104.74300
" />
<path d="M142.45000 103.28300
L142.45000 104.74300
" />
<path d="M139.49000 104.74300
L139.49000 103.28300
" />
<path d="M139.49000 103.28300
L142.45000 103.28300
" />
<path d="M196.89400 97.06000
L199.85400 97.06000
" />
<path d="M196.89400 98.52000
L196.89400 97.06000
" />
<path d="M199.85400 97.06000
L199.85400 98.52000
" />
<path d="M199.85400 98.52000
L196.89400 98.52000
" />
<path d="M196.89400 99.09200
L199.85400 99.09200
" />
<path d="M196.89400 100.55200
L196.89400 99.09200
" />
<path d="M199.85400 99.09200
L199.85400 100.55200
" />
<path d="M199.85400 100.55200
L196.89400 100.55200
" />
<path d="M147.47900 126.10000
L147.47900 123.14000
" />
<path d="M148.93900 126.10000
L147.47900 126.10000
" />
<path d="M147.47900 123.14000
L148.93900 123.14000
" />
<path d="M148.93900 123.14000
L148.93900 126.10000
" />
<path d="M122.99600 93.76600
L122.99600 95.01600
" />
<path d="M122.99600 93.76600
L123.94600 93.76600
" />
<path d="M122.99600 95.01600
L123.94600 95.01600
" />
<path d="M122.99600 97.51600
L123.94600 97.51600
" />
<path d="M122.99600 98.76600
L122.99600 97.51600
" />
<path d="M122.99600 98.76600
L123.94600 98.76600
" />
<path d="M123.94600 93.46600
L123.94600 93.76600
" />
<path d="M123.94600 95.01600
L123.94600 97.51600
" />
<path d="M123.94600 99.06600
L123.94600 98.76600
" />
<path d="M123.94600 99.06600
L129.54600 99.06600
" />
<path d="M129.54600 93.46600
L123.94600 93.46600
" />
<path d="M129.54600 93.46600
L129.54600 93.76600
" />
<path d="M129.54600 95.01600
L129.54600 97.51600
" />
<path d="M129.54600 99.06600
L129.54600 98.76600
" />
<path d="M130.49600 93.76600
L129.54600 93.76600
" />
<path d="M130.49600 93.76600
L130.49600 95.01600
" />
<path d="M130.49600 95.01600
L129.54600 95.01600
" />
<path d="M130.49600 97.51600
L129.54600 97.51600
" />
<path d="M130.49600 98.76600
L129.54600 98.76600
" />
<path d="M130.49600 98.76600
L130.49600 97.51600
" />
<path d="M150.84400 110.03900
L150.84400 112.99900
" />
<path d="M149.38400 110.03900
L150.84400 110.03900
" />
<path d="M150.84400 112.99900
L149.38400 112.99900
" />
<path d="M149.38400 112.99900
L149.38400 110.03900
" />
<path d="M144.74800 105.69500
L144.74800 108.65500
" />
<path d="M143.28800 105.69500
L144.74800 105.69500
" />
<path d="M144.74800 108.65500
L143.28800 108.65500
" />
<path d="M143.28800 108.65500
L143.28800 105.69500
" />
<path d="M122.14200 121.96400
L122.14200 124.92400
" />
<path d="M120.68200 121.96400
L122.14200 121.96400
" />
<path d="M122.14200 124.92400
L120.68200 124.92400
" />
<path d="M120.68200 124.92400
L120.68200 121.96400
" />
<path d="M124.17400 121.96400
L124.17400 124.92400
" />
<path d="M122.71400 121.96400
L124.17400 121.96400
" />
<path d="M124.17400 124.92400
L122.71400 124.92400
" />
<path d="M122.71400 124.92400
L122.71400 121.96400
" />
<path d="M137.43200 104.57000
L137.43200 101.17000
" />
<path d="M137.43200 101.17000
L133.33200 101.17000
" />
<path d="M133.33200 104.57000
L137.43200 104.57000
" />
<path d="M133.33200 101.17000
L133.33200 104.57000
" />
<path d="M145.32000 108.66800
L145.32000 105.70800
" />
<path d="M146.78000 108.66800
L145.32000 108.66800
" />
<path d="M145.32000 105.70800
L146.78000 105.70800
" />
<path d="M146.78000 105.70800
L146.78000 108.66800
" />
<path d="M100.25500 121.00200
L132.15500 121.00200
" />
<path d="M132.15500 121.00200
L132.15500 101.50200
" />
<path d="M100.25500 101.50200
L100.25500 121.00200
" />
<path d="M132.15500 101.50200
L100.25500 101.50200
" />
<path d="M115.79200 121.96400
L115.79200 124.92400
" />
<path d="M114.33200 121.96400
L115.79200 121.96400
" />
<path d="M115.79200 124.92400
L114.33200 124.92400
" />
<path d="M114.33200 124.92400
L114.33200 121.96400
" />
<path d="M112.04600 124.92400
L112.04600 121.96400
" />
<path d="M113.50600 124.92400
L112.04600 124.92400
" />
<path d="M112.04600 121.96400
L113.50600 121.96400
" />
<path d="M113.50600 121.96400
L113.50600 124.92400
" />
<path d="M116.66400 121.95600
L120.06400 121.95600
" />
<path d="M116.66400 123.91600
L116.66400 121.95600
" />
<path d="M120.06400 121.95600
L120.06400 123.91600
" />
<path d="M120.06400 123.91600
L116.66400 123.91600
" />
<path d="M151.41600 118.35300
L151.41600 115.39300
" />
<path d="M152.87600 118.35300
L151.41600 118.35300
" />
<path d="M151.41600 115.39300
L152.87600 115.39300
" />
<path d="M152.87600 115.39300
L152.87600 118.35300
" />
<path d="M162.59000 98.76200
L162.59000 95.80200
" />
<path d="M164.05000 98.76200
L162.59000 98.76200
" />
<path d="M162.59000 95.80200
L164.05000 95.80200
" />
<path d="M164.05000 95.80200
L164.05000 98.76200
" />
<path d="M137.19200 122.38400
L137.19200 119.42400
" />
<path d="M138.65200 122.38400
L137.19200 122.38400
" />
<path d="M137.19200 119.42400
L138.65200 119.42400
" />
<path d="M138.65200 119.42400
L138.65200 122.38400
" />
<circle cx="103.44150" cy="56.45150" r="3.05000" /> 
<path d="M157.38700 100.06300
L155.28700 100.06300
" />
<path d="M155.28700 100.06300
L155.28700 101.11300
" />
<path d="M158.08700 101.11300
L157.38700 101.11300
" />
<path d="M158.08700 101.11300
L159.23700 102.26300
" />
<path d="M157.38700 101.11300
L157.38700 100.06300
" />
<path d="M155.28700 101.11300
L154.58700 101.11300
" />
<path d="M154.58700 101.11300
L153.43700 102.26300
" />
<path d="M159.23700 102.26300
L159.23700 106.91300
" />
<path d="M153.43700 102.26300
L153.43700 106.91300
" />
<path d="M159.23700 106.91300
L157.38700 106.91300
" />
<path d="M157.38700 106.91300
L157.38700 107.96300
" />
<path d="M155.28700 106.91300
L153.43700 106.91300
" />
<path d="M157.38700 107.96300
L155.28700 107.96300
" />
<path d="M155.28700 107.96300
L155.28700 106.91300
" />
<path d="M144.69450 109.50200
L144.69450 113.00200
" />
<path d="M142.99450 109.50200
L144.69450 109.50200
" />
<path d="M144.69450 113.00200
L142.99450 113.00200
" />
<path d="M142.99450 113.00200
L142.99450 109.50200
" />
<path d="M142.46200 110.02600
L142.46200 112.98600
" />
<path d="M141.00200 110.02600
L142.46200 110.02600
" />
<path d="M142.46200 112.98600
L141.00200 112.98600
" />
<path d="M141.00200 112.98600
L141.00200 110.02600
" />
<path d="M145.28433 112.97300
L145.28433 110.01300
" />
<path d="M146.74433 112.97300
L145.28433 112.97300
" />
<path d="M145.28433 110.01300
L146.74433 110.01300
" />
<path d="M146.74433 110.01300
L146.74433 112.97300
" />
<path d="M179.21100 100.08300
L174.61100 100.08300
" />
<path d="M179.21100 97.78300
L179.21100 100.08300
" />
<path d="M174.61100 100.08300
L174.61100 97.78300
" />
<path d="M174.61100 97.78300
L179.21100 97.78300
" />
<path d="M147.51200 121.87800
L147.51200 115.67800
" />
<path d="M147.51200 115.67800
L141.31200 115.67800
" />
<path d="M141.31200 121.87800
L147.51200 121.87800
" />
<path d="M141.31200 115.67800
L141.31200 121.87800
" />
<path d="M133.89000 125.59200
L133.89000 122.63200
" />
<path d="M135.35000 125.59200
L133.89000 125.59200
" />
<path d="M133.89000 122.63200
L135.35000 122.63200
" />
<path d="M135.35000 122.63200
L135.35000 125.59200
" />
<path d="M191.46000 101.06400
L184.46000 101.06400
" />
<path d="M191.46000 97.56400
L191.46000 101.06400
" />
<path d="M184.46000 101.06400
L184.46000 97.56400
" />
<path d="M184.46000 97.56400
L191.46000 97.56400
" />
<path d="M112.01800 81.79050
L122.67800 81.79050
" />
<path d="M112.01800 89.15050
L112.01800 81.79050
" />
<path d="M122.67800 81.79050
L122.67800 89.15050
" />
<path d="M122.67800 89.15050
L112.01800 89.15050
" />
<path d="M152.87600 119.17800
L152.87600 122.13800
" />
<path d="M151.41600 119.17800
L152.87600 119.17800
" />
<path d="M152.87600 122.13800
L151.41600 122.13800
" />
<path d="M151.41600 122.13800
L151.41600 119.17800
" />
<path d="M155.23800 115.60200
L158.19800 115.60200
" />
<path d="M155.23800 117.06200
L155.23800 115.60200
" />
<path d="M158.19800 115.60200
L158.19800 117.06200
" />
<path d="M158.19800 117.06200
L155.23800 117.06200
" />
<path d="M146.55775 123.12700
L146.55775 126.08700
" />
<path d="M145.09775 123.12700
L146.55775 123.12700
" />
<path d="M146.55775 126.08700
L145.09775 126.08700
" />
<path d="M145.09775 126.08700
L145.09775 123.12700
" />
<path d="M139.41400 123.14000
L139.41400 126.10000
" />
<path d="M137.95400 123.14000
L139.41400 123.14000
" />
<path d="M139.41400 126.10000
L137.95400 126.10000
" />
<path d="M137.95400 126.10000
L137.95400 123.14000
" />
<circle cx="103.44150" cy="124.58700" r="3.05000" /> 
<path d="M147.51400 109.02600
L152.71400 109.02600
" />
<path d="M152.71400 109.02600
L152.71400 103.82600
" />
<path d="M147.51400 103.82600
L147.51400 109.02600
" />
<path d="M152.71400 103.82600
L147.51400 103.82600
" />
<path d="M136.34100 91.83600
L155.25100 91.83600
" />
<path d="M136.34100 100.83800
L136.34100 91.83600
" />
<path d="M155.25100 91.83600
L155.25100 100.83800
" />
<path d="M155.25100 100.83800
L136.34100 100.83800
" />
<path d="M181.17200 107.50580
L181.17200 102.80580
" />
<path d="M183.57200 107.50580
L181.17200 107.50580
" />
<path d="M181.17200 102.80580
L183.57200 102.80580
" />
<path d="M183.57200 102.80580
L183.57200 107.50580
" />
<path d="M138.65200 115.10600
L138.65200 118.06600
" />
<path d="M137.19200 115.10600
L138.65200 115.10600
" />
<path d="M138.65200 118.06600
L137.19200 118.06600
" />
<path d="M137.19200 118.06600
L137.19200 115.10600
" />
<path d="M155.23800 120.42800
L158.19800 120.42800
" />
<path d="M155.23800 121.88800
L155.23800 120.42800
" />
<path d="M158.19800 120.42800
L158.19800 121.88800
" />
<path d="M158.19800 121.88800
L155.23800 121.88800
" />
<circle cx="199.51700" cy="93.29420" r="3.05000" /> 
<path d="M183.57200 111.64500
L183.57200 116.34500
" />
<path d="M181.17200 111.64500
L183.57200 111.64500
" />
<path d="M183.57200 116.34500
L181.17200 116.34500
" />
<path d="M181.17200 116.34500
L181.17200 111.64500
" />
<path d="M158.67200 109.94600
L155.27200 109.94600
" />
<path d="M158.67200 107.98600
L158.67200 109.94600
" />
<path d="M155.27200 109.94600
L155.27200 107.98600
" />
<path d="M155.27200 107.98600
L158.67200 107.98600
" />
<path d="M194.08800 124.67000
L194.08800 121.71000
" />
<path d="M195.54800 124.67000
L194.08800 124.67000
" />
<path d="M194.08800 121.71000
L195.54800 121.71000
" />
<path d="M195.54800 121.71000
L195.54800 124.67000
" />
<path d="M196.37400 124.67000
L196.37400 121.71000
" />
<path d="M197.83400 124.67000
L196.37400 124.67000
" />
<path d="M196.37400 121.71000
L197.83400 121.71000
" />
<path d="M197.83400 121.71000
L197.83400 124.67000
" />
<path d="M183.57200 116.47100
L183.57200 121.17100
" />
<path d="M181.17200 116.47100
L183.57200 116.47100
" />
<path d="M183.57200 121.17100
L181.17200 121.17100
" />
<path d="M181.17200 121.17100
L181.17200 116.47100
" />
<path d="M158.65200 112.45600
L155.29200 112.45600
" />
<path d="M158.65200 110.55600
L158.65200 112.45600
" />
<path d="M155.29200 112.45600
L155.29200 110.55600
" />
<path d="M155.29200 110.55600
L158.65200 110.55600
" />
<path d="M126.27000 125.55900
L126.27000 122.59900
" />
<path d="M127.73000 125.55900
L126.27000 125.55900
" />
<path d="M126.27000 122.59900
L127.73000 122.59900
" />
<path d="M127.73000 122.59900
L127.73000 125.55900
" />
<path d="M148.79417 110.02600
L148.79417 112.98600
" />
<path d="M147.33417 110.02600
L148.79417 110.02600
" />
<path d="M148.79417 112.98600
L147.33417 112.98600
" />
<path d="M147.33417 112.98600
L147.33417 110.02600
" />
<path d="M149.38400 116.44800
L149.38400 113.48800
" />
<path d="M150.84400 116.44800
L149.38400 116.44800
" />
<path d="M149.38400 113.48800
L150.84400 113.48800
" />
<path d="M150.84400 113.48800
L150.84400 116.44800
" />
<path d="M141.79525 123.14000
L141.79525 126.10000
" />
<path d="M140.33525 123.14000
L141.79525 123.14000
" />
<path d="M141.79525 126.10000
L140.33525 126.10000
" />
<path d="M140.33525 126.10000
L140.33525 123.14000
" />
</g>
<g style="fill:#000000; fill-opacity:0.0; 
stroke:#000000; stroke-width:0.10000; stroke-opacity:1; 
stroke-linecap:round; stroke-linejoin:round;">
<path d="M180.94200 100.16500
L180.94200 123.35500
" />
<path d="M159.84200 100.16500
L180.94200 100.16500
" />
<path d="M180.94200 123.35500
L159.84200 123.35500
" />
<path d="M159.84200 123.35500
L159.84200 100.16500
" />
</g>
<g style="fill:#000000; fill-opacity:0.0; 
stroke:#000000; stroke-width:0.05000; stroke-opacity:1; 
stroke-linecap:round; stroke-linejoin:round;">
<path d="M133.61000 126.46600
L133.61000 122.26600
" />
<path d="M133.61000 122.26600
L128.01000 122.26600
" />
<path d="M128.01000 126.46600
L133.61000 126.46600
" />
<path d="M128.01000 122.26600
L128.01000 126.46600
" />
<circle cx="201.54900" cy="124.65050" r="3.05000" /> 
<path d="M158.65200 114.99600
L155.29200 114.99600
" />
<path d="M158.65200 113.09600
L158.65200 114.99600
" />
<path d="M155.29200 114.99600
L155.29200 113.09600
" />
<path d="M155.29200 113.09600
L158.65200 113.09600
" />
<path d="M136.62000 115.10600
L136.62000 118.06600
" />
<path d="M135.16000 115.10600
L136.62000 115.10600
" />
<path d="M136.62000 118.06600
L135.16000 118.06600
" />
<path d="M135.16000 118.06600
L135.16000 115.10600
" />
<path d="M150.84400 121.10800
L150.84400 124.06800
" />
<path d="M149.38400 121.10800
L150.84400 121.10800
" />
<path d="M150.84400 124.06800
L149.38400 124.06800
" />
<path d="M149.38400 124.06800
L149.38400 121.10800
" />
<path d="M154.76800 119.17000
L154.76800 122.13000
" />
<path d="M153.30800 119.17000
L154.76800 119.17000
" />
<path d="M154.76800 122.13000
L153.30800 122.13000
" />
<path d="M153.30800 122.13000
L153.30800 119.17000
" />
<path d="M169.38400 99.08200
L165.13400 99.08200
" />
<path d="M169.38400 95.48200
L169.38400 99.08200
" />
<path d="M165.13400 99.08200
L165.13400 95.48200
" />
<path d="M165.13400 95.48200
L169.38400 95.48200
" />
<path d="M153.30800 118.35300
L153.30800 115.39300
" />
<path d="M154.76800 118.35300
L153.30800 118.35300
" />
<path d="M153.30800 115.39300
L154.76800 115.39300
" />
<path d="M154.76800 115.39300
L154.76800 118.35300
" />
<path d="M134.58800 115.10600
L134.58800 118.06600
" />
<path d="M133.12800 115.10600
L134.58800 115.10600
" />
<path d="M134.58800 118.06600
L133.12800 118.06600
" />
<path d="M133.12800 118.06600
L133.12800 115.10600
" />
<path d="M179.21100 97.41600
L174.61100 97.41600
" />
<path d="M179.21100 95.11600
L179.21100 97.41600
" />
<path d="M174.61100 97.41600
L174.61100 95.11600
" />
<path d="M174.61100 95.11600
L179.21100 95.11600
" />
</g>
<g style="fill:#000000; fill-opacity:0.0; 
stroke:#000000; stroke-width:0.10000; stroke-opacity:1; 
stroke-linecap:round; stroke-linejoin:round;">
<path d="M190.50000 124.71400
L186.43600 124.71400
" />
<path d="M190.50000 121.66600
L190.50000 124.71400
" />
<path d="M186.43600 124.71400
L186.43600 121.66600
" />
<path d="M186.43600 121.66600
L190.50000 121.66600
" />
</g>
<g style="fill:#000000; fill-opacity:0.0; 
stroke:#000000; stroke-width:0.05000; stroke-opacity:1; 
stroke-linecap:round; stroke-linejoin:round;">
<path d="M144.17650 123.14000
L144.17650 126.10000
" />
<path d="M142.71650 123.14000
L144.17650 123.14000
" />
<path d="M144.17650 126.10000
L142.71650 126.10000
" />
<path d="M142.71650 126.10000
L142.71650 123.14000
" />
</g>
<g style="fill:#000000; fill-opacity:0.0; 
stroke:#000000; stroke-width:0.10000; stroke-opacity:1; 
stroke-linecap:round; stroke-linejoin:round;">
<path d="M184.31620 101.15120
L208.26620 101.15120
" />
<path d="M184.31620 121.25120
L184.31620 101.15120
" />
<path d="M208.26620 101.15120
L208.26620 121.25120
" />
<path d="M208.26620 121.25120
L184.31620 121.25120
" />
</g>
<g style="fill:#000000; fill-opacity:0.0; 
stroke:#000000; stroke-width:0.05000; stroke-opacity:1; 
stroke-linecap:round; stroke-linejoin:round;">
<path d="M181.17200 102.67980
L181.17200 97.97980
" />
<path d="M183.57200 102.67980
L181.17200 102.67980
" />
<path d="M181.17200 97.97980
L183.57200 97.97980
" />
<path d="M183.57200 97.97980
L183.57200 102.67980
" />
<g >
</g>
<g >
</g>
<g >
</g>
<g >
</g>
<g >
</g>
<g >
</g>
<g >
</g>
<g >
</g>
<g >
</g>
<g >
</g>
<g >
</g>
<g >
</g>
<g >
</g>
<g >
</g>
<g >
</g>
<g >
</g>
<g >
</g>
<g >
</g>
<g >
</g>
<g >
</g>
<g >
</g>
<g >
</g>
<g >
</g>
<g >
</g>
<g >
</g>
<g >
</g>
<g >
</g>
<g >
</g>
<g >
</g>
<g >
</g>
<g >
</g>
<g >
</g>
<g >
</g>
<g >
</g>
<g >
</g>
<g >
</g>
<g >
</g>
<g >
</g>
<g >
</g>
<g >
</g>
<g >
</g>
<g >
</g>
<g >
</g>
<g >
</g>
<g >
</g>
<g >
</g>
<g >
</g>
<g >
</g>
<g >
</g>
<g >
</g>
<g >
</g>
<g >
</g>
<g >
</g>
<g >
</g>
<g >
</g>
<g >
</g>
<g >
</g>
<g >
</g>
<g >
</g>
<g >
</g>
<g >
</g>
<g >
</g>
<g >
</g>
<g >
</g>
<g >
</g>
<g >
</g>
<g >
</g>
<g >
</g>
<g >
</g>
<g >
</g>
<g >
</g>
<g >
</g>
<g >
</g>
<g >
</g>
<g >
</g>
<g >
</g>
<g >
</g>
<g >
</g>
<g >
</g>
<g >
</g>
<g >
</g>
<g >
</g>
<g >
</g>
<g >
</g>
<g >
</g>
</g> 
</svg>
